<svg viewBox="0 0 512 512" xmlns="http://www.w3.org/2000/svg" xmlns:xlink="http://www.w3.org/1999/xlink"><style>:root&gt;svg{display:none}:root&gt;svg:target{display:block}</style><svg viewBox="-2 -2 24 24" preserveAspectRatio="xMinYMin" class="aicon__icon" id="brightness" xmlns="http://www.w3.org/2000/svg"><path d="M10 18c.112 0 .112-5.333 0-16a8 8 0 100 16zm0 2C4.477 20 0 15.523 0 10S4.477 0 10 0s10 4.477 10 10-4.477 10-10 10z"/></svg><svg viewBox="-5 -7 24 24" preserveAspectRatio="xMinYMin" class="bicon__icon" id="check" xmlns="http://www.w3.org/2000/svg"><path d="M5.486 9.73a.997.997 0 01-.707-.292L.537 5.195A1 1 0 111.95 3.78l3.535 3.535L11.85.952a1 1 0 011.415 1.414L6.193 9.438a.997.997 0 01-.707.292z"/></svg><svg viewBox="-6 -6 24 24" preserveAspectRatio="xMinYMin" class="cicon__icon" id="close" xmlns="http://www.w3.org/2000/svg"><path d="M7.314 5.9l3.535-3.536A1 1 0 109.435.95L5.899 4.485 2.364.95A1 1 0 10.95 2.364l3.535 3.535L.95 9.435a1 1 0 101.414 1.414l3.535-3.535 3.536 3.535a1 1 0 101.414-1.414L7.314 5.899z"/></svg><svg viewBox="-2 -2 24 24" preserveAspectRatio="xMinYMin" class="dicon__icon" id="dice" xmlns="http://www.w3.org/2000/svg"><path d="M16 0a4 4 0 014 4v12a4 4 0 01-4 4H4a4 4 0 01-4-4V4a4 4 0 014-4h12zm0 2H4a2 2 0 00-1.995 1.85L2 4v12a2 2 0 001.85 1.995L4 18h12a2 2 0 001.995-1.85L18 16V4a2 2 0 00-1.85-1.995L16 2zm-1 11a2 2 0 110 4 2 2 0 010-4zm-5-5a2 2 0 110 4 2 2 0 010-4zM5 3a2 2 0 110 4 2 2 0 010-4z"/></svg><svg viewBox="-4 -2 24 24" preserveAspectRatio="xMinYMin" class="eicon__icon" id="dj" xmlns="http://www.w3.org/2000/svg"><path d="M4 0h8a4 4 0 014 4v12a4 4 0 01-4 4H4a4 4 0 01-4-4V4a4 4 0 014-4zm0 2a2 2 0 00-2 2v12a2 2 0 002 2h8a2 2 0 002-2V4a2 2 0 00-2-2H4zm4 15A5 5 0 118 7a5 5 0 010 10zm0-2a3 3 0 100-6 3 3 0 000 6zM4 3h4a1 1 0 011 1v1a1 1 0 01-1 1H4a1 1 0 01-1-1V4a1 1 0 011-1zm7 0h1a1 1 0 011 1v1a1 1 0 01-1 1h-1a1 1 0 01-1-1V4a1 1 0 011-1zM8 13a1 1 0 110-2 1 1 0 010 2z"/></svg><svg viewBox="-0.5 -0.5 24 24" preserveAspectRatio="xMinYMin" class="ficon__icon" id="flashlight-off" xmlns="http://www.w3.org/2000/svg"><path d="M13.31 5.825l3.865 3.865c.334-.09.642-.265.896-.518l2.121-2.122-4.242-4.242-2.122 2.12a2.004 2.004 0 00-.518.897zm1.933 4.76l-2.829-2.828-9.192 9.193a1 1 0 000 1.414l1.414 1.414a1 1 0 001.414 0l9.193-9.192zm-2.829-7.07l2.122-2.122a2 2 0 012.828 0l4.243 4.243a2 2 0 010 2.828l-2.122 2.122a3.985 3.985 0 01-2.578 1.164l-9.443 9.442a3 3 0 01-4.242 0l-1.414-1.414a3 3 0 010-4.242l9.442-9.443a3.985 3.985 0 011.164-2.578zm-2.121 9.192a1 1 0 010-1.414l1.414-1.414a1 1 0 111.414 1.414l-1.414 1.414a1 1 0 01-1.414 0z"/></svg><svg viewBox="-5 -7 24 24" preserveAspectRatio="xMinYMin" class="gicon__icon" id="menu" xmlns="http://www.w3.org/2000/svg"><path d="M1 0h5a1 1 0 110 2H1a1 1 0 110-2zm7 8h5a1 1 0 010 2H8a1 1 0 110-2zM1 4h12a1 1 0 010 2H1a1 1 0 110-2z"/></svg><svg viewBox="0 0 512 512" id="moon" xmlns="http://www.w3.org/2000/svg"><path d="M113.111 148.694c-5.327 0-9.686-5.378-9.686-11.95V99.629c0-6.573 4.358-11.95 9.686-11.95s9.687 5.377 9.687 11.95v37.115c-.001 6.572-4.359 11.95-9.687 11.95z" fill="#5AA096"/><circle cx="269.256" cy="239.324" fill="#598889" r="200.078"/><path d="M412.037 146.381V29.804c0-4.67-3.821-8.492-8.492-8.492-4.67 0-8.491 3.821-8.491 8.492v94.649c-17.683-19.354-39.772-34.606-64.681-44.183V30.797c0-4.67-3.821-8.492-8.492-8.492-4.67 0-8.491 3.821-8.491 8.492v43.955a170.549 170.549 0 00-44.134-5.785c-43.03 0-82.327 15.96-112.313 42.275V28.535c0-4.67-3.821-8.491-8.491-8.491s-8.491 3.821-8.491 8.491v99.869c-25.593 29.805-41.063 68.554-41.063 110.92 0 94.086 76.272 170.358 170.359 170.358 94.086 0 170.357-76.272 170.357-170.358-.001-34.293-10.142-66.214-27.577-92.943z" fill="#466C6F"/><path d="M423.282 491.956H115.229c0-85.065 68.96-154.026 154.027-154.026 85.066 0 154.026 68.961 154.026 154.026z" fill="#FFD800"/><path d="M244.763 366.052c12.653 1.803 24.372-6.992 26.174-19.646a23.088 23.088 0 00-.397-8.646c-.429-.004-.855-.017-1.284-.017a154.002 154.002 0 00-44.342 6.49c.502 10.885 8.666 20.226 19.849 21.819z" fill="#DDBD37"/><circle cx="331.228" cy="386.859" fill="#DDBD37" r="9.069"/><circle cx="224.889" cy="386.859" fill="#DDBD37" r="9.069"/><ellipse cx="248.382" cy="453.967" fill="#DDBD37" rx="18.044" ry="13.296" transform="rotate(-14.999 248.416 454.017)"/><ellipse cx="175.188" cy="428.64" fill="#DDBD37" rx="28.271" ry="20.831" transform="rotate(-14.999 175.218 428.695)"/><path d="M377.454 382.16c-7.107 5.656-10.779 13.554-8.802 20.938 2.979 11.112 17.617 16.845 32.699 12.804a37.619 37.619 0 001.691-.499 154.574 154.574 0 00-25.588-33.243zm.917 52.981c-11.885-8.063-26.055-7.914-31.649.332-2.734 4.03-2.908 9.248-.991 14.472-3.978.961-6.936 4.534-6.936 8.806a9.069 9.069 0 009.068 9.069 9.06 9.06 0 007.869-4.572c.76.608 1.551 1.196 2.379 1.758 11.885 8.063 26.055 7.915 31.649-.332s.497-21.47-11.389-29.533z" fill="#DDBD37"/><path fill="#FF7143" d="M268.857 223.766h68.662v51.342h-68.662z"/><path fill="#DB6423" d="M268.857 223.765h-14v164.296h14V223.766z"/><path d="M361.339 183.872c-5.327 0-9.687-5.378-9.687-11.95v-116.4c0-6.573 4.359-11.95 9.687-11.95 5.327 0 9.687 5.377 9.687 11.95v116.4c-.001 6.572-4.36 11.95-9.687 11.95zM187.48 134.583c-5.327 0-9.686-5.378-9.686-11.95V55.521c0-6.573 4.358-11.95 9.686-11.95s9.687 5.377 9.687 11.95v67.112c0 6.573-4.359 11.95-9.687 11.95z" fill="#5AA096"/><circle cx="459.435" cy="427.403" fill="#66B2B2" r="19.865"/><circle cx="69.234" cy="188.149" fill="#66B2B2" r="19.866"/><circle cx="69.372" cy="148.113" fill="#66B2B2" r="9.348"/><circle cx="185.405" cy="307.273" fill="#66B2B2" r="9.348"/><circle cx="403.096" cy="337.052" fill="#66B2B2" r="9.349"/><circle cx="451.357" cy="153.248" fill="#66B2B2" r="9.349"/><circle cx="431.71" cy="287.752" fill="#66B2B2" r="19.866"/><circle cx="128.791" cy="255.92" fill="#FFF" r="19.866"/><circle cx="94.905" cy="351.417" fill="#66B2B2" r="19.866"/><path fill="#FFD326" d="M164.5 158.386l5.192 10.521 11.611 1.687-8.402 8.19 1.983 11.564-10.384-5.46-10.385 5.46 1.983-11.564-8.401-8.19 11.61-1.687zm295-112l5.192 10.521 11.612 1.687-8.403 8.19 1.984 11.564-10.385-5.46-10.385 5.46 1.984-11.564-8.402-8.19 11.611-1.687zm-410 244.001l5.192 10.52 11.611 1.687-8.402 8.189 1.983 11.565-10.384-5.46-10.385 5.46 1.983-11.565-8.401-8.189 11.61-1.687zm336-61.001l5.192 10.521 11.612 1.687-8.403 8.19 1.984 11.564-10.385-5.46-10.385 5.46 1.984-11.564-8.402-8.19 11.611-1.687z"/></svg><svg viewBox="-2 -2 24 24" preserveAspectRatio="xMinYMin" class="iicon__icon" id="movie" xmlns="http://www.w3.org/2000/svg"><path d="M6 15v3h8v-7H6v4zm-2-2v-2H2V9h2V7H2v6h2zm0 2H2v1a2 2 0 002 2v-3zm14-2V7h-2v2h2v2h-2v2h2zm0 2h-2v3a2 2 0 002-2v-1zm-4-8V2H6v7h8V7zm4-2V4a2 2 0 00-2-2v3h2zM4 5V2a2 2 0 00-2 2v1h2zm0-5h12a4 4 0 014 4v12a4 4 0 01-4 4H4a4 4 0 01-4-4V4a4 4 0 014-4z"/></svg><svg viewBox="-2.5 -2.5 24 24" preserveAspectRatio="xMinYMin" class="jicon__icon" id="pencil" xmlns="http://www.w3.org/2000/svg"><path d="M12.238 5.472L3.2 14.51l-.591 2.016 1.975-.571 9.068-9.068-1.414-1.415zM13.78 3.93l1.414 1.414 1.318-1.318a.5.5 0 000-.707l-.708-.707a.5.5 0 00-.707 0L13.781 3.93zm3.439-2.732l.707.707a2.5 2.5 0 010 3.535L5.634 17.733l-4.22 1.22a1 1 0 01-1.237-1.241l1.248-4.255 12.26-12.26a2.5 2.5 0 013.535 0z"/></svg><svg viewBox="-2 -7 24 24" preserveAspectRatio="xMinYMin" class="kicon__icon" id="rainbow" xmlns="http://www.w3.org/2000/svg"><path d="M0 10C0 4.477 4.477 0 10 0s10 4.477 10 10h-2a8 8 0 10-16 0H0zm4 0a6 6 0 1112 0h-2a4 4 0 10-8 0H4zm4 0a2 2 0 114 0H8z"/></svg><svg viewBox="-7 -2 24 24" preserveAspectRatio="xMinYMin" class="licon__icon" id="temperature" xmlns="http://www.w3.org/2000/svg"><path d="M10 15a5 5 0 11-8-4V3a3 3 0 116 0v8c1.214.912 2 2.364 2 4zm-3.201-2.401l-.799-.6V3a1 1 0 10-2 0v8.999l-.799.6a3 3 0 103.598 0zM5 17a2 2 0 110-4 2 2 0 010 4z"/></svg><svg viewBox="-2 -6 24 24" preserveAspectRatio="xMinYMin" class="micon__icon" id="video-camera" xmlns="http://www.w3.org/2000/svg"><path d="M4 2a2 2 0 00-2 2v4a2 2 0 002 2h6a2 2 0 002-2V4a2 2 0 00-2-2H4zm9.98 1.605L16 1.585A2 2 0 0117.414 1H18a2 2 0 012 2v6a2 2 0 01-2 2h-.586A2 2 0 0116 10.414l-2.02-2.019A4 4 0 0110 12H4a4 4 0 01-4-4V4a4 4 0 014-4h6a4 4 0 013.98 3.605zM17.415 9H18V3h-.586l-3 3 3 3zM5 8a1 1 0 110-2 1 1 0 010 2z"/></svg></svg>