<svg viewBox="0 0 512 512" xmlns="http://www.w3.org/2000/svg" xmlns:xlink="http://www.w3.org/1999/xlink"><style>:root&gt;svg{display:none}:root&gt;svg:target{display:block}</style><svg fill="none" viewBox="0 0 12 8" id="arrow" xmlns="http://www.w3.org/2000/svg"><path d="M1 1l5.417 5L11 1" stroke="#4261CF" stroke-width="1.5"/></svg><svg fill="none" viewBox="0 0 56 56" id="instagram" xmlns="http://www.w3.org/2000/svg"><path d="M38.133 42.23h-19.14a5.742 5.742 0 01-5.743-5.741V17.348a5.742 5.742 0 015.742-5.742h19.14a5.742 5.742 0 015.743 5.742v19.14a5.742 5.742 0 01-5.742 5.743zm-19.14-27.667c-.508 0-1.76.201-2.12.56-.359.36-.56 1.717-.56 2.225v19.14c0 .508.146 2.092.505 2.451.36.36 1.612.561 2.12.561h19.14c.508 0 1.76-.253 2.12-.612.358-.359.614-1.943.614-2.45V17.297c0-.508-.201-1.866-.56-2.225-.36-.359-1.611-.51-2.12-.51h-19.14z" fill="#fff"/><path d="M28.563 35.125a8.312 8.312 0 110-16.625 8.312 8.312 0 010 16.625zm0-13.125c-.914 0-2.304.368-3.063.875-.76.507-1.4 1.344-1.75 2.188-.35.843-.616 1.729-.438 2.625.179.895.667 1.979 1.313 2.625.646.645 2.167 1.571 3.063 1.75.895.178 2.218-.089 3.062-.438.844-.35 1.438-.872 1.946-1.631.507-.76 1.117-2.268 1.117-3.181 0-1.225-.884-2.634-1.75-3.5-.867-.867-2.276-1.313-3.5-1.313zm8.75-.875a2.188 2.188 0 100-4.375 2.188 2.188 0 000 4.375z" fill="#fff"/></svg><svg fill="none" viewBox="0 0 17 17" id="lock" xmlns="http://www.w3.org/2000/svg"><path d="M12.75 7.438V4.25A4.255 4.255 0 008.5 0a4.255 4.255 0 00-4.25 4.25v3.188a2.125 2.125 0 00-2.125 2.124v5.313c0 1.174.951 2.125 2.125 2.125h8.5a2.125 2.125 0 002.125-2.125V9.562a2.125 2.125 0 00-2.125-2.124zm-3.719 5.149v1.757a.53.53 0 11-1.062 0v-1.757a1.046 1.046 0 01-.531-.9 1.062 1.062 0 112.125 0c0 .39-.22.715-.532.9zm1.594-5.15h-4.25V4.25c0-1.172.953-2.125 2.125-2.125 1.171 0 2.125.953 2.125 2.125v3.188z" fill="#fff"/></svg><svg fill="none" viewBox="0 0 138 75" id="logo" xmlns="http://www.w3.org/2000/svg"><path d="M55 0H0v75h55V0z" fill="#fff"/><path d="M16.52 46.4c-2.28 0-4.22-.16-5.82-.48-1.6-.32-2.893-.773-3.88-1.36-.987-.587-1.713-1.287-2.18-2.1-.453-.827-.68-1.74-.68-2.74 0-1.6.207-3.007.62-4.22.413-1.213.967-2.227 1.66-3.04.693-.827 1.467-1.447 2.32-1.86.853-.413 1.72-.62 2.6-.62 1.027 0 2.06.107 3.1.32 1.04.213 1.987.54 2.84.98l-1.12 3.26c-1.693-1.72-3.5-2.58-5.42-2.58-.453 0-.88.187-1.28.56-.4.373-.747.873-1.04 1.5a9.909 9.909 0 00-.7 2.04 10.2 10.2 0 00-.24 2.18c0 1 .14 1.913.42 2.74.293.813.787 1.547 1.48 2.2.693.64 1.64 1.207 2.84 1.7 1.2.48 2.707.9 4.52 1.26l-.04.26zm3.626-.4l-.56-15.6h3.76l-.56 15.6h-2.64zm10.061 0l-.54-13.3-4.16.54V30.2l12.38 1.14v.28l-4.54.6-.54 13.78h-2.6zm13.137 0l-.48-5.26-5.3-9.92 3.66-.82 3.02 8.42 6.3-8.2.3-.02-4.44 10.5-.48 5.3h-2.58z" fill="#000"/><path d="M73.745 46l-.58-11.7-4.46 10.18h-.14l-4.48-10.18-1.82 11.98h-.3l-1.1-15.88h3.68l4.86 8.08 3.72-8.08h3.26l-.3 15.6h-2.34zm12.544.4c-.76 0-1.56-.187-2.4-.56-.827-.387-1.607-.94-2.34-1.66a8.413 8.413 0 01-1.78-2.6c-.453-1.013-.68-2.153-.68-3.42 0-.987.147-1.9.44-2.74a8.477 8.477 0 011.22-2.28 8.555 8.555 0 011.7-1.7 7.314 7.314 0 011.92-1.08c.667-.253 1.307-.38 1.92-.38.6 0 1.227.127 1.88.38a7.33 7.33 0 011.92 1.1 8.555 8.555 0 011.7 1.7 8.14 8.14 0 011.2 2.26c.293.84.44 1.753.44 2.74 0 1.267-.227 2.407-.68 3.42-.453 1.013-1.04 1.88-1.76 2.6-.72.72-1.493 1.273-2.32 1.66-.827.373-1.62.56-2.38.56zm.8-1.72a2.47 2.47 0 001.66-.62c.48-.413.853-.987 1.12-1.72.28-.747.42-1.607.42-2.58 0-1.347-.153-2.52-.46-3.52-.307-1.013-.707-1.853-1.2-2.52s-1.02-1.167-1.58-1.5c-.547-.333-1.067-.5-1.56-.5-.613 0-1.167.207-1.66.62-.493.4-.887.96-1.18 1.68-.28.72-.42 1.567-.42 2.54 0 1.427.153 2.653.46 3.68.32 1.027.727 1.867 1.22 2.52.507.653 1.04 1.14 1.6 1.46.56.307 1.087.46 1.58.46zm9.109-14.28h3.64l-.02 1.06a7.33 7.33 0 011.76-.78c.6-.187 1.193-.28 1.78-.28 1.506 0 2.606.293 3.3.88.706.573 1.06 1.293 1.06 2.16 0 .08-.007.16-.02.24 0 .08-.007.16-.02.24-.08.64-.42 1.28-1.02 1.92-.6.64-1.547 1.233-2.84 1.78 1.013.053 1.866.26 2.56.62.693.36 1.22.78 1.58 1.26.36.48.54.94.54 1.38 0 1.107-.46 2.067-1.38 2.88-.907.8-2.22 1.42-3.94 1.86-1.72.427-3.8.64-6.24.64l-.74-15.86zm3.48 7.92c1.16-.547 2.086-1.1 2.78-1.66.706-.56 1.22-1.073 1.54-1.54.333-.48.52-.847.56-1.1.013-.053.02-.1.02-.14v-.16c0-.453-.147-.867-.44-1.24-.294-.387-.694-.58-1.2-.58-.574 0-1.107.033-1.6.1a8.568 8.568 0 00-1.54.32l-.12 6zm-.16 7c1.12-.253 2.033-.547 2.74-.88.72-.347 1.273-.713 1.66-1.1.4-.387.68-.78.84-1.18.16-.413.239-.82.239-1.22 0-.227-.073-.447-.219-.66-.147-.227-.414-.433-.8-.62-.387-.2-.934-.36-1.64-.48-.694-.133-1.587-.207-2.68-.22l-.14 6.36zm12.146.88l-.74-15.8h3.64l-.04 1.52 7.2-1.72v3.24l-7.22-.7-.12 5.06 6.32-1.48v3.18l-6.34-.9-.12 4.82 7.88.84v.2l-10.46 1.74zm25.149.06l-8.24-7.34.02-.28a6.196 6.196 0 002.12-.84 6.866 6.866 0 001.6-1.4c.44-.533.747-1.06.92-1.58.12-.347.18-.673.18-.98 0-.52-.18-.947-.54-1.28-.36-.333-.913-.5-1.66-.5-.92 0-1.887.127-2.9.38l-.3 13.56h-2.56l-.74-15.6h3.64l-.02 1.1a9.315 9.315 0 011.9-.8c.653-.2 1.28-.3 1.88-.3 1.12 0 2.013.187 2.68.56.667.36 1.147.82 1.44 1.38.307.547.46 1.113.46 1.7 0 .4-.06.773-.18 1.12a3.904 3.904 0 01-.98 1.56c-.453.453-.98.833-1.58 1.14a8.103 8.103 0 01-1.74.68l4.86 7.74-.26-.02z" fill="#fff"/></svg><svg viewBox="0 0 512 512" id="moon" xmlns="http://www.w3.org/2000/svg"><path d="M113.111 148.694c-5.327 0-9.686-5.378-9.686-11.95V99.629c0-6.573 4.358-11.95 9.686-11.95s9.687 5.377 9.687 11.95v37.115c-.001 6.572-4.359 11.95-9.687 11.95z" fill="#5AA096"/><circle cx="269.256" cy="239.324" fill="#598889" r="200.078"/><path d="M412.037 146.381V29.804c0-4.67-3.821-8.492-8.492-8.492-4.67 0-8.491 3.821-8.491 8.492v94.649c-17.683-19.354-39.772-34.606-64.681-44.183V30.797c0-4.67-3.821-8.492-8.492-8.492-4.67 0-8.491 3.821-8.491 8.492v43.955a170.549 170.549 0 00-44.134-5.785c-43.03 0-82.327 15.96-112.313 42.275V28.535c0-4.67-3.821-8.491-8.491-8.491s-8.491 3.821-8.491 8.491v99.869c-25.593 29.805-41.063 68.554-41.063 110.92 0 94.086 76.272 170.358 170.359 170.358 94.086 0 170.357-76.272 170.357-170.358-.001-34.293-10.142-66.214-27.577-92.943z" fill="#466C6F"/><path d="M423.282 491.956H115.229c0-85.065 68.96-154.026 154.027-154.026 85.066 0 154.026 68.961 154.026 154.026z" fill="#FFD800"/><path d="M244.763 366.052c12.653 1.803 24.372-6.992 26.174-19.646a23.088 23.088 0 00-.397-8.646c-.429-.004-.855-.017-1.284-.017a154.002 154.002 0 00-44.342 6.49c.502 10.885 8.666 20.226 19.849 21.819z" fill="#DDBD37"/><circle cx="331.228" cy="386.859" fill="#DDBD37" r="9.069"/><circle cx="224.889" cy="386.859" fill="#DDBD37" r="9.069"/><ellipse cx="248.382" cy="453.967" fill="#DDBD37" rx="18.044" ry="13.296" transform="rotate(-14.999 248.416 454.017)"/><ellipse cx="175.188" cy="428.64" fill="#DDBD37" rx="28.271" ry="20.831" transform="rotate(-14.999 175.218 428.695)"/><path d="M377.454 382.16c-7.107 5.656-10.779 13.554-8.802 20.938 2.979 11.112 17.617 16.845 32.699 12.804a37.619 37.619 0 001.691-.499 154.574 154.574 0 00-25.588-33.243zm.917 52.981c-11.885-8.063-26.055-7.914-31.649.332-2.734 4.03-2.908 9.248-.991 14.472-3.978.961-6.936 4.534-6.936 8.806a9.069 9.069 0 009.068 9.069 9.06 9.06 0 007.869-4.572c.76.608 1.551 1.196 2.379 1.758 11.885 8.063 26.055 7.915 31.649-.332s.497-21.47-11.389-29.533z" fill="#DDBD37"/><path fill="#FF7143" d="M268.857 223.766h68.662v51.342h-68.662z"/><path fill="#DB6423" d="M268.857 223.765h-14v164.296h14V223.766z"/><path d="M361.339 183.872c-5.327 0-9.687-5.378-9.687-11.95v-116.4c0-6.573 4.359-11.95 9.687-11.95 5.327 0 9.687 5.377 9.687 11.95v116.4c-.001 6.572-4.36 11.95-9.687 11.95zM187.48 134.583c-5.327 0-9.686-5.378-9.686-11.95V55.521c0-6.573 4.358-11.95 9.686-11.95s9.687 5.377 9.687 11.95v67.112c0 6.573-4.359 11.95-9.687 11.95z" fill="#5AA096"/><circle cx="459.435" cy="427.403" fill="#66B2B2" r="19.865"/><circle cx="69.234" cy="188.149" fill="#66B2B2" r="19.866"/><circle cx="69.372" cy="148.113" fill="#66B2B2" r="9.348"/><circle cx="185.405" cy="307.273" fill="#66B2B2" r="9.348"/><circle cx="403.096" cy="337.052" fill="#66B2B2" r="9.349"/><circle cx="451.357" cy="153.248" fill="#66B2B2" r="9.349"/><circle cx="431.71" cy="287.752" fill="#66B2B2" r="19.866"/><circle cx="128.791" cy="255.92" fill="#FFF" r="19.866"/><circle cx="94.905" cy="351.417" fill="#66B2B2" r="19.866"/><path fill="#FFD326" d="M164.5 158.386l5.192 10.521 11.611 1.687-8.402 8.19 1.983 11.564-10.384-5.46-10.385 5.46 1.983-11.564-8.401-8.19 11.61-1.687zm295-112l5.192 10.521 11.612 1.687-8.403 8.19 1.984 11.564-10.385-5.46-10.385 5.46 1.984-11.564-8.402-8.19 11.611-1.687zm-410 244.001l5.192 10.52 11.611 1.687-8.402 8.189 1.983 11.565-10.384-5.46-10.385 5.46 1.983-11.565-8.401-8.189 11.61-1.687zm336-61.001l5.192 10.521 11.612 1.687-8.403 8.19 1.984 11.564-10.385-5.46-10.385 5.46 1.984-11.564-8.402-8.19 11.611-1.687z"/></svg><svg fill="none" viewBox="0 0 27 31" id="play" xmlns="http://www.w3.org/2000/svg"><path d="M27 15.5L.75 30.655V.345L27 15.5z" fill="#4E75FF"/></svg><svg fill="none" viewBox="0 0 22 22" id="tel" xmlns="http://www.w3.org/2000/svg"><path d="M.099 17.535l.11-.33c.259-.77 1.109-1.575 1.89-1.786l2.89-.79c.784-.213 1.902.073 2.476.647l1.046 1.046a11.096 11.096 0 007.808-7.81l-1.046-1.046c-.573-.573-.86-1.69-.647-2.473l.788-2.892c.213-.783 1.019-1.633 1.788-1.89l.33-.11c.771-.257 1.87.003 2.444.576l1.565 1.567c.28.278.458 1.073.458 1.076a18.48 18.48 0 01-5.407 13.268 18.486 18.486 0 01-13.228 5.41c-.026 0-.844-.177-1.124-.455L.675 19.98c-.573-.574-.832-1.673-.576-2.444z" fill="#fff"/></svg><svg fill="none" viewBox="0 0 32 32" id="telegram" xmlns="http://www.w3.org/2000/svg"><path d="M29.919 6.163l-4.225 19.925c-.319 1.406-1.15 1.756-2.331 1.094l-6.438-4.744-3.106 2.988c-.344.344-.631.631-1.294.631l.463-6.556L24.918 8.72c.52-.462-.112-.719-.805-.256l-14.75 9.288-6.35-1.988c-1.381-.431-1.406-1.381.288-2.044l24.837-9.569c1.15-.431 2.156.256 1.781 2.013v-.001z" fill="#fff"/></svg><svg fill="none" viewBox="0 0 29 29" id="tiktok" xmlns="http://www.w3.org/2000/svg"><path d="M15.142.024C16.723 0 18.295.014 19.866 0c.095 1.85.76 3.734 2.114 5.041 1.351 1.34 3.263 1.954 5.122 2.162v4.865c-1.742-.057-3.493-.42-5.075-1.17-.688-.311-1.33-.713-1.958-1.123-.008 3.53.015 7.057-.023 10.573-.094 1.69-.651 3.37-1.634 4.762-1.58 2.318-4.323 3.828-7.14 3.875-1.73.1-3.456-.372-4.928-1.24-2.44-1.44-4.158-4.074-4.408-6.901a20.209 20.209 0 01-.015-1.798 9.058 9.058 0 013.12-5.995c2.002-1.743 4.805-2.573 7.429-2.082.024 1.79-.047 3.578-.047 5.368-1.199-.388-2.6-.28-3.648.449A4.185 4.185 0 007.127 18.9c-.25.613-.179 1.293-.164 1.944.287 1.983 2.194 3.65 4.23 3.469 1.349-.015 2.642-.798 3.345-1.944.228-.401.482-.812.496-1.284.119-2.162.071-4.314.086-6.475.01-4.871-.015-9.729.023-14.585h-.001z" fill="#fff"/></svg></svg>