<svg viewBox="0 0 260 50" xmlns="http://www.w3.org/2000/svg" xmlns:xlink="http://www.w3.org/1999/xlink"><style>:root&gt;svg{display:none}:root&gt;svg:target{display:block}</style><svg viewBox="0 0 48 48" id="arrow" xmlns="http://www.w3.org/2000/svg"><path d="M47.875 24c0 13.186-10.689 23.875-23.875 23.875S.125 37.186.125 24 10.814.125 24 .125 47.875 10.814 47.875 24zm-22.372-7.119l6.994 7.049a1.5 1.5 0 102.129-2.114l-9.562-9.637a1.5 1.5 0 00-1.063-.443H24c-.399 0-.782.159-1.063.442l-9.591 9.637a1.5 1.5 0 102.126 2.116L22.5 16.87v19.163a1.5 1.5 0 103 0l.003-19.152z" fill="#008ec0"/></svg><svg fill="none" viewBox="0 0 28 40" id="award1" xmlns="http://www.w3.org/2000/svg"><g clip-path="url(#bclip0)"><path d="M7.839 21.394L3.404 37.949 8.14 35.51 11.053 40l2.766-10.32L16.583 40l2.884-4.481 4.765 2.43-4.435-16.555-5.978 1.602-5.98-1.602z" fill="#BF0000"/><path opacity=".35" d="M7.839 21.394l-1.423 5.313.483 1.058 1.26-.118.7 1.055 1.226-.314.857.934 1.161-.505.991.788 1.068-.68 1.103.622.948-.838 1.187.44.807-.976 1.238.25.645-1.091 1.266.053.027-.073-1.585-5.918-5.979 1.602-5.98-1.602z" fill="#BF0000"/><path d="M25.803 20.791l-1.15.528-.08 1.267-1.219.34-.276 1.237-1.257.147-.465 1.18-1.265-.053-.645 1.091-1.239-.25-.807.976-1.186-.442-.949.839-1.103-.623-1.068.679-.99-.786-1.16.503-.857-.933-1.225.315-.7-1.056-1.26.12-.526-1.154-1.266-.077-.34-1.226-1.234-.276-.146-1.26-1.175-.463.053-1.267-1.09-.645.25-1.249-.976-.808.441-1.191-.838-.952.62-1.104-.677-1.072.786-.994-.503-1.16.932-.86-.315-1.225 1.053-.703-.118-1.263 1.15-.528.08-1.266 1.218-.342.277-1.238 1.257-.146.465-1.178 1.265.052.645-1.091 1.24.25.806-.976 1.187.44.948-.838 1.103.623L14.543 0l.993.789 1.16-.505.857.934L18.78.904l.7 1.055 1.26-.118.524 1.151 1.264.081.34 1.22 1.234.279.147 1.26 1.175.467-.053 1.267 1.09.645-.25 1.245.975.808-.44 1.189.84.95-.622 1.106.677 1.072-.785.994.503 1.161-.935.863.316 1.225-1.054.703.118 1.264z" fill="#EC2327"/><path d="M25.067 13.824a11.244 11.244 0 11-22.487 0 11.244 11.244 0 0122.487 0z" fill="#EC2327" stroke="#fff" stroke-miterlimit="10"/><path d="M25.061 13.854a11.244 11.244 0 11-22.487 0 11.244 11.244 0 0122.487 0v0z" stroke="#fff" stroke-linecap="round" stroke-linejoin="round"/><path d="M15.27 19.49h-2.227v-8.583l-2.659.824v-1.81l4.647-1.665h.239V19.49z" fill="#fff"/></g><defs><linearGradient id="bpaint0_linear" x1="3.404" y1="30.697" x2="24.232" y2="30.697" gradientUnits="userSpaceOnUse"><stop stop-color="#EC2327"/><stop offset=".35" stop-color="#E91B21"/><stop offset=".88" stop-color="#E20610"/><stop offset="1" stop-color="#E0000B"/></linearGradient><clipPath id="bclip0"><path fill="#fff" d="M0 0h27.636v40H0z"/></clipPath></defs></svg><svg fill="none" viewBox="0 0 260 23" id="award2" xmlns="http://www.w3.org/2000/svg"><g clip-path="url(#cclip0)"><path fill-rule="evenodd" clip-rule="evenodd" d="M51.313.659c-3.291 1.096-4.243 2.298-4.365 6.47-.061 2.28-.201 9.052.174 10.952 1.127 5.428 11.106 5.613 16.117 4.11 3.221-.972 3.85-2.35 3.911-6.373.061-2.97 0-5.63.061-7.867 0-4.42-.986-7.133-5.744-7.672-2.995-.363-7.5-.495-10.163.38h.009zm11.978 16.088V6.776c.079-2.802-4.042-2.44-6.111-2.44-2.27 0-6.234-.239-6.234 2.44v9.97c0 1.397 1.746 1.919 3.728 2.06 1.818.064 3.637.011 5.448-.159 1.85-.141 3.056-.663 3.134-1.918l.035.018zM26.465.09c4.819 0 10.237-.333 13.215.28 2.978.612 4.538 2.504 4.538 6.306 0 6.306-1.974 8.108-6.353 8.567-.126.01-.253.01-.379 0-2.59.226-6.008 0-10.334 0v5.649c0 .559-.218 1.095-.604 1.49A2.04 2.04 0 0125.09 23a2.04 2.04 0 01-1.458-.617 2.133 2.133 0 01-.604-1.491v-3.604c-.079-2.648 0-5.783 0-8.405 0-2.135.08-4.423 0-6.558a1.934 1.934 0 01.343-1.408 1.835 1.835 0 011.216-.745 9.161 9.161 0 011.87-.082h.009zm11.11 4.253H27.16v6.738h9.163c2.644 0 4-.18 4.115-3.26.114-3.082-.775-3.415-2.864-3.478z" fill="#EC2327"/><path d="M20.34 20.881V8.077c.017-4.49-1.01-7.245-5.77-7.796-2.986-.353-7.512-.515-10.183.388C1.114 1.771.157 2.991.035 7.236c0 1.635-.079 5.538 0 8.375v5.248a2.14 2.14 0 00.602 1.492c.19.196.416.35.663.455a2.007 2.007 0 002.22-.457c.383-.395.6-.93.605-1.49V6.875c0-2.719 3.978-2.475 6.258-2.475 2.028 0 6.04-.361 5.962 2.475v14.02c.001.278.055.552.158.808.104.256.255.489.445.684.19.196.415.35.662.456a1.991 1.991 0 002.214-.459c.38-.395.516-.944.516-1.503z" fill="#EC2327"/><path fill-rule="evenodd" clip-rule="evenodd" d="M69.864 20.89c.003-.564.22-1.105.607-1.503a2.04 2.04 0 011.457-.626h1.37l8.93-17.61c.192-.378.49-.688.854-.891a2.03 2.03 0 011.19-.25 2.01 2.01 0 011.18.253 2.1 2.1 0 01.84.888l8.93 17.61h.878a2.04 2.04 0 011.457.626c.386.398.604.939.607 1.502a2.177 2.177 0 01-.16.81c-.105.258-.257.49-.448.687a2.052 2.052 0 01-.669.456A2 2 0 0196.1 23H71.928a2 2 0 01-.787-.158 2.053 2.053 0 01-.669-.456 2.124 2.124 0 01-.448-.686 2.177 2.177 0 01-.16-.81zM84.273 6.295l-6.33 12.465h12.634L84.273 6.296zM126.086.08c.297.001.592.057.866.164.275.107.524.263.733.46.21.196.376.429.489.685.112.256.17.53.168.807v6.212L140.556.386a2.444 2.444 0 011.695-.358 2.34 2.34 0 011.482.844c.172.228.295.485.361.756.066.272.073.553.022.827-.051.275-.16.537-.321.772-.16.235-.369.439-.614.598l-11.623 7.67 11.623 7.671c.493.325.828.817.931 1.37a2.007 2.007 0 01-.379 1.583 2.348 2.348 0 01-1.479.85 2.455 2.455 0 01-1.698-.346l-12.214-8.03v6.302c0 .275-.058.547-.172.801-.113.254-.28.485-.489.679-.21.194-.459.347-.732.452a2.396 2.396 0 01-.863.156 2.369 2.369 0 01-1.6-.61 2.042 2.042 0 01-.676-1.478v-18.7a2.06 2.06 0 01.672-1.49 2.387 2.387 0 011.604-.625zm33.082 4.158v16.661a2.083 2.083 0 01-.646 1.484 2.249 2.249 0 01-2.376.46 2.184 2.184 0 01-.709-.455 2.1 2.1 0 01-.474-.683 2.037 2.037 0 01-.167-.806V4.238h-5.788c-.582 0-1.14-.222-1.553-.617a2.092 2.092 0 01-.652-1.493 2.107 2.107 0 01.651-1.5c.412-.398.97-.623 1.554-.628h15.949c.288.001.573.057.839.165a2.2 2.2 0 01.71.462c.203.198.364.432.473.69a2.073 2.073 0 01-.476 2.303c-.41.396-.966.618-1.546.618h-5.789zm84.899 4.998h8.328c2.941 0 4.057.1 4.057-2.413 0-1.807-.673-2.575-4.057-2.575h-8.328v4.988zm0 9.534h10.502c1.517-.325 1.883-1.084 1.883-2.412 0-2.513-1.116-2.404-4.057-2.404h-8.328v4.835-.019zM254.765 23h-13.102a1.94 1.94 0 01-1.41-.61 2.183 2.183 0 01-.593-1.487V2.123a2.2 2.2 0 01.586-1.495A1.96 1.96 0 01241.655 0h11.209c3.64 0 7.126 1.491 7.126 5.983a13.104 13.104 0 01-.554 4.329 4.28 4.28 0 01-.333.696 1.24 1.24 0 00.103 1.283c.109.232.206.47.289.714.377 1.345.544 2.746.495 4.148a6.146 6.146 0 01-1.551 3.988c-.968 1.077-2.282 1.73-3.683 1.832l.009.027zM105.258.659c-3.291 1.096-4.243 2.298-4.365 6.47-.061 2.28-.201 9.052.175 10.952 1.126 5.428 11.114 5.613 16.125 4.11 3.213-.972 3.841-2.35 3.902-6.373.062-2.97 0-5.63.062-7.867 0-4.42-.987-7.133-5.745-7.672-2.995-.363-7.5-.495-10.162.38h.008zm11.979 16.088V6.776c.078-2.802-4.043-2.44-6.112-2.44-2.27 0-6.233-.239-6.233 2.44v9.97c0 1.397 1.746 1.919 3.728 2.06 1.817.064 3.637.01 5.447-.159 1.851-.141 3.056-.663 3.135-1.918l.035.018zM174.241.659c-3.281 1.096-4.252 2.298-4.374 6.47-.061 2.28-.193 9.052.201 10.952 1.102 5.428 11.127 5.613 16.13 4.11 3.219-.972 3.858-2.35 3.937-6.373V7.951c.043-4.42-.989-7.133-5.747-7.672-2.992-.363-7.497-.495-10.182.38h.035zm11.984 16.088V6.776c.078-2.802-4.059-2.44-6.124-2.44-2.265 0-6.245-.239-6.245 2.44v9.97c0 1.397 1.749 1.919 3.761 2.06 1.812.064 3.627.01 5.432-.159 1.864-.141 3.062-.663 3.149-1.918l.027.018zM221.103.659c-3.301 1.096-4.245 2.298-4.367 6.47-.052 2.28-.192 9.052.184 10.952 1.126 5.428 11.109 5.613 16.122 4.11 3.223-.972 3.852-2.35 3.913-6.373.052-2.97 0-5.63.052-7.867 0-4.42-.987-7.133-5.738-7.672-3.004-.363-7.502-.495-10.166.38zm12.018 16.088V6.776c.078-2.802-4.053-2.44-6.114-2.44-2.271 0-6.245-.239-6.245 2.44v9.97c0 1.397 1.747 1.919 3.738 2.06 1.816.064 3.633.011 5.442-.159 1.86-.141 3.065-.663 3.144-1.918l.035.018zM196.533.068c4.831 0 9.947-.289 12.921.324 2.975.613 4.56 2.506 4.56 6.31 0 6.31-1.972 8.113-6.346 8.582-.126.01-.253.01-.379 0-2.64.225-6.029.045-10.324.045v5.562c0 .56-.217 1.096-.603 1.491-.386.396-.91.618-1.456.618-.546 0-1.07-.222-1.456-.618a2.133 2.133 0 01-.604-1.491v-3.606c-.096-2.65-.052-5.787 0-8.42 0-2.136.062-4.416 0-6.553A1.939 1.939 0 01193.188.9c.292-.405.73-.675 1.216-.751a9.701 9.701 0 011.848-.081h.281zm10.774 4.29h-10.35v6.743h9.135c2.641 0 4.014-.18 4.137-3.254.123-3.074-.783-3.425-2.931-3.488h.009z" fill="#117DC1"/></g><defs><clipPath id="cclip0"><path fill="#fff" d="M0 0h260v23H0z"/></clipPath></defs></svg><svg fill="#00c2dd" viewBox="0 0 38.417 18.592" id="hero"><path d="M19.208 18.592a.995.995 0 01-.673-.261L.327 1.74A1 1 0 011.674.261L19.208 16.24 36.743.261a1 1 0 011.348 1.479l-18.21 16.592a.999.999 0 01-.673.26z"/></svg></svg>