<svg viewBox="0 0 356 79" xmlns="http://www.w3.org/2000/svg" xmlns:xlink="http://www.w3.org/1999/xlink"><style>:root&gt;svg{display:none}:root&gt;svg:target{display:block}</style><svg fill="none" viewBox="0 0 28 28" id="arrow-circle" xmlns="http://www.w3.org/2000/svg"><path d="M15.4 14l-3.223-3.508a.717.717 0 010-1.006.7.7 0 01.994 0l3.93 4.01a.715.715 0 010 1.004l-3.93 4.01a.697.697 0 01-.994 0 .715.715 0 010-1.004L15.4 14zM14 .56C21.423.56 27.44 6.577 27.44 14c0 7.424-6.017 13.44-13.44 13.44C6.577 27.44.56 21.424.56 14 .56 6.577 6.577.56 14 .56zm0 25.136c6.458 0 11.696-5.236 11.696-11.696S20.458 2.304 14 2.304C7.54 2.304 2.304 7.54 2.304 14S7.54 25.696 14 25.696z" fill="#009344"/></svg><svg fill="none" viewBox="0 0 30 30" id="arrow-circle-white" xmlns="http://www.w3.org/2000/svg"><circle cx="15" cy="15" r="14.5" transform="rotate(-90 15 15)" fill="#fff" stroke="#009344"/><path d="M12.255 10.54a.925.925 0 010-1.275.845.845 0 011.23 0l4.86 5.097c.34.352.34.922 0 1.277l-4.86 5.097a.848.848 0 01-1.23 0 .925.925 0 010-1.276l3.986-4.462-3.986-4.457z" fill="#009344"/></svg><svg fill="none" viewBox="0 0 6 10" id="arrow-right" xmlns="http://www.w3.org/2000/svg"><path d="M3.342 4.6L.202 1.18a.695.695 0 010-.977.68.68 0 01.968 0L5 4.11a.697.697 0 010 .98L1.17 8.998a.68.68 0 01-.969 0 .695.695 0 010-.978L3.342 4.6z" fill="#9A9A9A"/></svg><svg fill="none" viewBox="0 0 6 10" id="arrow-right-green" xmlns="http://www.w3.org/2000/svg"><path d="M3.342 4.6L.201 1.18a.695.695 0 010-.977.68.68 0 01.969 0L5 4.11a.697.697 0 010 .98L1.17 8.998a.68.68 0 01-.969 0 .695.695 0 010-.978L3.342 4.6z" fill="#006738"/></svg><svg fill="none" viewBox="0 0 11 6" id="arrow1" xmlns="http://www.w3.org/2000/svg"><path d="M7.983 0l-.49.487 2.18 2.168H0v.69h9.674l-2.18 2.168.49.487L11 3 7.983 0z" fill="#fff"/></svg><svg fill="none" viewBox="0 0 18 10" id="arrow2" xmlns="http://www.w3.org/2000/svg"><path d="M13.063 0l-.802.812 3.568 3.614H0v1.148h15.83l-3.57 3.614.802.812L18 5l-4.937-5z" fill="#009344"/></svg><svg fill="none" viewBox="0 0 19 10" id="arrow3" xmlns="http://www.w3.org/2000/svg"><path d="M13.71 0l-.799.812 3.556 3.614H.691v1.148h15.774L12.91 9.188l.799.812 4.92-5-4.92-5z" fill="#fff" fill-opacity=".7"/></svg><svg fill="none" viewBox="0 0 19 19" id="calendar" xmlns="http://www.w3.org/2000/svg"><path d="M2.375 2.969V.594a.593.593 0 111.188 0v2.375a.593.593 0 11-1.188 0zm10.094.594a.593.593 0 00.594-.594V.594a.593.593 0 10-1.188 0v2.375c0 .328.266.594.594.594zM19 14.25a4.75 4.75 0 11-9.5 0 4.75 4.75 0 019.5 0zm-1.187 0a3.567 3.567 0 00-3.563-3.563 3.566 3.566 0 00-3.562 3.563 3.566 3.566 0 003.562 3.563 3.566 3.566 0 003.563-3.563zM4.75 7.125H2.375V9.5H4.75V7.125zm-2.375 5.938H4.75v-2.376H2.375v2.376zM5.937 9.5h2.376V7.125H5.937V9.5zm0 3.563h2.376v-2.376H5.937v2.376zm-4.75 1.069V5.937H14.25v2.376h1.188V3.68c0-.721-.576-1.306-1.287-1.306h-.495v.594a1.19 1.19 0 01-1.187 1.187A1.19 1.19 0 0111.28 2.97v-.594H4.156v.594c0 .654-.532 1.187-1.187 1.187A1.19 1.19 0 011.78 2.97v-.594h-.494A1.295 1.295 0 000 3.681v10.45c0 .72.576 1.307 1.287 1.307h7.026V14.25H1.287c-.054 0-.1-.056-.1-.118zM11.876 9.5V7.125H9.5V9.5h2.375zm4.156 4.75H14.25v-1.781a.593.593 0 10-1.187 0v2.375c0 .328.265.594.593.594h2.375a.594.594 0 100-1.188z" fill="#009344"/></svg><svg fill="none" viewBox="0 0 15 15" id="clock" xmlns="http://www.w3.org/2000/svg"><path d="M7.5 0C3.364 0 0 3.364 0 7.5S3.364 15 7.5 15 15 11.636 15 7.5 11.636 0 7.5 0zm0 13.41c-3.256 0-5.895-2.654-5.895-5.895 0-3.24 2.654-5.895 5.895-5.895 3.24 0 5.895 2.655 5.895 5.895 0 3.241-2.639 5.896-5.895 5.896z" fill="#006738"/><path d="M11.404 7.269H8.04V3.225a.62.62 0 00-.617-.617.62.62 0 00-.617.617v4.66c0 .34.277.618.617.618h3.981a.62.62 0 00.618-.617.62.62 0 00-.618-.617z" fill="#006738"/></svg><svg fill="none" viewBox="0 0 14 14" id="clock-footer" xmlns="http://www.w3.org/2000/svg"><path d="M7 0C3.14 0 0 3.14 0 7s3.14 7 7 7 7-3.14 7-7-3.14-7-7-7zm0 12.517a5.51 5.51 0 01-5.502-5.503C1.498 3.99 3.975 1.512 7 1.512s5.502 2.478 5.502 5.502A5.51 5.51 0 017 12.517z" fill="#009344"/><path d="M10.644 6.784h-3.14V3.01a.578.578 0 00-.576-.576.578.578 0 00-.576.576v4.35c0 .317.26.576.576.576h3.716c.317 0 .576-.26.576-.576a.578.578 0 00-.576-.576z" fill="#009344"/></svg><svg fill="none" viewBox="0 0 15 15" id="close" xmlns="http://www.w3.org/2000/svg"><path d="M14.493 2.954L9.948 7.5l4.545 4.545a1.731 1.731 0 01-2.447 2.448L7.5 9.947l-4.546 4.546c-.337.338-.78.507-1.223.507a1.731 1.731 0 01-1.224-2.955L5.052 7.5.507 2.954A1.73 1.73 0 012.954.507L7.5 5.052 12.046.507a1.731 1.731 0 012.447 2.447z" fill="red"/></svg><svg fill="none" viewBox="0 0 35 35" id="facebook" xmlns="http://www.w3.org/2000/svg"><path d="M17.5 0C7.835 0 0 7.835 0 17.5S7.835 35 17.5 35 35 27.165 35 17.5 27.165 0 17.5 0zm4.145 12.093h-2.63c-.312 0-.658.41-.658.955v1.9h3.29l-.497 2.709h-2.793v8.132h-3.105v-8.132h-2.816v-2.71h2.816v-1.592c0-2.286 1.586-4.144 3.763-4.144h2.63v2.882z" fill="#fff" fill-opacity=".2"/></svg><svg fill="none" viewBox="0 0 19 16" id="heart" xmlns="http://www.w3.org/2000/svg"><path d="M17.654 1.292C16.756.43 15.515 0 13.932 0c-.438 0-.886.075-1.341.224-.456.15-.88.35-1.273.604-.392.254-.73.491-1.012.714a9.743 9.743 0 00-.806.708 9.756 9.756 0 00-.806-.708c-.283-.223-.62-.46-1.012-.714A5.47 5.47 0 006.409.224 4.298 4.298 0 005.068 0C3.485 0 2.244.43 1.347 1.292.449 2.152 0 3.347 0 4.875c0 .465.083.945.25 1.437.165.493.354.914.566 1.26.212.348.453.687.721 1.016.27.33.465.558.589.683.124.125.22.215.291.27l6.616 6.271A.64.64 0 009.5 16c.184 0 .34-.063.467-.187l6.605-6.25C18.191 7.972 19 6.41 19 4.874c0-1.528-.449-2.722-1.346-3.583z" fill="#FE0101"/></svg><svg fill="none" viewBox="0 0 13 10" id="home" xmlns="http://www.w3.org/2000/svg"><path d="M6.283 2.019L1.8 5.713a.106.106 0 01-.004.023.106.106 0 00-.004.024V9.5c0 .136.05.253.149.352a.48.48 0 00.35.148h2.993V7.007H7.28V10h2.992c.136 0 .252-.05.351-.148a.479.479 0 00.148-.351V5.76a.108.108 0 00-.008-.047L6.284 2.02z" fill="#006738"/><path d="M12.48 4.871l-1.708-1.418V.273a.242.242 0 00-.07-.18.242.242 0 00-.18-.07H9.027a.243.243 0 00-.179.07.243.243 0 00-.07.18v1.52L6.875.203A.91.91 0 006.283 0a.91.91 0 00-.592.203L.087 4.87A.226.226 0 000 5.04a.252.252 0 00.054.183L.54 5.8a.266.266 0 00.163.086.29.29 0 00.187-.055l5.394-4.497 5.393 4.497a.24.24 0 00.164.055h.024a.266.266 0 00.163-.086l.484-.577a.252.252 0 00.054-.183.227.227 0 00-.086-.168z" fill="#006738"/></svg><svg fill="none" viewBox="0 0 35 35" id="instagram" xmlns="http://www.w3.org/2000/svg"><path d="M27.383 0H7.617C3.406 0 0 3.434 0 7.668v19.664C0 31.566 3.406 35 7.617 35h19.766C31.587 35 35 31.566 35 27.332V7.668C35 3.434 31.587 0 27.383 0zm3.55 23.16c-.008 4.302-3.489 7.79-7.782 7.798H11.85c-4.293-.007-7.774-3.496-7.781-7.798V11.833c0-4.302 3.488-7.797 7.78-7.797h11.303c4.293 0 7.781 3.495 7.781 7.797V23.16z" fill="#fff" fill-opacity=".2"/><path d="M17.5 12.73a4.77 4.77 0 00-4.764 4.773 4.765 4.765 0 109.528 0c-.007-2.64-2.136-4.774-4.764-4.774z" fill="#fff" fill-opacity=".2"/><path d="M23.145 5.69H11.849a6.146 6.146 0 00-6.13 6.15v11.327c.007 3.392 2.751 6.142 6.13 6.149H23.15a6.145 6.145 0 006.13-6.15V11.834a6.154 6.154 0 00-6.136-6.142zM17.5 23.92a6.407 6.407 0 01-6.402-6.423c0-3.543 2.866-6.423 6.409-6.416 3.535 0 6.402 2.873 6.402 6.422A6.424 6.424 0 0117.5 23.92zm7.344-12.415a1.37 1.37 0 01-1.365-1.368 1.37 1.37 0 011.365-1.368c.75 0 1.365.615 1.365 1.368a1.37 1.37 0 01-1.365 1.368z" fill="#fff" fill-opacity=".2"/></svg><svg fill="none" viewBox="0 0 10 16" id="location" xmlns="http://www.w3.org/2000/svg"><path d="M5 0A5 5 0 00.456 7.09l3.809 8.264c.182.398.444.646.735.646s.553-.248.735-.645L9.544 7.09A5 5 0 005 0zm0 8a3 3 0 11.002-6.002A3 3 0 015 8z" fill="#006738"/></svg><svg fill="none" viewBox="0 0 10 16" id="location-footer" xmlns="http://www.w3.org/2000/svg"><path d="M5 0A5 5 0 00.456 7.09l3.809 8.264c.182.398.444.646.735.646s.553-.248.735-.645L9.544 7.09A5 5 0 005 0zm0 8a3 3 0 11.002-6.002A3 3 0 015 8z" fill="#009344"/></svg><svg fill="none" viewBox="0 0 356 79" id="logo-footer" xmlns="http://www.w3.org/2000/svg"><g clip-path="url(#arclip0)"><path d="M10.174 57.159c0 2.665 1.115 4.24 3.344 4.725H0c1.895-.478 3.012-2.054 3.353-4.725V18.968c0-2.747-1.095-4.36-3.287-4.839h13.518c-1.68.36-2.816 1.912-3.41 4.66v13.41c0 5.35 7.427 5.255 11.765 5.614-4.376.51-11.822.671-11.765 6.389v12.957zm29.318-3.223a21.904 21.904 0 0014.21 8.024 23.911 23.911 0 01-3.287.36 24.14 24.14 0 01-17.243-6.359 24.03 24.03 0 01-7.737-16.636 23.115 23.115 0 011.52-9.542 23.159 23.159 0 015.29-8.093 23.02 23.02 0 017.954-5.498 23.067 23.067 0 019.515-1.751 22.345 22.345 0 00-12.22 8.77 23.492 23.492 0 00-4.064 14.791 25.86 25.86 0 006.063 15.934zM60.77 43.323c0-2.986-1.175-4.757-3.524-5.312H71.36a5.24 5.24 0 00-2.927 2.92 12.978 12.978 0 00-.72 2.212v21.473c0 3.024-1.613 6.137-4.84 9.337a17.26 17.26 0 01-12.022 5.038 9.889 9.889 0 006.878-3.705 14.171 14.171 0 002.093-3.28 55 55 0 00.948-7.4V43.323zm-.351-26.557a14.036 14.036 0 015.087 4.591 13.995 13.995 0 012.302 6.448l-.095-13.364H54.024c2.247.41 4.41 1.196 6.394 2.325zm157.845 40.951v.056a2.827 2.827 0 01-1.013 2.457 4.375 4.375 0 01-2.842.851 3.892 3.892 0 01-2.918-1.153 4.131 4.131 0 01-1.127-3.015v-2.155a4.124 4.124 0 011.127-3.005 3.888 3.888 0 012.918-1.153 4.375 4.375 0 012.842.85 2.89 2.89 0 011.004 2.458v.056h-.948a2.278 2.278 0 00-.748-1.89 3.217 3.217 0 00-2.122-.623 2.777 2.777 0 00-2.169.945 3.365 3.365 0 00-.824 2.353v2.126a3.404 3.404 0 00.824 2.373 2.785 2.785 0 002.169.945 3.254 3.254 0 002.122-.605 2.28 2.28 0 00.739-1.89h.947m23.351 2.315h5.058v.889h-6.11v-10.16h1.052v9.271zm27.822-9.271h-1.042V60.91h1.042V50.74zm30.938 10.159h-1.042l-6.138-8.486-.057.019v8.468h-1.052v-10.16h1.052l6.148 8.477.047-.019v-8.458h1.042v10.16zm23.73-10.159h-1.042V60.91h1.042V50.74zm30.171 6.975v.056a2.827 2.827 0 01-1.014 2.457 4.382 4.382 0 01-2.842.851 3.89 3.89 0 01-2.917-1.153 4.15 4.15 0 01-1.127-3.015V54.76a4.123 4.123 0 011.127-3.006 3.877 3.877 0 012.917-1.153 4.383 4.383 0 012.842.85 2.88 2.88 0 011.004 2.458v.057h-.947a2.264 2.264 0 00-.748-1.89 3.217 3.217 0 00-2.122-.624 2.782 2.782 0 00-2.169.945 3.37 3.37 0 00-.825 2.353v2.127a3.41 3.41 0 00.825 2.372 2.77 2.77 0 002.169.945 3.247 3.247 0 002.122-.605 2.277 2.277 0 00.739-1.89h.947" fill="#17562F"/><path d="M122.977 32.03c0 3.61 0 6.615.19 8.165.113 1.087.341 1.89 1.468 2.07.562.08 1.128.13 1.695.15.228 0 .304.114.304.227 0 .114-.19.303-.607.303-2.074 0-4.452-.114-4.641-.114-.19 0-2.568.114-3.695.114-.417 0-.606-.076-.606-.303 0-.226.076-.226.303-.226a5.818 5.818 0 001.137-.152c.758-.15.947-.945 1.099-2.07.189-1.578.189-4.555.189-8.165v-3.95a.222.222 0 00-.014-.089.22.22 0 00-.213-.138h-16a.196.196 0 00-.171.055.194.194 0 00-.056.172v3.95c0 3.61 0 6.616.189 8.166.114 1.087.341 1.89 1.468 2.07.563.08 1.129.13 1.696.15.227 0 .303.114.303.227 0 .114-.189.303-.606.303-2.075 0-4.452-.114-4.642-.114-.189 0-2.567.114-3.694.114-.417 0-.606-.076-.606-.303 0-.226.075-.226.303-.226a5.82 5.82 0 001.127-.152c.758-.15.947-.945 1.099-2.07.189-1.578.189-4.555.189-8.165v-6.616c0-5.869 0-6.927-.075-8.127-.076-1.2-.38-1.89-1.62-2.146a7.058 7.058 0 00-1.28-.113c-.15 0-.302-.076-.302-.227 0-.151.19-.302.606-.302 1.696 0 4.073.113 4.263.113.189 0 2.567-.113 3.694-.113.417 0 .606.075.606.302 0 .227-.151.227-.303.227a5.59 5.59 0 00-.947.113c-1.014.19-1.317.832-1.392 2.146-.076 1.313-.076 2.258-.076 8.127v.794a.193.193 0 00.056.171.197.197 0 00.171.056h16a.198.198 0 00.227-.227v-.794c0-5.869 0-6.927-.076-8.127-.075-1.2-.379-1.89-1.62-2.146a7.048 7.048 0 00-1.278-.113c-.152 0-.303-.076-.303-.227 0-.151.189-.302.606-.302 1.695 0 4.073.113 4.263.113.189 0 2.567-.113 3.694-.113.417 0 .606.075.606.302 0 .227-.151.227-.303.227a5.59 5.59 0 00-.947.113c-1.014.19-1.317.832-1.393 2.146-.075 1.313-.075 2.258-.075 8.127v6.616m16.065 1.626c0 3.09 0 5.604.152 6.927.114.945.227 1.54 1.212 1.692.499.078 1.002.129 1.507.151a.258.258 0 01.19.075.254.254 0 01.075.19c0 .15-.152.264-.531.264-1.894 0-3.997-.113-4.149-.113-.151 0-2.264.113-3.277.113-.341 0-.531-.075-.531-.264a.258.258 0 01.162-.248.258.258 0 01.103-.017 4.738 4.738 0 001.023-.151c.645-.151.758-.756.872-1.692.151-1.314.189-3.837.189-6.927v-5.671c0-4.971 0-5.869-.075-6.89-.076-1.02-.341-1.578-1.061-1.73a6.002 6.002 0 00-1.014-.113.284.284 0 01-.265-.265c0-.188.151-.264.53-.264 1.099 0 3.174.076 3.354.076.18 0 2.302-.076 3.325-.076.379 0 .53.076.53.265a.319.319 0 01-.265.264c-.28-.006-.56.02-.834.076-.947.189-1.099.643-1.174 1.767-.076 1.125 0 1.89 0 6.89v5.67m27.575 1.126c0-2.6-.075-2.978-1.43-3.233-.377-.045-.757-.07-1.137-.076a.324.324 0 01-.265-.264c0-.227.152-.265.53-.265 1.507 0 3.733.076 3.922.076.19 0 2.226-.076 3.249-.076.379 0 .531 0 .531.265a.325.325 0 01-.265.264 3.682 3.682 0 00-.824.076c-.948.151-1.166.643-1.251 1.767-.085 1.125 0 1.957 0 3.308v3.582c0 1.465 0 1.503-.455 1.73a16.905 16.905 0 01-7.057 1.427c-2.529 0-7.247-.303-10.941-3.422a12.272 12.272 0 01-3.96-9.11 11.974 11.974 0 015.542-10.5 16.732 16.732 0 018.829-2.032c1.711.018 3.417.195 5.096.53.881.196 1.779.31 2.681.34.341 0 .417.15.417.302 0 .453-.19 1.323-.19 4.517 0 .53-.151.68-.379.68-.227 0-.227-.188-.227-.49a4.724 4.724 0 00-.758-2.108c-.834-1.2-3.353-2.486-7.654-2.486a10.562 10.562 0 00-6.944 2.07c-1.894 1.465-3.277 4.328-3.277 8.052a12.725 12.725 0 003.514 8.846 11.856 11.856 0 008.526 3.355 8.34 8.34 0 003.581-.605c.416-.226.682-.378.682-.945V34.78m33.571-1.125c0 3.09 0 5.604.19 6.927.113.945.189 1.54 1.203 1.692a12.9 12.9 0 001.468.151.265.265 0 01.303.265c0 .15-.189.264-.568.264-1.81 0-3.922-.113-4.112-.113-.189 0-2.301.113-3.277.113-.379 0-.531-.075-.531-.264a.258.258 0 01.163-.247.25.25 0 01.103-.018c.32-.016.638-.067.947-.151.682-.151.796-.794.947-1.73.152-1.313.152-3.723.152-6.814v-3.204c0-.15-.076-.189-.19-.189h-13.849c-.114 0-.189 0-.189.19v3.194c0 3.09 0 5.538.151 6.852.114.945.227 1.54 1.203 1.691.499.079 1.002.13 1.506.152a.252.252 0 01.191.074.254.254 0 01.075.19c0 .151-.152.265-.531.265-1.894 0-3.96-.114-4.111-.114-.152 0-2.302.114-3.325.114-.341 0-.531-.076-.531-.265a.258.258 0 01.163-.247.252.252 0 01.103-.017 4.757 4.757 0 001.023-.152c.644-.15.72-.756.871-1.691.185-2.305.249-4.617.19-6.928v-5.67c0-4.972 0-5.87-.076-6.89-.076-1.02-.265-1.616-1.355-1.767a10.519 10.519 0 00-1.136-.076.323.323 0 01-.266-.265c0-.189.152-.264.531-.264 1.506 0 3.618.075 3.789.075.17 0 2.264-.075 3.278-.075.378 0 .53.075.53.264a.319.319 0 01-.265.265 3.7 3.7 0 00-.834.076c-.947.189-1.089.642-1.165 1.767-.076 1.125 0 1.994 0 6.965v.68c0 .19.076.19.189.19h13.85c.113 0 .189 0 .189-.19v-.68c0-4.97 0-5.944-.076-6.965-.075-1.02-.227-1.616-1.316-1.767a10.554 10.554 0 00-1.137-.076.284.284 0 01-.265-.265c0-.189.151-.264.53-.264 1.469 0 3.619.075 3.789.075.171 0 2.302-.075 3.278-.075.379 0 .568.075.568.264a.322.322 0 01-.303.265c-.28-.005-.559.02-.833.076-.872.189-1.052.642-1.128 1.767-.075 1.125-.075 1.89-.075 6.89v5.67" fill="#3E7D44"/><path d="M235.638 40.43c0 1.012 0 1.088-.493 1.352-2.453 1.276-6.148 1.692-9.094 1.692-9.245 0-17.43-4.366-17.43-14.753a14.043 14.043 0 011.653-7.01 14.089 14.089 0 014.912-5.276 18.315 18.315 0 0110.145-2.448c2.223.04 4.439.241 6.631.605.986.2 1.982.338 2.984.416.455 0 .531.189.531.454a50.674 50.674 0 00-.265 6.171c0 .605-.114.794-.417.794s-.341-.19-.379-.491a5.266 5.266 0 00-1.279-3.12c-1.137-1.2-4.149-2.939-8.412-2.939a10.892 10.892 0 00-7.474 2.335c-2.113 1.767-3.477 4.593-3.477 9.224 0 8.09 5.173 14.176 13.13 14.176a8.391 8.391 0 003.211-.416 1.344 1.344 0 00.72-1.398v-8.024c0-1.286-.379-1.89-1.62-2.146a7.832 7.832 0 00-1.468-.113c-.341 0-.569-.076-.569-.302 0-.227.266-.378.796-.378 1.961 0 4.339.113 5.466.113 1.127 0 3.173-.113 4.414-.113.493 0 .758.075.758.378 0 .302-.227.302-.492.302a6.005 6.005 0 00-1.023.113c-1.023.19-1.393.832-1.431 2.146v8.657m9.151-12.428v-6.776c0-1.021-.379-1.427-1.431-1.73a6.02 6.02 0 00-1.288-.113c-.379 0-.568-.114-.568-.34 0-.227.227-.303.72-.303 1.771 0 3.997.076 4.982.076.834 0 3.06-.076 4.263-.076.493 0 .72.076.72.303 0 .226-.189.34-.53.34a4.645 4.645 0 00-.948.113c-.871.151-1.136.605-1.212 1.73-.076 1.124-.076 1.89-.076 6.776v4.48c0 4.668.947 6.474 2.529 7.75a6.406 6.406 0 004.187 1.275 6.32 6.32 0 004.453-1.691c1.894-1.73 1.894-4.518 1.894-7.788v-4.026c0-4.858 0-5.756-.076-6.776-.075-1.021-.341-1.427-1.392-1.73a5.763 5.763 0 00-1.203-.113c-.379 0-.569-.114-.569-.34 0-.227.228-.303.682-.303 1.696 0 3.922.076 3.96.076.379 0 2.605-.076 3.884-.076.455 0 .682.076.682.303 0 .226-.189.34-.568.34a4.673 4.673 0 00-.948.113c-.947.151-1.127.605-1.203 1.73-.075 1.124-.075 1.89-.075 6.776v3.421c0 3.582-.379 7.343-3.174 9.64a10.36 10.36 0 01-7.142 2.297c-1.734 0-5.173-.076-7.579-2.183-1.695-1.465-3.022-3.838-3.022-8.506v-4.726m32.227 6.947c-.189 0-.227 0-.303.227l-1.771 4.29a5.766 5.766 0 00-.493 1.957c0 .567.303.945 1.317.945h.464c.417 0 .493.15.493.34 0 .189-.19.34-.531.34-1.089 0-2.643-.113-3.694-.113-.341 0-2.113.113-3.846.113-.417 0-.606-.075-.606-.34a.328.328 0 01.109-.259.329.329 0 01.27-.081h.947c1.506-.227 2.074-1.2 2.756-2.836l8.678-20.14c.379-.945.644-1.275.947-1.275.492 0 .644.302.947 1.01.796 1.768 6.338 14.867 8.45 19.725 1.279 2.901 2.226 3.308 2.842 3.421.413.07.831.109 1.25.114.303 0 .455.113.455.34 0 .264-.189.34-1.43.34-1.241 0-3.591 0-6.376-.076-.606 0-.947 0-.947-.264 0-.265.076-.303.417-.34a.503.503 0 00.303-.719l-2.567-6.436a.315.315 0 00-.341-.227h-7.806l.066-.056zm7.096-1.749c.151 0 .189-.075.151-.189l-3.135-8.127c0-.114-.076-.303-.152-.303s-.151.19-.189.303l-3.212 8.09c-.075.15 0 .226.114.226h6.423zm18.396-5.141v-6.776c0-1.021-.379-1.427-1.431-1.73a6.157 6.157 0 00-1.316-.113c-.341 0-.569-.114-.569-.34 0-.227.266-.303.758-.303 1.734 0 3.846.076 4.528.076 1.128 0 4.149-.076 5.172-.076 2.113 0 4.528.19 6.3 1.352a5.597 5.597 0 012.34 4.404c0 2.372-1.355 4.48-4.604 7.078 2.946 3.61 5.286 6.512 7.285 8.506 1.894 1.89 3.021 1.994 3.542 2.108.261.059.529.084.796.075a.39.39 0 01.417.34c0 .265-.227.34-.644.34h-3.174a7.213 7.213 0 01-3.618-.642c-1.431-.718-2.681-2.22-4.528-4.725-1.317-1.73-2.719-3.875-3.136-4.367a.762.762 0 00-.606-.226l-2.984-.076a.236.236 0 00-.265.265v.453c0 2.968 0 5.453.189 6.814.114.945.265 1.54 1.279 1.692.537.073 1.078.11 1.62.114a.39.39 0 01.417.34c0 .227-.266.34-.682.34-1.895 0-4.68-.114-5.173-.114-.644 0-2.756.114-4.073.114-.417 0-.644-.114-.644-.34 0-.227.114-.34.53-.34.392.009.783-.03 1.166-.114.682-.151.871-.756.947-1.692.151-1.351.151-3.874.151-6.814v-5.67l.01.047zm4.215 2.438c0 .34.076.454.303.567.825.219 1.677.32 2.53.303a3.348 3.348 0 002.339-.53 5.414 5.414 0 002.151-4.725c0-4.517-3.098-5.67-5.059-5.67a11.983 11.983 0 00-1.961.113c-.227.076-.303.189-.303.454v9.488zm25.236-2.438v-6.776c0-1.021-.379-1.427-1.43-1.73a6.172 6.172 0 00-1.317-.113c-.341 0-.568-.114-.568-.34 0-.227.265-.303.757-.303 1.734 0 3.846.076 4.794.076.947 0 3.391-.076 5.399-.076 4.149 0 9.738 0 13.357 3.648a11.194 11.194 0 013.135 8.128 12.403 12.403 0 01-3.618 8.922c-1.506 1.502-5.021 3.78-11.131 3.78-1.203 0-2.643-.114-3.959-.19-1.317-.075-2.53-.188-3.363-.188H332.1c-.805 0-1.62.075-2.302.075-.417 0-.644-.113-.644-.34 0-.227.114-.34.531-.34.391.01.782-.029 1.165-.113.682-.152.871-.756.947-1.692.152-1.352.152-3.875.152-6.814v-5.67l-.01.056zm4.462 3.478c0 3.383 0 5.831.076 6.474-.025.77.104 1.538.378 2.259.417.604 1.734 1.275 4.339 1.275 3.022 0 5.248-.529 7.247-2.183 2.15-1.767 2.842-4.63 2.842-7.938 0-4.064-1.62-6.701-3.098-7.977a13.415 13.415 0 00-9.283-3.053 7.028 7.028 0 00-2.037.227.555.555 0 00-.417.643v6.247l-.047 4.026z" fill="#17562F"/><path d="M82.897 0v79" stroke="#17562F" stroke-width="1.29" stroke-miterlimit="2"/></g><defs><clipPath id="arclip0"><path fill="#fff" d="M0 0h356v79H0z"/></clipPath></defs></svg><svg fill="none" viewBox="0 0 72 65" id="logo1" xmlns="http://www.w3.org/2000/svg"><path d="M10.174 43.159c0 2.665 1.115 4.24 3.344 4.725H0c1.895-.479 3.012-2.054 3.353-4.725V4.968C3.353 2.22 2.258.608.066.128h13.518c-1.68.36-2.816 1.913-3.41 4.66V18.2c0 5.35 7.427 5.255 11.765 5.614-4.376.51-11.822.67-11.765 6.389V43.16zm29.318-3.223a21.904 21.904 0 0014.21 8.024 23.911 23.911 0 01-3.287.36 24.14 24.14 0 01-17.243-6.359 24.03 24.03 0 01-7.737-16.636 23.115 23.115 0 011.52-9.542 23.16 23.16 0 015.29-8.093A23.02 23.02 0 0140.2 2.192 23.066 23.066 0 0149.714.441a22.345 22.345 0 00-12.22 8.77 23.492 23.492 0 00-4.064 14.791 25.86 25.86 0 006.063 15.934zM60.77 29.323c0-2.986-1.175-4.757-3.524-5.311H71.36a5.24 5.24 0 00-2.927 2.92 12.978 12.978 0 00-.72 2.211v21.473c0 3.024-1.613 6.137-4.84 9.337a17.26 17.26 0 01-12.022 5.038 9.889 9.889 0 006.878-3.705 14.171 14.171 0 002.093-3.28 55 55 0 00.948-7.4V29.323zm-.351-26.557a14.037 14.037 0 015.087 4.591 13.995 13.995 0 012.302 6.448L67.712.44H54.024c2.247.41 4.41 1.196 6.394 2.325z" fill="#17562F"/></svg><svg fill="none" viewBox="0 0 274 79" id="logo2" xmlns="http://www.w3.org/2000/svg"><path d="M136.264 57.716v.057a2.826 2.826 0 01-1.013 2.457 4.374 4.374 0 01-2.842.85 3.89 3.89 0 01-2.918-1.152 4.131 4.131 0 01-1.127-3.015v-2.155a4.124 4.124 0 011.127-3.005 3.887 3.887 0 012.918-1.153 4.374 4.374 0 012.842.85 2.889 2.889 0 011.004 2.458v.056h-.948a2.264 2.264 0 00-.748-1.89 3.217 3.217 0 00-2.122-.623 2.777 2.777 0 00-2.169.945 3.365 3.365 0 00-.824 2.353v2.126a3.404 3.404 0 00.824 2.373 2.787 2.787 0 002.169.945 3.254 3.254 0 002.122-.605 2.28 2.28 0 00.739-1.89h.947m23.351 2.315h5.058v.888h-6.11v-10.16h1.052v9.272zm27.822-9.271h-1.042V60.91h1.042V50.74zm30.938 10.159h-1.042l-6.138-8.487-.057.02V60.9h-1.052V50.74h1.052l6.148 8.478.047-.019v-8.458h1.042v10.16zm23.73-10.159h-1.042V60.91h1.042V50.74zm30.171 6.975v.056a2.827 2.827 0 01-1.014 2.458 4.383 4.383 0 01-2.842.85 3.889 3.889 0 01-2.917-1.153 4.15 4.15 0 01-1.127-3.015V54.76a4.123 4.123 0 011.127-3.006 3.879 3.879 0 012.917-1.153 4.384 4.384 0 012.842.85 2.88 2.88 0 011.004 2.458v.057h-.947a2.264 2.264 0 00-.748-1.89 3.217 3.217 0 00-2.122-.624 2.783 2.783 0 00-2.169.945 3.37 3.37 0 00-.825 2.353v2.127a3.41 3.41 0 00.825 2.372 2.77 2.77 0 002.169.945 3.247 3.247 0 002.122-.605 2.277 2.277 0 00.739-1.89h.947" fill="#17562F"/><path d="M40.977 32.029c0 3.61 0 6.616.19 8.165.113 1.087.34 1.89 1.468 2.07.562.08 1.128.13 1.696.151.227 0 .303.114.303.227 0 .114-.19.303-.607.303-2.074 0-4.452-.114-4.641-.114-.19 0-2.568.114-3.695.114-.417 0-.606-.076-.606-.303 0-.227.076-.227.303-.227a5.822 5.822 0 001.137-.15c.758-.152.947-.946 1.099-2.07.19-1.579.19-4.556.19-8.166v-3.95a.217.217 0 00-.228-.227h-16a.198.198 0 00-.227.226v3.951c0 3.61 0 6.616.19 8.165.113 1.087.34 1.89 1.468 2.07.562.08 1.128.13 1.695.151.227 0 .303.114.303.227 0 .114-.19.303-.606.303-2.075 0-4.452-.114-4.642-.114-.19 0-2.567.114-3.694.114-.417 0-.606-.076-.606-.303 0-.227.075-.227.303-.227a5.82 5.82 0 001.127-.15c.758-.152.947-.946 1.099-2.07.19-1.579.19-4.556.19-8.166v-6.616c0-5.869 0-6.927-.076-8.127-.076-1.2-.38-1.89-1.62-2.146a7.058 7.058 0 00-1.28-.113c-.15 0-.302-.076-.302-.227 0-.151.19-.302.606-.302 1.696 0 4.073.113 4.263.113.19 0 2.567-.113 3.694-.113.417 0 .606.075.606.302 0 .227-.151.227-.303.227a5.6 5.6 0 00-.947.113c-1.014.19-1.317.832-1.393 2.146-.075 1.313-.075 2.258-.075 8.127v.794a.199.199 0 00.227.227h16a.198.198 0 00.227-.227v-.794c0-5.869 0-6.927-.076-8.127-.075-1.2-.379-1.89-1.62-2.146a7.058 7.058 0 00-1.278-.113c-.152 0-.303-.076-.303-.227 0-.151.189-.302.606-.302 1.695 0 4.073.113 4.263.113.189 0 2.567-.113 3.694-.113.417 0 .606.075.606.302 0 .227-.151.227-.303.227a5.6 5.6 0 00-.947.113c-1.014.19-1.317.832-1.393 2.146-.075 1.313-.075 2.258-.075 8.127v6.616m16.065 1.626c0 3.09 0 5.604.152 6.927.114.945.227 1.54 1.212 1.692.5.078 1.002.129 1.507.151a.257.257 0 01.247.162.254.254 0 01.018.103c0 .15-.152.264-.53.264-1.895 0-3.998-.113-4.15-.113-.151 0-2.264.113-3.277.113-.342 0-.53-.075-.53-.264a.254.254 0 01.264-.265 4.748 4.748 0 001.023-.151c.645-.151.758-.756.872-1.692.151-1.314.19-3.837.19-6.927v-5.671c0-4.971 0-5.869-.076-6.89-.076-1.02-.341-1.578-1.061-1.73a6.003 6.003 0 00-1.014-.113.284.284 0 01-.265-.264c0-.19.151-.265.53-.265 1.1 0 3.174.076 3.354.076.18 0 2.302-.076 3.325-.076.379 0 .53.076.53.265a.32.32 0 01-.265.264c-.28-.006-.56.02-.834.076-.947.189-1.099.643-1.174 1.767-.076 1.125 0 1.89 0 6.89v5.67m27.575 1.126c0-2.6-.075-2.978-1.43-3.233-.377-.045-.757-.07-1.137-.075a.323.323 0 01-.265-.265c0-.227.151-.265.53-.265 1.507 0 3.733.076 3.922.076.19 0 2.226-.076 3.25-.076.378 0 .53 0 .53.265a.321.321 0 01-.265.265 3.678 3.678 0 00-.825.075c-.947.151-1.165.643-1.25 1.768-.085 1.124 0 1.956 0 3.307v3.582c0 1.465 0 1.503-.455 1.73a16.907 16.907 0 01-7.057 1.427c-2.53 0-7.247-.303-10.941-3.421a12.287 12.287 0 01-3.96-9.111 11.95 11.95 0 011.376-5.983 11.985 11.985 0 014.166-4.517 16.732 16.732 0 018.829-2.032 27.63 27.63 0 015.096.53c.881.196 1.778.31 2.68.34.342 0 .418.15.418.302 0 .454-.19 1.323-.19 4.517 0 .53-.151.68-.379.68-.227 0-.227-.188-.227-.49a4.718 4.718 0 00-.758-2.108c-.834-1.2-3.353-2.486-7.654-2.486a10.56 10.56 0 00-6.944 2.07c-1.894 1.465-3.277 4.329-3.277 8.052a12.724 12.724 0 003.514 8.846 11.854 11.854 0 008.526 3.355 8.335 8.335 0 003.58-.605c.417-.226.683-.378.683-.945V34.78m33.571-1.125c0 3.09 0 5.604.19 6.927.113.945.189 1.54 1.203 1.692a12.9 12.9 0 001.468.151.265.265 0 01.303.265c0 .151-.189.264-.568.264-1.81 0-3.922-.113-4.112-.113-.189 0-2.301.113-3.277.113-.379 0-.531-.075-.531-.264a.258.258 0 01.163-.247.252.252 0 01.103-.018 4.42 4.42 0 00.947-.151c.682-.151.796-.794.947-1.73.152-1.313.152-3.723.152-6.814v-3.203c0-.152-.076-.19-.19-.19h-13.849c-.114 0-.189 0-.189.19v3.194c0 3.09 0 5.538.151 6.852.114.945.227 1.54 1.203 1.691.499.08 1.002.13 1.506.152a.256.256 0 01.266.265c0 .15-.152.264-.531.264-1.894 0-3.96-.113-4.111-.113-.152 0-2.302.113-3.325.113-.341 0-.53-.076-.53-.265a.255.255 0 01.265-.264 4.747 4.747 0 001.023-.151c.644-.152.72-.757.871-1.692a65.55 65.55 0 00.19-6.928v-5.67c0-4.971 0-5.87-.076-6.89-.076-1.02-.265-1.616-1.355-1.767-.377-.046-.757-.07-1.136-.076a.322.322 0 01-.266-.265c0-.189.152-.264.53-.264 1.507 0 3.62.075 3.79.075.17 0 2.264-.075 3.278-.075.378 0 .53.075.53.264a.318.318 0 01-.265.265 3.7 3.7 0 00-.834.076c-.947.189-1.089.642-1.165 1.767-.076 1.125 0 1.994 0 6.965v.68c0 .19.076.19.189.19h13.85c.113 0 .189 0 .189-.19v-.68c0-4.97 0-5.944-.076-6.965-.075-1.02-.227-1.616-1.316-1.767-.378-.046-.757-.07-1.137-.076a.284.284 0 01-.265-.265c0-.189.151-.264.53-.264 1.469 0 3.619.075 3.789.075.171 0 2.302-.075 3.278-.075.379 0 .568.075.568.264a.322.322 0 01-.303.265c-.28-.005-.559.02-.833.076-.872.189-1.052.642-1.128 1.767-.075 1.125-.075 1.89-.075 6.89v5.67" fill="#3E7D44"/><path d="M153.638 40.43c0 1.012 0 1.088-.493 1.352-2.453 1.276-6.148 1.692-9.094 1.692-9.245 0-17.43-4.366-17.43-14.753a14.043 14.043 0 011.653-7.01 14.089 14.089 0 014.912-5.276 18.315 18.315 0 0110.145-2.448c2.223.04 4.439.241 6.631.605.986.2 1.982.338 2.984.416.455 0 .531.189.531.454a50.674 50.674 0 00-.265 6.171c0 .605-.114.794-.417.794s-.341-.19-.379-.491a5.266 5.266 0 00-1.279-3.12c-1.137-1.2-4.149-2.939-8.412-2.939a10.892 10.892 0 00-7.474 2.335c-2.113 1.767-3.477 4.593-3.477 9.224 0 8.09 5.173 14.176 13.13 14.176a8.391 8.391 0 003.211-.416 1.344 1.344 0 00.72-1.398v-8.024c0-1.286-.379-1.89-1.62-2.146a7.832 7.832 0 00-1.468-.113c-.341 0-.569-.076-.569-.302 0-.227.266-.378.796-.378 1.961 0 4.339.113 5.466.113 1.127 0 3.173-.113 4.414-.113.493 0 .758.075.758.378 0 .302-.227.302-.492.302a6.005 6.005 0 00-1.023.113c-1.023.19-1.393.832-1.431 2.146v8.657m9.151-12.428v-6.776c0-1.02-.379-1.427-1.431-1.73a6.013 6.013 0 00-1.288-.113c-.379 0-.568-.114-.568-.34 0-.227.227-.303.72-.303 1.771 0 3.997.076 4.982.076.834 0 3.06-.076 4.263-.076.493 0 .72.076.72.303 0 .226-.189.34-.53.34a4.645 4.645 0 00-.948.113c-.871.151-1.136.605-1.212 1.73-.076 1.125-.076 1.89-.076 6.776v4.48c0 4.669.947 6.474 2.529 7.75a6.406 6.406 0 004.187 1.275 6.32 6.32 0 004.453-1.691c1.894-1.73 1.894-4.518 1.894-7.788v-4.026c0-4.858 0-5.756-.076-6.776-.075-1.02-.341-1.427-1.392-1.73a5.757 5.757 0 00-1.203-.113c-.379 0-.569-.114-.569-.34 0-.227.228-.303.682-.303 1.696 0 3.922.076 3.96.076.379 0 2.605-.076 3.884-.076.455 0 .682.076.682.303 0 .226-.189.34-.568.34a4.673 4.673 0 00-.948.113c-.947.151-1.127.605-1.203 1.73-.075 1.125-.075 1.89-.075 6.776v3.421c0 3.582-.379 7.344-3.174 9.64a10.36 10.36 0 01-7.142 2.297c-1.734 0-5.173-.076-7.579-2.183-1.695-1.465-3.022-3.837-3.022-8.506v-4.726m32.227 6.947c-.189 0-.227 0-.303.226l-1.771 4.291a5.766 5.766 0 00-.493 1.956c0 .568.303.946 1.317.946h.464c.417 0 .493.15.493.34 0 .189-.19.34-.531.34-1.089 0-2.643-.113-3.694-.113-.341 0-2.113.113-3.846.113-.417 0-.606-.076-.606-.34a.328.328 0 01.109-.259.329.329 0 01.27-.081h.947c1.506-.227 2.074-1.2 2.756-2.836l8.678-20.14c.379-.945.644-1.275.947-1.275.492 0 .644.302.947 1.01.796 1.768 6.338 14.867 8.45 19.725 1.279 2.901 2.226 3.308 2.842 3.421.413.07.831.108 1.25.113.303 0 .455.114.455.34 0 .265-.189.34-1.43.34-1.241 0-3.591 0-6.376-.075-.606 0-.947 0-.947-.264 0-.265.076-.303.417-.34a.501.501 0 00.303-.719l-2.567-6.436a.315.315 0 00-.341-.227h-7.806l.066-.056zm7.096-1.749c.151 0 .189-.075.151-.189l-3.135-8.128c0-.113-.076-.302-.152-.302s-.151.189-.189.302l-3.212 8.09c-.075.152 0 .227.114.227h6.423zm18.396-5.141v-6.776c0-1.02-.379-1.427-1.431-1.73a6.156 6.156 0 00-1.316-.113c-.341 0-.569-.114-.569-.34 0-.227.266-.303.758-.303 1.734 0 3.846.076 4.528.076 1.128 0 4.149-.076 5.172-.076 2.113 0 4.528.19 6.3 1.352a5.597 5.597 0 012.34 4.404c0 2.372-1.355 4.48-4.604 7.079 2.946 3.61 5.286 6.511 7.285 8.505 1.894 1.89 3.021 1.994 3.542 2.108.261.059.529.084.796.075a.39.39 0 01.417.34c0 .265-.227.34-.644.34h-3.174a7.212 7.212 0 01-3.618-.642c-1.431-.718-2.681-2.22-4.528-4.725-1.317-1.73-2.719-3.875-3.136-4.366a.762.762 0 00-.606-.227l-2.984-.076a.238.238 0 00-.255.158.24.24 0 00-.01.107v.453c0 2.968 0 5.454.189 6.815.114.945.265 1.54 1.279 1.691.537.073 1.078.11 1.62.114a.39.39 0 01.417.34c0 .227-.266.34-.682.34-1.895 0-4.68-.113-5.173-.113-.644 0-2.756.113-4.073.113-.417 0-.644-.113-.644-.34 0-.227.114-.34.53-.34.392.009.783-.03 1.166-.114.682-.151.871-.756.947-1.691.151-1.352.151-3.875.151-6.815v-5.67l.01.047zm4.215 2.438c0 .34.076.454.303.568a9.15 9.15 0 002.53.302 3.348 3.348 0 002.339-.53 5.415 5.415 0 002.151-4.725c0-4.517-3.098-5.67-5.059-5.67a11.972 11.972 0 00-1.961.113c-.227.076-.303.19-.303.454v9.488zm25.236-2.438v-6.776c0-1.02-.379-1.427-1.43-1.73a6.172 6.172 0 00-1.317-.113c-.341 0-.568-.114-.568-.34 0-.227.265-.303.757-.303 1.734 0 3.846.076 4.794.076.947 0 3.391-.076 5.399-.076 4.149 0 9.738 0 13.357 3.648a11.192 11.192 0 013.135 8.128 12.404 12.404 0 01-3.618 8.922c-1.506 1.502-5.021 3.78-11.131 3.78-1.203 0-2.643-.113-3.959-.189-1.317-.076-2.53-.189-3.363-.189H250.1c-.805 0-1.62.076-2.302.076-.417 0-.644-.114-.644-.34 0-.227.114-.34.531-.34.391.008.782-.03 1.165-.114.682-.151.871-.756.947-1.692.152-1.351.152-3.875.152-6.814v-5.67l-.01.056zm4.462 3.478c0 3.383 0 5.831.076 6.474-.025.77.104 1.538.378 2.259.417.605 1.734 1.276 4.339 1.276 3.022 0 5.248-.53 7.247-2.184 2.15-1.767 2.842-4.63 2.842-7.938 0-4.064-1.62-6.701-3.098-7.977a13.415 13.415 0 00-9.283-3.053 7.028 7.028 0 00-2.037.227.556.556 0 00-.417.643v6.247l-.047 4.026z" fill="#17562F"/><path d="M.897 0v79" stroke="#17562F" stroke-width="1.29" stroke-miterlimit="2"/></svg><svg fill="none" viewBox="0 0 14 11" id="mail" xmlns="http://www.w3.org/2000/svg"><path d="M7 7.445L5.268 5.833.316 10.348a.98.98 0 00.691.288h11.986c.267 0 .509-.11.688-.288L8.732 5.833 7 7.445z" fill="#009344"/><path d="M13.684.288A.975.975 0 0012.993 0H1.007a.972.972 0 00-.689.29L7 6.382 13.684.288zM0 .934V9.77l4.833-4.369L0 .934zm9.167 4.468L14 9.771V.93L9.167 5.402z" fill="#009344"/></svg><svg fill="none" viewBox="0 0 25 21" id="menu" xmlns="http://www.w3.org/2000/svg"><path d="M25 1.125C25 .5 24.583.083 23.958.083H1.042C.417.083 0 .5 0 1.125v2.083C0 3.833.417 4.25 1.042 4.25h22.916c.625 0 1.042-.417 1.042-1.042V1.125zm0 8.333c0-.625-.417-1.042-1.042-1.042H1.042C.417 8.416 0 8.833 0 9.458v2.083c0 .625.417 1.042 1.042 1.042h22.916c.625 0 1.042-.417 1.042-1.042V9.458zm0 8.333c0-.625-.278-1.041-.694-1.041H9.028c-.417 0-.695.416-.695 1.041v2.084c0 .625.278 1.041.695 1.041h15.278c.416 0 .694-.416.694-1.041V17.79z" fill="#009344"/></svg><svg fill="none" viewBox="0 0 26 26" id="next" xmlns="http://www.w3.org/2000/svg"><path d="M14.354 13l-3.117-3.394a.693.693 0 010-.972.677.677 0 01.961 0L16 12.512a.691.691 0 010 .971l-3.8 3.879a.674.674 0 01-.962 0 .692.692 0 010-.971L14.354 13zM13 0c7.18 0 13 5.82 13 13 0 7.181-5.82 13-13 13S0 20.181 0 13C0 5.82 5.82 0 13 0zm0 24.313c6.247 0 11.313-5.065 11.313-11.313S19.247 1.687 13 1.687C6.75 1.687 1.687 6.752 1.687 13 1.686 19.248 6.751 24.313 13 24.313z" fill="#fff" fill-opacity=".7"/></svg><svg fill="none" viewBox="0 0 16 16" id="phone" xmlns="http://www.w3.org/2000/svg"><path d="M12.164 10.584c-.522-.516-1.175-.516-1.694 0-.397.393-.793.786-1.182 1.186-.107.11-.197.133-.327.06-.256-.14-.529-.254-.775-.407-1.15-.722-2.111-1.651-2.964-2.697-.423-.519-.799-1.075-1.062-1.7-.053-.127-.043-.21.06-.314.396-.383.783-.776 1.172-1.168.543-.546.543-1.186-.003-1.735-.31-.313-.62-.62-.93-.932-.319-.32-.635-.643-.958-.96-.523-.509-1.175-.509-1.695.004-.4.393-.782.796-1.188 1.182-.377.356-.566.792-.606 1.302-.064.829.14 1.611.426 2.374.586 1.578 1.478 2.98 2.56 4.265a15.844 15.844 0 005.248 4.105c.918.446 1.87.79 2.906.846.713.04 1.332-.14 1.828-.696.34-.38.723-.726 1.082-1.089.533-.54.536-1.192.007-1.725a568.753 568.753 0 00-1.905-1.9z" fill="#000" fill-opacity=".4"/><path d="M12.164 10.584c-.522-.516-1.175-.516-1.694 0-.397.393-.793.786-1.182 1.186-.107.11-.197.133-.327.06-.256-.14-.529-.254-.775-.407-1.15-.722-2.111-1.651-2.964-2.697-.423-.519-.799-1.075-1.062-1.7-.053-.127-.043-.21.06-.314.396-.383.783-.776 1.172-1.168.543-.546.543-1.186-.003-1.735-.31-.313-.62-.62-.93-.932-.319-.32-.635-.643-.958-.96-.523-.509-1.175-.509-1.695.004-.4.393-.782.796-1.188 1.182-.377.356-.566.792-.606 1.302-.064.829.14 1.611.426 2.374.586 1.578 1.478 2.98 2.56 4.265a15.844 15.844 0 005.248 4.105c.918.446 1.87.79 2.906.846.713.04 1.332-.14 1.828-.696.34-.38.723-.726 1.082-1.089.533-.54.536-1.192.007-1.725a568.753 568.753 0 00-1.905-1.9z" fill="#009344"/><path d="M11.528 7.93l1.229-.209a5.49 5.49 0 00-1.535-2.963 5.462 5.462 0 00-3.13-1.562L7.92 4.431c.923.13 1.762.547 2.424 1.21a4.236 4.236 0 011.185 2.29z" fill="#000" fill-opacity=".4"/><path d="M11.528 7.93l1.229-.209a5.49 5.49 0 00-1.535-2.963 5.462 5.462 0 00-3.13-1.562L7.92 4.431c.923.13 1.762.547 2.424 1.21a4.236 4.236 0 011.185 2.29z" fill="#009344"/><path d="M13.45 2.59A9.06 9.06 0 008.256 0l-.174 1.235a7.855 7.855 0 014.489 2.238 7.848 7.848 0 012.2 4.245L16 7.508a9.126 9.126 0 00-2.55-4.918z" fill="#000" fill-opacity=".4"/><path d="M13.45 2.59A9.06 9.06 0 008.256 0l-.174 1.235a7.855 7.855 0 014.489 2.238 7.848 7.848 0 012.2 4.245L16 7.508a9.126 9.126 0 00-2.55-4.918z" fill="#009344"/></svg><svg fill="none" viewBox="0 0 13 11" id="telegram" xmlns="http://www.w3.org/2000/svg"><path d="M12.8.301A.844.844 0 0012.13 0c-.149 0-.306.031-.468.093L.658 4.294c-.584.223-.663.558-.658.737.005.18.103.51.698.699.004 0 .008.002.011.003l2.283.653 1.234 3.53c.168.482.546.78.986.78.278 0 .55-.115.79-.335l1.411-1.3 2.048 1.649.02.016.006.004c.227.177.476.27.718.27.475 0 .852-.351.962-.894l1.803-8.904c.073-.358.012-.677-.17-.9zM3.754 6.262l4.404-2.25-2.742 2.914a.38.38 0 00-.092.17l-.53 2.142-1.04-2.976zM5.485 9.8a.722.722 0 01-.055.046l.49-1.987.893.718L5.485 9.8zm6.739-8.75L10.42 9.955c-.018.085-.073.283-.216.283a.444.444 0 01-.25-.108l-2.32-1.869-1.381-1.112 3.965-4.214a.38.38 0 00-.45-.6L3.245 5.666.933 5.005l11-4.2a.558.558 0 01.197-.043c.023 0 .064.003.08.022.02.024.046.108.014.266z" fill="#009344"/></svg><svg fill="none" viewBox="0 0 60 60" id="tooth1" xmlns="http://www.w3.org/2000/svg"><path d="M45.23 19.04c-.43 2.336-1.213 4.867-2.584 7.28a20.09 20.09 0 01-2.741 3.7l-.118.117c-.039 0-.039.038-.078.038a10.366 10.366 0 01-3.994.935c.039-.039.078-.078.117-.078 1.057-.779 1.997-1.596 2.82-2.492a7.771 7.771 0 001.88-1.129c.039-.039.078-.078.078-.117l.039-.039c.117-.078.235-.194.352-.272 1.528-1.44 2.507-3.505 2.507-5.763 0-.74-.118-1.48-.314-2.141.235-1.246.392-2.414.47-3.544a9.19 9.19 0 011.567 3.505z" fill="#363"/><path d="M45.66 15.38a12.511 12.511 0 00-1.957-2.531 24.267 24.267 0 00-.235-2.726c-.04-.272-.079-.389-.079-.428V9.5c0-4.166-3.368-7.553-7.519-7.592-4.112.895-8.302 1.363-12.532 1.324-4.542.039-9.046-.429-13.51-1.285-4.19.039-7.559 3.426-7.559 7.592v.156a31.732 31.732 0 000 9.033c.98 6.152 3.916 10.24 8.773 12.11a.96.96 0 01.548 1.245c-.157.351-.51.623-.9.623-.118 0-.236-.038-.353-.077-1.371-.545-2.585-1.207-3.603-1.986a14.782 14.782 0 01-1.998-1.791C-1.49 22.077.155 10.59.311 9.462.39 4.244 4.658 0 9.906 0c.078 0 .117 0 .196.039a75.915 75.915 0 0013.276 1.285c4.072 0 8.145-.428 12.14-1.285.078-.039.157-.039.235-.039C41 0 45.308 4.205 45.347 9.462c.04.311.196 1.245.314 2.647.039.896.078 2.025 0 3.27z" fill="#363"/><path d="M39.944 33.173c-.078.311-.117.623-.196.895C35.245 57.041 32.073 60 29.801 60c-2.389 0-2.78-4.127-3.328-10.357-.51-5.568-1.254-13.94-4.034-13.94-2.624 0-3.133 7.554-3.525 13.044C18.444 55.29 18.131 60 15.272 60 9.946 60 5.168 41.35 4.66 29.24c0-.116 0-.272.079-.39a.93.93 0 01.861-.622c.548-.039.98.39 1.018.934.04.507.04 1.013.079 1.48a80.158 80.158 0 003.368 17.989c2.35 7.436 4.425 9.383 5.208 9.383 0 0 .51-.156.94-2.336.392-2.336.627-4.711.744-7.086.51-7.32 1.058-14.874 5.483-14.874 4.582 0 5.287 7.982 5.992 15.73.274 3.154.704 7.865 1.449 8.605.587-.117 3.446-1.869 7.754-23.478l.352-1.753c0-.116.079-.233.118-.311.47-.117.9-.234 1.331-.39.353.234.588.624.51 1.052z" fill="#363"/><path d="M49.187 21.142c0 2.804-.862 5.373-2.311 7.554v.039a9.413 9.413 0 01-1.214 1.518l-1.37-1.362c.43-.468.822-1.013 1.174-1.558 1.097-1.79 1.762-3.893 1.762-6.152 0-2.102-.548-4.088-1.566-5.801a12.51 12.51 0 00-1.958-2.531 11.68 11.68 0 00-8.185-3.31c-6.462 0-11.71 5.218-11.71 11.642 0 6.425 5.248 11.642 11.71 11.642.9 0 1.762-.078 2.585-.272.47-.117.9-.234 1.331-.39.353-.117.705-.272 1.057-.428 0 0 .04 0 .04-.039.587-.272 1.135-.623 1.684-.973l1.41 1.401c-.51.39-1.097.74-1.645 1.052h-.04c-.704.35-1.41.662-2.193.934-.665.234-1.37.39-2.114.506a13.03 13.03 0 01-2.154.156c-7.558 0-13.668-6.113-13.668-13.589 0-7.515 6.149-13.589 13.668-13.589 2.976 0 5.717.935 7.95 2.57.783.584 1.527 1.207 2.154 1.947a13.011 13.011 0 013.602 9.033z" fill="#363"/><path d="M45.23 19.04c-.312-1.285-.821-2.492-1.605-3.543a9.866 9.866 0 00-8.106-4.206c-5.483 0-9.947 4.44-9.947 9.89 0 5.451 4.464 9.89 9.947 9.89h.235c1.449-.039 2.78-.39 3.994-.934.04 0 .04-.04.079-.04a10.66 10.66 0 002.193-1.44c.078-.078.156-.117.235-.195.665-.623 1.253-1.285 1.723-2.063a9.586 9.586 0 001.527-5.218c0-.74-.078-1.44-.274-2.141zm-9.672 10.045c-4.386 0-7.989-3.582-7.989-7.943 0-4.36 3.564-7.904 7.95-7.904a7.981 7.981 0 017.676 5.802c.195.7.313 1.402.313 2.141 0 2.259-.98 4.322-2.507 5.763a2.53 2.53 0 01-.352.311l-.117.117c-.549.467-1.175.818-1.88 1.13-.98.35-1.997.583-3.094.583z" fill="#363"/><path d="M42.999 26.282c-.118 0-.235 0-.353.039a3.037 3.037 0 00-1.645.623c-.117.078-.234.195-.352.272l-.04.04c-.038.038-.077.077-.077.116-.549.623-.862 1.363-.862 2.18 0 .195 0 .39.04.546.078-.04.156-.078.195-.117.744-.39 1.449-.818 2.036-1.363l.04-.039a.85.85 0 01.195-.156c.666-.623 1.253-1.284 1.724-2.063a5.524 5.524 0 00-.901-.078zm0 0c-.118 0-.235 0-.353.039a3.037 3.037 0 00-1.645.623c-.117.078-.234.195-.352.272l-.04.04c-.038.038-.077.077-.077.116-.549.623-.862 1.363-.862 2.18 0 .195 0 .39.04.546.078-.04.156-.078.195-.117.744-.39 1.449-.818 2.036-1.363l.04-.039a.85.85 0 01.195-.156c.666-.623 1.253-1.284 1.724-2.063a5.524 5.524 0 00-.901-.078zm0 0c-.118 0-.235 0-.353.039a3.037 3.037 0 00-1.645.623c-.117.078-.234.195-.352.272l-.04.04c-.038.038-.077.077-.077.116-.549.623-.862 1.363-.862 2.18 0 .195 0 .39.04.546.078-.04.156-.078.195-.117.744-.39 1.449-.818 2.036-1.363l.04-.039a.85.85 0 01.195-.156c.666-.623 1.253-1.284 1.724-2.063a5.524 5.524 0 00-.901-.078zm16.056 14.562l-13.589-13.51c-.352.544-.744 1.09-1.175 1.557l13.394 13.316c.509.506.509 1.363 0 1.908-.51.506-1.41.506-1.92 0l-13.51-13.433c-.549.39-1.136.74-1.723 1.012.039.078.117.117.156.195l1.293 1.285 12.414 12.343a3.296 3.296 0 002.35.973c.9 0 1.723-.35 2.35-.974 1.213-1.323 1.213-3.387-.04-4.672zM42.02 28.58a.85.85 0 01.195-.156c.666-.623 1.254-1.284 1.724-2.063a6.524 6.524 0 00-.94-.078c-.118 0-.235 0-.353.039a3.037 3.037 0 00-1.645.623c-.117.078-.234.195-.352.272l-.04.04c-.038.038-.077.077-.077.116-.549.623-.862 1.363-.862 2.18 0 .195 0 .39.04.546.078-.04.156-.078.195-.117.744-.35 1.488-.818 2.115-1.402zm.979-2.297c-.118 0-.235 0-.353.039a3.037 3.037 0 00-1.645.623c-.117.078-.234.195-.352.272l-.04.04c-.038.038-.077.077-.077.116-.549.623-.862 1.363-.862 2.18 0 .195 0 .39.04.546.078-.04.156-.078.195-.117.744-.39 1.449-.818 2.036-1.363l.04-.039a.85.85 0 01.195-.156c.666-.623 1.253-1.284 1.724-2.063a5.524 5.524 0 00-.901-.078z" fill="#363"/></svg><svg fill="none" viewBox="0 0 61 64" id="tooth2" xmlns="http://www.w3.org/2000/svg"><path d="M42.67 30.797a.526.526 0 010 .747 20.082 20.082 0 01-3.527 3.154c-.456.332-1.12.208-1.452-.25-.332-.456-.208-1.078.249-1.41 1.244-.913 2.323-1.868 3.195-2.947a.554.554 0 01.83 0l.705.706zM45.118 4.15h-1.66a.377.377 0 01-.29-.124c-1.411-1.204-3.195-1.95-5.187-1.95-4.357.954-8.796 1.452-13.277 1.41-4.813-.041-9.626-.498-14.315-1.41a8.087 8.087 0 00-7.966 8.259v.041a34.03 34.03 0 000 9.63c1.037 6.557 4.149 10.915 9.294 12.907.54.208.788.83.58 1.328a1.022 1.022 0 01-.954.664 1.21 1.21 0 01-.373-.083c-1.452-.58-2.739-1.286-3.817-2.116a15.696 15.696 0 01-2.116-1.91C-1.561 23.533.14 11.29.348 10.086A10.14 10.14 0 0110.514 0h.207c4.606.913 9.336 1.37 14.024 1.411 4.315 0 8.63-.456 12.863-1.37.083-.041.166-.041.29-.041 3.03 0 5.726 1.328 7.593 3.403.25.29.042.747-.373.747z" fill="#363"/><path d="M31.591 64c-2.53 0-2.945-4.4-3.526-11.04-.54-5.935-1.328-14.859-4.274-14.859-2.78 0-3.32 8.052-3.734 13.904C19.559 58.978 19.227 64 16.198 64 10.555 64 5.493 44.12 4.954 31.211c-.042-.58.415-1.037.995-1.079.581-.041 1.038.415 1.08.996.373 7.056 1.576 14.029 3.65 20.753 2.49 7.927 4.69 10.002 5.519 10.002 0 0 .54-.166.996-2.49.415-2.49.664-5.022.788-7.554.54-7.803 1.12-15.855 5.809-15.855 4.855 0 5.601 8.509 6.348 16.768.29 3.362.747 8.384 1.535 9.173.623-.125 3.818-2.075 8.59-26.895a.987.987 0 011.203-.83c.58.083.954.622.83 1.203v.042C37.441 60.763 33.997 64 31.591 64zm29.211-51.715H31.3l-.166.415c-.166.415-.124.913.166 1.287l.332.373 13.36 16.063.29.332a.82.82 0 001.287 0l.249-.332 13.36-16.104.54-.581c.29-.374.373-.83.166-1.287l-.083-.166zm-11.66 12.16l-3.194 3.86-2.78-3.32-7.76-9.338c-.414-.498-.04-1.287.623-1.287h19.833c.664 0 1.038.789.623 1.287l-7.345 8.799z" fill="#363"/><path d="M60.802 12.285l-2.573-5.976c-.124-.332-.456-.498-.788-.498H34.66c-.331 0-.663.207-.788.498L31.3 12.244l-.29.622a.835.835 0 00.124.872l.456.54h28.547l.664-.789a.835.835 0 00.124-.872l-.124-.332zm-25.767 0c-.705 0-1.161-.705-.871-1.328l.913-2.158.373-.913h21.161l.415.954.913 2.076c.29.622-.208 1.328-.871 1.328l-22.033.041z" fill="#363"/><path d="M58.146 7.47l-1.078 1.37-2.656 3.404-1.203 1.535-.83 1.08-.54-.54-.746-.789-1.245-1.286-3.03-3.155c-.372-.415-1.036-.373-1.41.042l-2.78 3.113-1.12 1.286-.705.789-.498.54-.457-.54-.456-.498-1.328-1.577-2.987-3.487-1.08-1.245 1.578-1.328 1.452 1.702 2.572 2.988a.941.941 0 001.453 0l2.697-3.03 1.867-2.075h.913l4.895 5.105a.972.972 0 001.453-.083L55.2 7.803l1.287-1.66 1.66 1.328z" fill="#363"/><path d="M53.25 13.696l-.041.125-.208.54-3.858 10.085-2.282 6.018-.25.29c-.331.416-.954.415-1.327 0l-.25-.331-1.825-5.479-3.651-10.583-.166-.499-.083-.207 1.95-.664.208.58.29.79 3.444 10.251c.249.747 1.328.789 1.618.042l3.942-10.293.29-.79.25-.622 1.95.747z" fill="#363"/></svg><svg fill="none" viewBox="0 0 64 67" id="tooth3" xmlns="http://www.w3.org/2000/svg"><path d="M23.539 39.588a.981.981 0 01-.353-.066c-12.652-4.865-10.263-21.895-10.024-23.297a9.575 9.575 0 012.842-6.714 9.616 9.616 0 016.752-2.778c.068 0 .136.006.203.02A72.228 72.228 0 0036.2 8.064c1.633 0 7.804-.547 10.127-.754l.693-.062a.984.984 0 011.063.893.98.98 0 01-.895 1.06l-.69.063c-3.993.356-8.775.758-10.298.758A73.19 73.19 0 0122.659 8.69a7.652 7.652 0 00-5.334 2.268 7.619 7.619 0 00-2.205 5.352.95.95 0 010 .171c-.046.16-2.85 16.733 8.768 21.215a.978.978 0 01-.352 1.887l.004.004zm34.025-24.587a.98.98 0 01-.932-.68c-.857-2.668-3.916-5.638-6.935-5.638a.98.98 0 01-.979-.977.976.976 0 01.98-.977c3.132 0 7.408 2.673 8.798 6.995A.975.975 0 0157.564 15zm-8.309 24.587a.98.98 0 01-.932-.677.975.975 0 01.36-1.093c7.049-5.08 7.965-13.325 7.883-17.788a.976.976 0 01.961-.994.98.98 0 01.997.96c.09 4.845-.917 13.809-8.694 19.408a.977.977 0 01-.575.184z" fill="#363"/><path d="M42.66 66.992c-2.396 0-2.768-4.138-3.336-10.406-.501-5.576-1.261-13.993-4.038-13.993-2.604 0-3.132 7.577-3.524 13.11C31.3 62.264 30.98 67 28.124 67c-5.314 0-10.099-18.714-10.608-30.87a.977.977 0 01.938-1.018.981.981 0 011.02.936 80.842 80.842 0 003.454 19.538c2.35 7.46 4.42 9.429 5.196 9.429 0 0 .513-.14.952-2.364.374-2.357.619-4.732.732-7.116.517-7.338 1.05-14.93 5.482-14.93 4.566 0 5.29 8.021 5.992 15.782.286 3.153.713 7.89 1.457 8.62.587-.125 3.61-1.954 8.105-25.302a.975.975 0 01.763-.79.981.981 0 011.164.772.976.976 0 01-.004.386c-4.601 23.863-7.812 26.92-10.107 26.92zM8.936 8.917l6.512-1.207-6.512-1.212L7.726 0 6.512 6.498 0 7.71l6.512 1.207 1.214 6.498 1.21-6.498zm16.502 21.406l4.511-.84-4.511-.836-.838-4.498-.838 4.498-4.507.836 4.507.84.838 4.498.838-4.498zm23.002.805a.98.98 0 01-.963-.781L45.315 18.74l-11.638-2.173a.98.98 0 01-.804-.96.976.976 0 01.804-.962l11.638-2.142L47.477.9a.976.976 0 01.963-.803.98.98 0 01.964.803l2.161 11.605 11.63 2.158a.98.98 0 01.805.96.976.976 0 01-.805.962l-11.63 2.157-2.161 11.606a.977.977 0 01-.964.781zm-9.222-15.52l7.115 1.32a.98.98 0 01.784.781l1.323 7.1 1.324-7.1a.976.976 0 01.783-.781l7.115-1.32-7.115-1.322a.98.98 0 01-.783-.781l-1.324-7.1-1.323 7.1a.976.976 0 01-.784.781l-7.115 1.321z" fill="#363"/></svg><svg fill="none" viewBox="0 0 71 65" id="tooth4" xmlns="http://www.w3.org/2000/svg"><path d="M27.38 22.428l-1.805.984a19.994 19.994 0 01-.236-2.087l1.883-1.024c0 .709.04 1.418.157 2.127zm9.454 14.335a.968.968 0 01-.903.63c-.117 0-.235-.04-.353-.08-1.373-.55-2.589-1.22-3.609-2.008a14.851 14.851 0 01-2-1.811 15.193 15.193 0 01-2.001-2.796c-.314-.591-.628-1.182-.863-1.773l1.686-.905c.236.63.55 1.22.864 1.772 1.53 2.678 3.726 4.608 6.63 5.71.47.197.745.748.549 1.26zM44.6 6.99l.276.472c-.746-.04-1.53-.079-2.276-.157a81.523 81.523 0 01-7.571-1.064c-4.198.079-7.571 3.505-7.571 7.68v.157c-.118.867-.236 1.772-.275 2.678-.04.748-.078 1.497-.04 2.284l-1.921 1.024c-.04-.787-.04-1.536-.04-2.205.04-2.127.275-3.623.314-4.017.04-5.277 4.355-9.57 9.611-9.57h.197c2.275.433 4.59.788 6.904.985.667.078 1.294.118 1.961.157.04.552.157 1.103.432 1.575zm17.654 30.206c-.431.315-1.06.197-1.373-.236-.314-.434-.196-1.024.235-1.34 10.16-7.364 7.61-21.344 7.572-21.502v-.197c0-4.214-3.374-7.64-7.532-7.68a50.264 50.264 0 01-6.395 1.024c-.706.08-1.412.119-2.118.197l-1.02-1.93c.706-.039 1.451-.078 2.158-.157 2.353-.197 4.707-.59 7.022-1.103.078-.039.157-.039.274-.039 5.257 0 9.572 4.253 9.611 9.57.197 1.457 2.393 15.556-8.434 23.393z" fill="#363"/><path d="M55.075 65c-2.393 0-2.785-4.175-3.334-10.476-.51-5.631-1.256-14.099-4.041-14.099-2.628 0-3.138 7.64-3.53 13.194C43.698 60.235 43.384 65 40.52 65c-5.334 0-10.12-18.864-10.63-31.112-.04-.551.392-.984.941-1.024.55-.04.981.394 1.02.945.354 6.695 1.491 13.312 3.453 19.691 2.353 7.522 4.432 9.492 5.217 9.492 0 0 .51-.158.942-2.403a62.63 62.63 0 00.745-7.167c.51-7.404 1.06-15.044 5.492-15.044 4.59 0 5.296 8.073 6.002 15.91.275 3.19.706 7.955 1.452 8.704.588-.119 3.609-1.97 8.12-25.48a.933.933 0 011.138-.788c.549.078.902.59.784 1.142v.04C60.567 61.927 57.35 65 55.076 65zm2.236-52.93l-2.589-4.765-1.02-1.89-1.412-2.6C50.877.216 47.62-.768 45.032.65c-1.765.946-2.785 2.797-2.824 4.687 0 .67.117 1.378.353 2.008.078.197.196.394.275.591l1.333 2.52 3.57 6.577.079.158a5.127 5.127 0 002 2.087c.785.473 1.726.709 2.629.748.902 0 1.804-.197 2.628-.67a5.345 5.345 0 002-1.85c.471-.788.785-1.693.825-2.6a5.222 5.222 0 00-.589-2.835zm-7.728 4.175l-.275-.512-1.255-2.363-.667-1.182-1.255-2.363-1.255-2.363-.275-.473a3.087 3.087 0 01-.392-1.535 3.446 3.446 0 011.765-3.111c1.648-.906 3.727-.276 4.629 1.378l.98 1.812 1.02 1.93 2.982 5.552c.47.827.51 1.773.275 2.639a3.323 3.323 0 01-1.648 2.009 3.418 3.418 0 01-2.55.275c-.863-.275-1.608-.827-2.08-1.693z" fill="#363"/><path d="M48.053 13.409a1.759 1.759 0 01-.902 1.733l-.314.157-3.923 2.127-1.805.985v.078a3.776 3.776 0 01-.431 2.363l2.393-1.3 4.668-2.52.275-.157c.51-.276.941-.67 1.255-1.103l-1.216-2.363zm-1.922-3.584c-.55 0-1.099.158-1.609.433l-.274.158-4.668 2.56-2.393 1.3h.156c.785.078 1.53.433 2.119.984l1.804-.985 3.923-2.126.275-.158c.628-.354 1.412-.236 1.961.197l-1.294-2.363z" fill="#363"/><path d="M42.953 17.505c0-.04 0-.08-.039-.08l-1.805.985v.08a3.776 3.776 0 01-.431 2.362c-.04.04-.04.079-.078.118a3.85 3.85 0 01-1.413 1.34l-10.435 5.71-1.687.905L8.04 39.283a3.731 3.731 0 01-5.06-1.497l-.55-1.063a1.862 1.862 0 01-.235-.59c-.275-.71-.314-1.497-.078-2.206a3.853 3.853 0 011.804-2.284l21.302-11.579 1.922-1.024 8.003-4.332c.627-.354 1.373-.472 2.04-.433h.156c.785.08 1.53.434 2.119.985l1.804-.985c-.431-.512-.98-.945-1.569-1.3h-.117c-1.609-.866-3.649-.945-5.375 0l-6.983 3.781-2 1.103L2.98 29.909C.233 31.408-.827 34.873.703 37.63l.55 1.063c1.49 2.757 4.942 3.82 7.728 2.284l18.947-10.278 1.687-.906 10.514-5.71a5.766 5.766 0 002.942-4.411v-.118c.118-.67.04-1.379-.118-2.048zm16.359-.039l-1.373-2.56-.157-.315-1.922 1.063a3.323 3.323 0 01-1.648 2.009 3.418 3.418 0 01-2.55.275l-1.922 1.064.157.315 1.373 2.56c.863 1.575 2.864 2.166 4.433 1.338l.314-.157 1.726-.945.313-.158a3.37 3.37 0 001.256-4.49zm-2.236 2.717l-.314.157-1.726.946-.314.157a1.293 1.293 0 01-1.765-.512l-.471-.905-.118-.276 4.63-2.52.156.275.471.906c.314.63.078 1.418-.55 1.772z" fill="#363"/><path d="M56.762 20.34l-1.726.946 2.864 5.276c.274.473.863.67 1.333.394.236-.118.393-.354.471-.59.079-.237.04-.512-.078-.749l-2.864-5.277zm-25.695.079l-3.688 2.009-1.804.984-23.42 12.72-.628.355-.941-1.733 1.49-.827 25.068-13.626 2.981-1.615a1.04 1.04 0 01.471-.118c.353 0 .706.197.863.512.275.512.079 1.103-.392 1.339z" fill="#363"/></svg><svg fill="none" viewBox="0 0 18 16" id="users" xmlns="http://www.w3.org/2000/svg"><path d="M12.304 12.477l-2.866-1.39A.763.763 0 019 10.4v-.983a6.584 6.584 0 001.102-1.964c.423-.188.698-.594.698-1.052V5.236c0-.28-.108-.551-.3-.763V2.925c.017-.16.083-1.112-.628-1.898C9.256.346 8.256 0 6.9 0 5.544 0 4.544.346 3.928 1.027c-.71.786-.645 1.738-.628 1.898v1.547a1.14 1.14 0 00-.3.764V6.4c0 .354.166.684.45.904A6.037 6.037 0 004.5 9.41v.963c0 .282-.158.54-.413.675L1.41 12.462A2.613 2.613 0 000 14.768V16h13.8v-1.176c0-1-.573-1.9-1.496-2.347z" fill="#000" fill-opacity=".4"/><path d="M12.304 12.477l-2.866-1.39A.763.763 0 019 10.4v-.983a6.584 6.584 0 001.102-1.964c.423-.188.698-.594.698-1.052V5.236c0-.28-.108-.551-.3-.763V2.925c.017-.16.083-1.112-.628-1.898C9.256.346 8.256 0 6.9 0 5.544 0 4.544.346 3.928 1.027c-.71.786-.645 1.738-.628 1.898v1.547a1.14 1.14 0 00-.3.764V6.4c0 .354.166.684.45.904A6.037 6.037 0 004.5 9.41v.963c0 .282-.158.54-.413.675L1.41 12.462A2.613 2.613 0 000 14.768V16h13.8v-1.176c0-1-.573-1.9-1.496-2.347z" fill="#009344"/><path d="M16.64 12.808l-2.917-1.225a.584.584 0 01-.211-.225h1.957s.114.01.29.01c.321 0 .79-.036 1.2-.206a.864.864 0 00.5-.555.842.842 0 00-.128-.734c-.56-.772-1.865-2.79-1.906-4.835-.001-.036-.12-3.515-3.663-3.544a4.58 4.58 0 00-1.012.12c.238.61.216 1.155.2 1.332v1.377c.194.268.3.586.3.913V6.4a1.59 1.59 0 01-.782 1.356A6.999 6.999 0 019.45 9.567v.832c0 .129.07.24.19.297l2.865 1.39c1.076.522 1.745 1.57 1.745 2.737V16H18v-1.075c0-.9-.515-1.708-1.36-2.117z" fill="#000" fill-opacity=".4"/><path d="M16.64 12.808l-2.917-1.225a.584.584 0 01-.211-.225h1.957s.114.01.29.01c.321 0 .79-.036 1.2-.206a.864.864 0 00.5-.555.842.842 0 00-.128-.734c-.56-.772-1.865-2.79-1.906-4.835-.001-.036-.12-3.515-3.663-3.544a4.58 4.58 0 00-1.012.12c.238.61.216 1.155.2 1.332v1.377c.194.268.3.586.3.913V6.4a1.59 1.59 0 01-.782 1.356A6.999 6.999 0 019.45 9.567v.832c0 .129.07.24.19.297l2.865 1.39c1.076.522 1.745 1.57 1.745 2.737V16H18v-1.075c0-.9-.515-1.708-1.36-2.117z" fill="#009344"/></svg><svg fill="none" viewBox="0 0 35 35" id="vkontakte" xmlns="http://www.w3.org/2000/svg"><path d="M17.5 0C7.835 0 0 7.835 0 17.5S7.835 35 17.5 35 35 27.165 35 17.5 27.165 0 17.5 0zm6.73 19.744s1.548 1.528 1.929 2.237c.01.014.016.029.02.036.155.26.191.463.115.614-.128.252-.565.376-.715.387h-2.734c-.19 0-.587-.05-1.068-.381-.37-.259-.735-.684-1.09-1.097-.531-.617-.99-1.149-1.453-1.149a.556.556 0 00-.174.028c-.35.113-.798.612-.798 1.943 0 .415-.328.654-.56.654H16.45c-.427 0-2.649-.15-4.617-2.226-2.41-2.543-4.58-7.643-4.598-7.69-.137-.33.146-.507.454-.507h2.762c.368 0 .488.224.572.423.099.231.46 1.152 1.052 2.187.96 1.688 1.55 2.374 2.022 2.374a.545.545 0 00.253-.066c.616-.343.501-2.54.474-2.995 0-.086-.002-.983-.317-1.413-.226-.312-.61-.43-.844-.474a.998.998 0 01.362-.308c.423-.211 1.185-.242 1.942-.242h.421c.82.01 1.032.063 1.329.138.602.144.614.532.561 1.861-.016.378-.032.804-.032 1.307 0 .11-.006.226-.006.35-.018.677-.04 1.444.438 1.76.062.038.133.06.207.06.166 0 .666 0 2.018-2.32.593-1.025 1.052-2.234 1.085-2.323.027-.048.108-.194.202-.25a.484.484 0 01.226-.053h3.247c.354 0 .596.053.642.19.08.217-.015.878-1.497 2.885-.25.332-.47.622-.662.874-1.343 1.76-1.343 1.85.084 3.186z" fill="#fff" fill-opacity=".2"/></svg><svg fill="none" viewBox="0 0 11 11" id="whatsapp" xmlns="http://www.w3.org/2000/svg"><path d="M9.459 1.588C8.395.53 7.035 0 5.557 0 2.542 0 .06 2.412.06 5.47c0 .942.237 1.942.71 2.765L0 11l2.897-.706c.768.47 1.714.647 2.601.647 3.015 0 5.498-2.412 5.498-5.47.06-1.412-.532-2.824-1.537-3.883zm-3.902 8.47a4.757 4.757 0 01-2.365-.646l-.118-.118-1.773.47.473-1.646L1.655 8c-.414-.765-.65-1.588-.65-2.47C.945 3.058 3.015.94 5.557.94c1.242 0 2.365.47 3.252 1.353.827.824 1.36 2 1.36 3.235 0 2.471-2.07 4.53-4.612 4.53zM8.1 6.649c-.118-.06-.827-.413-.946-.472-.118-.058-.236-.058-.295.06-.119.117-.355.47-.473.529-.118.117-.118.117-.296.059-.177-.06-.532-.236-1.123-.706a3.689 3.689 0 01-.769-.942c-.118-.117 0-.235.06-.294l.236-.235c.06-.059.118-.118.118-.176.06-.118.06-.118 0-.236 0-.117-.295-.764-.414-1.059-.118-.235-.236-.235-.295-.235h-.237a.64.64 0 00-.414.177c-.118.117-.472.47-.472 1.176s.532 1.353.532 1.412c.059.118.946 1.47 2.364 2.059.296.117.592.235.769.294.295.117.65.117.828.059.236-.06.827-.353.945-.647.119-.295.119-.589.119-.647-.06-.06-.178-.118-.237-.177z" fill="#009344"/></svg><svg fill="none" viewBox="0 0 35 35" id="youtube" xmlns="http://www.w3.org/2000/svg"><path d="M16.635 13.02c.12.072.276.12.42.108a.723.723 0 00.445-.108.329.329 0 00.168-.3v-2.523c0-.108-.072-.192-.168-.24a.91.91 0 00-.432-.096.71.71 0 00-.409.096.263.263 0 00-.156.24v2.523a.326.326 0 00.132.3zm-1.789 11.038a1.409 1.409 0 01-.36.228.928.928 0 01-.325.096.303.303 0 01-.24-.072.36.36 0 01-.072-.216v-3.315h-1.153v3.603c-.012.216.06.42.204.589a.79.79 0 00.6.192c.229 0 .457-.048.673-.144a2.3 2.3 0 00.66-.396v.468h1.154l.012-4.312h-1.153v3.279zm-5.417-3.603h1.105v4.576h1.069v-4.576h1.093l.012-.781h-3.28v.78z" fill="#fff" fill-opacity=".2"/><path d="M17.5 0C7.831 0 0 7.831 0 17.5S7.831 35 17.5 35 35 27.169 35 17.5 27.157 0 17.5 0zm2.522 13.212V8.768h1.033v4.084a.387.387 0 00.072.276c.048.06.132.096.204.084a.602.602 0 00.289-.108c.12-.084.228-.18.312-.288V8.768h1.033v5.309h-1.033v-.589a1.97 1.97 0 01-.6.493c-.205.108-.409.228-.601.228a.66.66 0 01-.529-.288 1.122 1.122 0 01-.18-.709zm-4.708-3.147c-.012-.384.18-.732.492-.949.325-.24.77-.348 1.322-.348a1.91 1.91 0 011.237.372c.312.229.492.577.48.961v2.655c.012.396-.156.78-.468 1.033a2.025 2.025 0 01-1.297.42 1.896 1.896 0 01-1.273-.444 1.293 1.293 0 01-.481-1.045v-2.655h-.012zM12.251 6.57l.841 3.063h.096l.805-3.063h1.321l-1.513 4.48v3.183h-1.31v-3.039L10.93 6.57h1.321zm14.666 17.296c0 1.91-1.61 3.459-3.592 3.459H10.834c-1.982 0-3.591-1.55-3.591-3.46v-2.918c0-1.91 1.61-3.459 3.59-3.459h12.492c1.982 0 3.592 1.55 3.592 3.46v2.918z" fill="#fff" fill-opacity=".2"/><path d="M20.347 22.052a.92.92 0 00-.289-.744c-.192-.169-.468-.253-.828-.253-.18 0-.36.036-.529.096-.18.072-.336.157-.492.277v-1.742h-1.153v5.417h1.153v-.3c.144.12.312.216.48.276.192.06.396.084.6.084.337 0 .601-.072.77-.228a.797.797 0 00.264-.649l.024-2.234zm-1.166 2.102a.343.343 0 01-.096.276.44.44 0 01-.3.084l-.276-.048a.932.932 0 01-.264-.144v-2.486l.24-.12.24-.036c.12 0 .252.036.348.108a.373.373 0 01.12.3v2.066h-.012zm4.421-.324c0 .24-.037.396-.108.468a.555.555 0 01-.385.108.517.517 0 01-.372-.12.759.759 0 01-.108-.456v-.78h2.114v-1.058a1.055 1.055 0 00-.409-.9c-.276-.205-.672-.313-1.177-.313-.492 0-.9.108-1.213.336-.3.193-.48.529-.468.877v1.862c-.012.36.144.709.432.937.288.228.673.336 1.177.336.553 0 .961-.108 1.25-.324.275-.216.42-.54.42-.961v-.216h-1.141v.204h-.012zm-.817-2.21a.488.488 0 01.384-.108.525.525 0 01.372.108c.085.108.133.24.12.372v.42h-.984v-.432a.4.4 0 01.108-.36z" fill="#fff" fill-opacity=".2"/></svg></svg>