<svg viewBox="0 0 274 79" xmlns="http://www.w3.org/2000/svg" xmlns:xlink="http://www.w3.org/1999/xlink"><style>:root&gt;svg{display:none}:root&gt;svg:target{display:block}</style><svg fill="none" viewBox="0 0 11 6" id="arrow1" xmlns="http://www.w3.org/2000/svg"><path d="M7.983 0l-.49.487 2.18 2.168H0v.69h9.674l-2.18 2.168.49.487L11 3 7.983 0z" fill="#fff"/></svg><svg fill="none" viewBox="0 0 18 10" id="arrow2" xmlns="http://www.w3.org/2000/svg"><path d="M13.063 0l-.802.812 3.568 3.614H0v1.148h15.83l-3.57 3.614.802.812L18 5l-4.937-5z" fill="#009344"/></svg><svg fill="none" viewBox="0 0 15 15" id="clock" xmlns="http://www.w3.org/2000/svg"><path d="M7.5 0C3.364 0 0 3.364 0 7.5S3.364 15 7.5 15 15 11.636 15 7.5 11.636 0 7.5 0zm0 13.41c-3.256 0-5.895-2.654-5.895-5.895 0-3.24 2.654-5.895 5.895-5.895 3.24 0 5.895 2.655 5.895 5.895 0 3.241-2.639 5.896-5.895 5.896z" fill="#006738"/><path d="M11.404 7.269H8.04V3.225a.62.62 0 00-.617-.617.62.62 0 00-.617.617v4.66c0 .34.277.618.617.618h3.981a.62.62 0 00.618-.617.62.62 0 00-.618-.617z" fill="#006738"/></svg><svg fill="none" viewBox="0 0 13 10" id="home" xmlns="http://www.w3.org/2000/svg"><path d="M6.283 2.019L1.8 5.713a.106.106 0 01-.004.023.106.106 0 00-.004.024V9.5c0 .136.05.253.149.352a.48.48 0 00.35.148h2.993V7.007H7.28V10h2.992c.136 0 .252-.05.351-.148a.479.479 0 00.148-.351V5.76a.108.108 0 00-.008-.047L6.284 2.02z" fill="#006738"/><path d="M12.48 4.871l-1.708-1.418V.273a.242.242 0 00-.07-.18.242.242 0 00-.18-.07H9.027a.243.243 0 00-.179.07.243.243 0 00-.07.18v1.52L6.875.203A.91.91 0 006.283 0a.91.91 0 00-.592.203L.087 4.87A.226.226 0 000 5.04a.252.252 0 00.054.183L.54 5.8a.266.266 0 00.163.086.29.29 0 00.187-.055l5.394-4.497 5.393 4.497a.24.24 0 00.164.055h.024a.266.266 0 00.163-.086l.484-.577a.252.252 0 00.054-.183.227.227 0 00-.086-.168z" fill="#006738"/></svg><svg fill="none" viewBox="0 0 10 16" id="location" xmlns="http://www.w3.org/2000/svg"><path d="M5 0A5 5 0 00.456 7.09l3.809 8.264c.182.398.444.646.735.646s.553-.248.735-.645L9.544 7.09A5 5 0 005 0zm0 8a3 3 0 11.002-6.002A3 3 0 015 8z" fill="#006738"/></svg><svg fill="none" viewBox="0 0 72 65" id="logo1" xmlns="http://www.w3.org/2000/svg"><path d="M10.174 43.159c0 2.665 1.115 4.24 3.344 4.725H0c1.895-.479 3.012-2.054 3.353-4.725V4.968C3.353 2.22 2.258.608.066.128h13.518c-1.68.36-2.816 1.913-3.41 4.66V18.2c0 5.35 7.427 5.255 11.765 5.614-4.376.51-11.822.67-11.765 6.389V43.16zm29.318-3.223a21.904 21.904 0 0014.21 8.024 23.911 23.911 0 01-3.287.36 24.14 24.14 0 01-17.243-6.359 24.03 24.03 0 01-7.737-16.636 23.115 23.115 0 011.52-9.542 23.16 23.16 0 015.29-8.093A23.02 23.02 0 0140.2 2.192 23.066 23.066 0 0149.714.441a22.345 22.345 0 00-12.22 8.77 23.492 23.492 0 00-4.064 14.791 25.86 25.86 0 006.063 15.934zM60.77 29.323c0-2.986-1.175-4.757-3.524-5.311H71.36a5.24 5.24 0 00-2.927 2.92 12.978 12.978 0 00-.72 2.211v21.473c0 3.024-1.613 6.137-4.84 9.337a17.26 17.26 0 01-12.022 5.038 9.889 9.889 0 006.878-3.705 14.171 14.171 0 002.093-3.28 55 55 0 00.948-7.4V29.323zm-.351-26.557a14.037 14.037 0 015.087 4.591 13.995 13.995 0 012.302 6.448L67.712.44H54.024c2.247.41 4.41 1.196 6.394 2.325z" fill="#17562F"/></svg><svg fill="none" viewBox="0 0 274 79" id="logo2" xmlns="http://www.w3.org/2000/svg"><path d="M136.264 57.716v.057a2.826 2.826 0 01-1.013 2.457 4.374 4.374 0 01-2.842.85 3.89 3.89 0 01-2.918-1.152 4.131 4.131 0 01-1.127-3.015v-2.155a4.124 4.124 0 011.127-3.005 3.887 3.887 0 012.918-1.153 4.374 4.374 0 012.842.85 2.889 2.889 0 011.004 2.458v.056h-.948a2.264 2.264 0 00-.748-1.89 3.217 3.217 0 00-2.122-.623 2.777 2.777 0 00-2.169.945 3.365 3.365 0 00-.824 2.353v2.126a3.404 3.404 0 00.824 2.373 2.787 2.787 0 002.169.945 3.254 3.254 0 002.122-.605 2.28 2.28 0 00.739-1.89h.947m23.351 2.315h5.058v.888h-6.11v-10.16h1.052v9.272zm27.822-9.271h-1.042V60.91h1.042V50.74zm30.938 10.159h-1.042l-6.138-8.487-.057.02V60.9h-1.052V50.74h1.052l6.148 8.478.047-.019v-8.458h1.042v10.16zm23.73-10.159h-1.042V60.91h1.042V50.74zm30.171 6.975v.056a2.827 2.827 0 01-1.014 2.458 4.383 4.383 0 01-2.842.85 3.889 3.889 0 01-2.917-1.153 4.15 4.15 0 01-1.127-3.015V54.76a4.123 4.123 0 011.127-3.006 3.879 3.879 0 012.917-1.153 4.384 4.384 0 012.842.85 2.88 2.88 0 011.004 2.458v.057h-.947a2.264 2.264 0 00-.748-1.89 3.217 3.217 0 00-2.122-.624 2.783 2.783 0 00-2.169.945 3.37 3.37 0 00-.825 2.353v2.127a3.41 3.41 0 00.825 2.372 2.77 2.77 0 002.169.945 3.247 3.247 0 002.122-.605 2.277 2.277 0 00.739-1.89h.947" fill="#17562F"/><path d="M40.977 32.029c0 3.61 0 6.616.19 8.165.113 1.087.34 1.89 1.468 2.07.562.08 1.128.13 1.696.151.227 0 .303.114.303.227 0 .114-.19.303-.607.303-2.074 0-4.452-.114-4.641-.114-.19 0-2.568.114-3.695.114-.417 0-.606-.076-.606-.303 0-.227.076-.227.303-.227a5.822 5.822 0 001.137-.15c.758-.152.947-.946 1.099-2.07.19-1.579.19-4.556.19-8.166v-3.95a.217.217 0 00-.228-.227h-16a.198.198 0 00-.227.226v3.951c0 3.61 0 6.616.19 8.165.113 1.087.34 1.89 1.468 2.07.562.08 1.128.13 1.695.151.227 0 .303.114.303.227 0 .114-.19.303-.606.303-2.075 0-4.452-.114-4.642-.114-.19 0-2.567.114-3.694.114-.417 0-.606-.076-.606-.303 0-.227.075-.227.303-.227a5.82 5.82 0 001.127-.15c.758-.152.947-.946 1.099-2.07.19-1.579.19-4.556.19-8.166v-6.616c0-5.869 0-6.927-.076-8.127-.076-1.2-.38-1.89-1.62-2.146a7.058 7.058 0 00-1.28-.113c-.15 0-.302-.076-.302-.227 0-.151.19-.302.606-.302 1.696 0 4.073.113 4.263.113.19 0 2.567-.113 3.694-.113.417 0 .606.075.606.302 0 .227-.151.227-.303.227a5.6 5.6 0 00-.947.113c-1.014.19-1.317.832-1.393 2.146-.075 1.313-.075 2.258-.075 8.127v.794a.199.199 0 00.227.227h16a.198.198 0 00.227-.227v-.794c0-5.869 0-6.927-.076-8.127-.075-1.2-.379-1.89-1.62-2.146a7.058 7.058 0 00-1.278-.113c-.152 0-.303-.076-.303-.227 0-.151.189-.302.606-.302 1.695 0 4.073.113 4.263.113.189 0 2.567-.113 3.694-.113.417 0 .606.075.606.302 0 .227-.151.227-.303.227a5.6 5.6 0 00-.947.113c-1.014.19-1.317.832-1.393 2.146-.075 1.313-.075 2.258-.075 8.127v6.616m16.065 1.626c0 3.09 0 5.604.152 6.927.114.945.227 1.54 1.212 1.692.5.078 1.002.129 1.507.151a.257.257 0 01.247.162.254.254 0 01.018.103c0 .15-.152.264-.53.264-1.895 0-3.998-.113-4.15-.113-.151 0-2.264.113-3.277.113-.342 0-.53-.075-.53-.264a.254.254 0 01.264-.265 4.748 4.748 0 001.023-.151c.645-.151.758-.756.872-1.692.151-1.314.19-3.837.19-6.927v-5.671c0-4.971 0-5.869-.076-6.89-.076-1.02-.341-1.578-1.061-1.73a6.003 6.003 0 00-1.014-.113.284.284 0 01-.265-.264c0-.19.151-.265.53-.265 1.1 0 3.174.076 3.354.076.18 0 2.302-.076 3.325-.076.379 0 .53.076.53.265a.32.32 0 01-.265.264c-.28-.006-.56.02-.834.076-.947.189-1.099.643-1.174 1.767-.076 1.125 0 1.89 0 6.89v5.67m27.575 1.126c0-2.6-.075-2.978-1.43-3.233-.377-.045-.757-.07-1.137-.075a.323.323 0 01-.265-.265c0-.227.151-.265.53-.265 1.507 0 3.733.076 3.922.076.19 0 2.226-.076 3.25-.076.378 0 .53 0 .53.265a.321.321 0 01-.265.265 3.678 3.678 0 00-.825.075c-.947.151-1.165.643-1.25 1.768-.085 1.124 0 1.956 0 3.307v3.582c0 1.465 0 1.503-.455 1.73a16.907 16.907 0 01-7.057 1.427c-2.53 0-7.247-.303-10.941-3.421a12.287 12.287 0 01-3.96-9.111 11.95 11.95 0 011.376-5.983 11.985 11.985 0 014.166-4.517 16.732 16.732 0 018.829-2.032 27.63 27.63 0 015.096.53c.881.196 1.778.31 2.68.34.342 0 .418.15.418.302 0 .454-.19 1.323-.19 4.517 0 .53-.151.68-.379.68-.227 0-.227-.188-.227-.49a4.718 4.718 0 00-.758-2.108c-.834-1.2-3.353-2.486-7.654-2.486a10.56 10.56 0 00-6.944 2.07c-1.894 1.465-3.277 4.329-3.277 8.052a12.724 12.724 0 003.514 8.846 11.854 11.854 0 008.526 3.355 8.335 8.335 0 003.58-.605c.417-.226.683-.378.683-.945V34.78m33.571-1.125c0 3.09 0 5.604.19 6.927.113.945.189 1.54 1.203 1.692a12.9 12.9 0 001.468.151.265.265 0 01.303.265c0 .151-.189.264-.568.264-1.81 0-3.922-.113-4.112-.113-.189 0-2.301.113-3.277.113-.379 0-.531-.075-.531-.264a.258.258 0 01.163-.247.252.252 0 01.103-.018 4.42 4.42 0 00.947-.151c.682-.151.796-.794.947-1.73.152-1.313.152-3.723.152-6.814v-3.203c0-.152-.076-.19-.19-.19h-13.849c-.114 0-.189 0-.189.19v3.194c0 3.09 0 5.538.151 6.852.114.945.227 1.54 1.203 1.691.499.08 1.002.13 1.506.152a.256.256 0 01.266.265c0 .15-.152.264-.531.264-1.894 0-3.96-.113-4.111-.113-.152 0-2.302.113-3.325.113-.341 0-.53-.076-.53-.265a.255.255 0 01.265-.264 4.747 4.747 0 001.023-.151c.644-.152.72-.757.871-1.692a65.55 65.55 0 00.19-6.928v-5.67c0-4.971 0-5.87-.076-6.89-.076-1.02-.265-1.616-1.355-1.767-.377-.046-.757-.07-1.136-.076a.322.322 0 01-.266-.265c0-.189.152-.264.53-.264 1.507 0 3.62.075 3.79.075.17 0 2.264-.075 3.278-.075.378 0 .53.075.53.264a.318.318 0 01-.265.265 3.7 3.7 0 00-.834.076c-.947.189-1.089.642-1.165 1.767-.076 1.125 0 1.994 0 6.965v.68c0 .19.076.19.189.19h13.85c.113 0 .189 0 .189-.19v-.68c0-4.97 0-5.944-.076-6.965-.075-1.02-.227-1.616-1.316-1.767-.378-.046-.757-.07-1.137-.076a.284.284 0 01-.265-.265c0-.189.151-.264.53-.264 1.469 0 3.619.075 3.789.075.171 0 2.302-.075 3.278-.075.379 0 .568.075.568.264a.322.322 0 01-.303.265c-.28-.005-.559.02-.833.076-.872.189-1.052.642-1.128 1.767-.075 1.125-.075 1.89-.075 6.89v5.67" fill="#3E7D44"/><path d="M153.638 40.43c0 1.012 0 1.088-.493 1.352-2.453 1.276-6.148 1.692-9.094 1.692-9.245 0-17.43-4.366-17.43-14.753a14.043 14.043 0 011.653-7.01 14.089 14.089 0 014.912-5.276 18.315 18.315 0 0110.145-2.448c2.223.04 4.439.241 6.631.605.986.2 1.982.338 2.984.416.455 0 .531.189.531.454a50.674 50.674 0 00-.265 6.171c0 .605-.114.794-.417.794s-.341-.19-.379-.491a5.266 5.266 0 00-1.279-3.12c-1.137-1.2-4.149-2.939-8.412-2.939a10.892 10.892 0 00-7.474 2.335c-2.113 1.767-3.477 4.593-3.477 9.224 0 8.09 5.173 14.176 13.13 14.176a8.391 8.391 0 003.211-.416 1.344 1.344 0 00.72-1.398v-8.024c0-1.286-.379-1.89-1.62-2.146a7.832 7.832 0 00-1.468-.113c-.341 0-.569-.076-.569-.302 0-.227.266-.378.796-.378 1.961 0 4.339.113 5.466.113 1.127 0 3.173-.113 4.414-.113.493 0 .758.075.758.378 0 .302-.227.302-.492.302a6.005 6.005 0 00-1.023.113c-1.023.19-1.393.832-1.431 2.146v8.657m9.151-12.428v-6.776c0-1.02-.379-1.427-1.431-1.73a6.013 6.013 0 00-1.288-.113c-.379 0-.568-.114-.568-.34 0-.227.227-.303.72-.303 1.771 0 3.997.076 4.982.076.834 0 3.06-.076 4.263-.076.493 0 .72.076.72.303 0 .226-.189.34-.53.34a4.645 4.645 0 00-.948.113c-.871.151-1.136.605-1.212 1.73-.076 1.125-.076 1.89-.076 6.776v4.48c0 4.669.947 6.474 2.529 7.75a6.406 6.406 0 004.187 1.275 6.32 6.32 0 004.453-1.691c1.894-1.73 1.894-4.518 1.894-7.788v-4.026c0-4.858 0-5.756-.076-6.776-.075-1.02-.341-1.427-1.392-1.73a5.757 5.757 0 00-1.203-.113c-.379 0-.569-.114-.569-.34 0-.227.228-.303.682-.303 1.696 0 3.922.076 3.96.076.379 0 2.605-.076 3.884-.076.455 0 .682.076.682.303 0 .226-.189.34-.568.34a4.673 4.673 0 00-.948.113c-.947.151-1.127.605-1.203 1.73-.075 1.125-.075 1.89-.075 6.776v3.421c0 3.582-.379 7.344-3.174 9.64a10.36 10.36 0 01-7.142 2.297c-1.734 0-5.173-.076-7.579-2.183-1.695-1.465-3.022-3.837-3.022-8.506v-4.726m32.227 6.947c-.189 0-.227 0-.303.226l-1.771 4.291a5.766 5.766 0 00-.493 1.956c0 .568.303.946 1.317.946h.464c.417 0 .493.15.493.34 0 .189-.19.34-.531.34-1.089 0-2.643-.113-3.694-.113-.341 0-2.113.113-3.846.113-.417 0-.606-.076-.606-.34a.328.328 0 01.109-.259.329.329 0 01.27-.081h.947c1.506-.227 2.074-1.2 2.756-2.836l8.678-20.14c.379-.945.644-1.275.947-1.275.492 0 .644.302.947 1.01.796 1.768 6.338 14.867 8.45 19.725 1.279 2.901 2.226 3.308 2.842 3.421.413.07.831.108 1.25.113.303 0 .455.114.455.34 0 .265-.189.34-1.43.34-1.241 0-3.591 0-6.376-.075-.606 0-.947 0-.947-.264 0-.265.076-.303.417-.34a.501.501 0 00.303-.719l-2.567-6.436a.315.315 0 00-.341-.227h-7.806l.066-.056zm7.096-1.749c.151 0 .189-.075.151-.189l-3.135-8.128c0-.113-.076-.302-.152-.302s-.151.189-.189.302l-3.212 8.09c-.075.152 0 .227.114.227h6.423zm18.396-5.141v-6.776c0-1.02-.379-1.427-1.431-1.73a6.156 6.156 0 00-1.316-.113c-.341 0-.569-.114-.569-.34 0-.227.266-.303.758-.303 1.734 0 3.846.076 4.528.076 1.128 0 4.149-.076 5.172-.076 2.113 0 4.528.19 6.3 1.352a5.597 5.597 0 012.34 4.404c0 2.372-1.355 4.48-4.604 7.079 2.946 3.61 5.286 6.511 7.285 8.505 1.894 1.89 3.021 1.994 3.542 2.108.261.059.529.084.796.075a.39.39 0 01.417.34c0 .265-.227.34-.644.34h-3.174a7.212 7.212 0 01-3.618-.642c-1.431-.718-2.681-2.22-4.528-4.725-1.317-1.73-2.719-3.875-3.136-4.366a.762.762 0 00-.606-.227l-2.984-.076a.238.238 0 00-.255.158.24.24 0 00-.01.107v.453c0 2.968 0 5.454.189 6.815.114.945.265 1.54 1.279 1.691.537.073 1.078.11 1.62.114a.39.39 0 01.417.34c0 .227-.266.34-.682.34-1.895 0-4.68-.113-5.173-.113-.644 0-2.756.113-4.073.113-.417 0-.644-.113-.644-.34 0-.227.114-.34.53-.34.392.009.783-.03 1.166-.114.682-.151.871-.756.947-1.691.151-1.352.151-3.875.151-6.815v-5.67l.01.047zm4.215 2.438c0 .34.076.454.303.568a9.15 9.15 0 002.53.302 3.348 3.348 0 002.339-.53 5.415 5.415 0 002.151-4.725c0-4.517-3.098-5.67-5.059-5.67a11.972 11.972 0 00-1.961.113c-.227.076-.303.19-.303.454v9.488zm25.236-2.438v-6.776c0-1.02-.379-1.427-1.43-1.73a6.172 6.172 0 00-1.317-.113c-.341 0-.568-.114-.568-.34 0-.227.265-.303.757-.303 1.734 0 3.846.076 4.794.076.947 0 3.391-.076 5.399-.076 4.149 0 9.738 0 13.357 3.648a11.192 11.192 0 013.135 8.128 12.404 12.404 0 01-3.618 8.922c-1.506 1.502-5.021 3.78-11.131 3.78-1.203 0-2.643-.113-3.959-.189-1.317-.076-2.53-.189-3.363-.189H250.1c-.805 0-1.62.076-2.302.076-.417 0-.644-.114-.644-.34 0-.227.114-.34.531-.34.391.008.782-.03 1.165-.114.682-.151.871-.756.947-1.692.152-1.351.152-3.875.152-6.814v-5.67l-.01.056zm4.462 3.478c0 3.383 0 5.831.076 6.474-.025.77.104 1.538.378 2.259.417.605 1.734 1.276 4.339 1.276 3.022 0 5.248-.53 7.247-2.184 2.15-1.767 2.842-4.63 2.842-7.938 0-4.064-1.62-6.701-3.098-7.977a13.415 13.415 0 00-9.283-3.053 7.028 7.028 0 00-2.037.227.556.556 0 00-.417.643v6.247l-.047 4.026z" fill="#17562F"/><path d="M.897 0v79" stroke="#17562F" stroke-width="1.29" stroke-miterlimit="2"/></svg><svg fill="none" viewBox="0 0 25 21" id="menu" xmlns="http://www.w3.org/2000/svg"><path d="M25 1.125C25 .5 24.583.083 23.958.083H1.042C.417.083 0 .5 0 1.125v2.083C0 3.833.417 4.25 1.042 4.25h22.916c.625 0 1.042-.417 1.042-1.042V1.125zm0 8.333c0-.625-.417-1.042-1.042-1.042H1.042C.417 8.416 0 8.833 0 9.458v2.083c0 .625.417 1.042 1.042 1.042h22.916c.625 0 1.042-.417 1.042-1.042V9.458zm0 8.333c0-.625-.278-1.041-.694-1.041H9.028c-.417 0-.695.416-.695 1.041v2.084c0 .625.278 1.041.695 1.041h15.278c.416 0 .694-.416.694-1.041V17.79z" fill="#009344"/></svg><svg fill="none" viewBox="0 0 13 11" id="telegram" xmlns="http://www.w3.org/2000/svg"><path d="M12.8.301A.844.844 0 0012.13 0c-.149 0-.306.031-.468.093L.658 4.294c-.584.223-.663.558-.658.737.005.18.103.51.698.699.004 0 .008.002.011.003l2.283.653 1.234 3.53c.168.482.546.78.986.78.278 0 .55-.115.79-.335l1.411-1.3 2.048 1.649.02.016.006.004c.227.177.476.27.718.27.475 0 .852-.351.962-.894l1.803-8.904c.073-.358.012-.677-.17-.9zM3.754 6.262l4.404-2.25-2.742 2.914a.38.38 0 00-.092.17l-.53 2.142-1.04-2.976zM5.485 9.8a.722.722 0 01-.055.046l.49-1.987.893.718L5.485 9.8zm6.739-8.75L10.42 9.955c-.018.085-.073.283-.216.283a.444.444 0 01-.25-.108l-2.32-1.869-1.381-1.112 3.965-4.214a.38.38 0 00-.45-.6L3.245 5.666.933 5.005l11-4.2a.558.558 0 01.197-.043c.023 0 .064.003.08.022.02.024.046.108.014.266z" fill="#009344"/></svg><svg fill="none" viewBox="0 0 11 11" id="whatsapp" xmlns="http://www.w3.org/2000/svg"><path d="M9.459 1.588C8.395.53 7.035 0 5.557 0 2.542 0 .06 2.412.06 5.47c0 .942.237 1.942.71 2.765L0 11l2.897-.706c.768.47 1.714.647 2.601.647 3.015 0 5.498-2.412 5.498-5.47.06-1.412-.532-2.824-1.537-3.883zm-3.902 8.47a4.757 4.757 0 01-2.365-.646l-.118-.118-1.773.47.473-1.646L1.655 8c-.414-.765-.65-1.588-.65-2.47C.945 3.058 3.015.94 5.557.94c1.242 0 2.365.47 3.252 1.353.827.824 1.36 2 1.36 3.235 0 2.471-2.07 4.53-4.612 4.53zM8.1 6.649c-.118-.06-.827-.413-.946-.472-.118-.058-.236-.058-.295.06-.119.117-.355.47-.473.529-.118.117-.118.117-.296.059-.177-.06-.532-.236-1.123-.706a3.689 3.689 0 01-.769-.942c-.118-.117 0-.235.06-.294l.236-.235c.06-.059.118-.118.118-.176.06-.118.06-.118 0-.236 0-.117-.295-.764-.414-1.059-.118-.235-.236-.235-.295-.235h-.237a.64.64 0 00-.414.177c-.118.117-.472.47-.472 1.176s.532 1.353.532 1.412c.059.118.946 1.47 2.364 2.059.296.117.592.235.769.294.295.117.65.117.828.059.236-.06.827-.353.945-.647.119-.295.119-.589.119-.647-.06-.06-.178-.118-.237-.177z" fill="#009344"/></svg></svg>