<svg viewBox="0 0 586.282 512" xmlns="http://www.w3.org/2000/svg" xmlns:xlink="http://www.w3.org/1999/xlink"><style>:root&gt;svg{display:none}:root&gt;svg:target{display:block}</style><svg viewBox="0 0 384 192" id="arrow-open" xmlns="http://www.w3.org/2000/svg"><path d="M192 156L36 0H0l192 192L384 0h-36L192 156z"/></svg><svg viewBox="-49 141 512 512" id="call1" xmlns="http://www.w3.org/2000/svg"><path d="M356.38 653c13.54.06 27.03-1.7 40.11-5.24a61.075 61.075 0 0036.18-27.88l26.06-43.32c8.3-13.79 4.28-31.67-9.12-40.58l-103.65-69.12c-13.15-8.7-30.78-5.84-40.51 6.58l-30.19 38.82c-3.88 5.12-10.93 6.6-16.55 3.48l-5.74-3.17c-19.04-10.38-42.73-23.3-90.45-71.04s-60.67-71.45-71.05-90.45l-3.15-5.74c-3.16-5.61-1.7-12.7 3.41-16.61l38.79-30.18c12.41-9.73 15.28-27.35 6.59-40.51L68 154.4c-8.91-13.4-26.78-17.42-40.57-9.13l-43.34 26.04a61.143 61.143 0 00-27.88 36.18c-15.61 56.87-3.87 155.01 140.71 299.6C211.92 622.08 297.54 653 356.38 653zM-27.33 212a44.145 44.145 0 0120.2-26.06l43.34-26c5.98-3.6 13.74-1.86 17.6 3.96l37.55 56.37 31.51 47.27c3.77 5.71 2.53 13.36-2.85 17.58l-38.8 30.18c-11.81 9.03-15.18 25.37-7.91 38.33l3.08 5.6c10.91 20 24.47 44.89 73.97 94.38s74.38 63.05 94.37 73.96l5.61 3.09c12.97 7.27 29.3 3.9 38.33-7.91l30.18-38.8c4.22-5.38 11.87-6.62 17.58-2.85l103.64 69.12c5.82 3.86 7.56 11.62 3.96 17.6l-26 43.34A44.104 44.104 0 01392 631.33c-52.5 14.41-144.21 2.47-283.01-136.32S-41.74 264.5-27.33 212zm268.46 14.33c80.08.09 144.98 64.99 145.07 145.07 0 4.71 3.82 8.53 8.53 8.53 4.71 0 8.53-3.82 8.53-8.53-.1-89.5-72.63-162.03-162.13-162.13-4.71 0-8.53 3.82-8.53 8.53s3.82 8.53 8.53 8.53z"/><path d="M241.13 277.53c51.82.06 93.81 42.05 93.87 93.87 0 4.71 3.82 8.53 8.53 8.53s8.53-3.82 8.53-8.53c-.07-61.24-49.7-110.86-110.93-110.93-4.71 0-8.53 3.82-8.53 8.53s3.82 8.53 8.53 8.53z"/><path d="M241.13 328.73c23.55.03 42.64 19.11 42.67 42.67 0 4.71 3.82 8.53 8.53 8.53s8.53-3.82 8.53-8.53c-.04-32.97-26.76-59.7-59.73-59.73-4.71 0-8.53 3.82-8.53 8.53s3.82 8.53 8.53 8.53z"/></svg><svg viewBox="-49 141 512 512" id="call2" xmlns="http://www.w3.org/2000/svg"><path d="M356.38 653c13.54.06 27.03-1.7 40.11-5.24a61.075 61.075 0 0036.18-27.88l26.06-43.32c8.3-13.79 4.28-31.67-9.12-40.58l-103.65-69.12c-13.15-8.7-30.78-5.84-40.51 6.58l-30.19 38.82c-3.88 5.12-10.93 6.6-16.55 3.48l-5.74-3.17c-19.04-10.38-42.73-23.3-90.45-71.04s-60.67-71.45-71.05-90.45l-3.15-5.74c-3.16-5.61-1.7-12.7 3.41-16.61l38.79-30.18c12.41-9.73 15.28-27.35 6.59-40.51L68 154.4c-8.91-13.4-26.78-17.42-40.57-9.13l-43.34 26.04a61.143 61.143 0 00-27.88 36.18c-15.61 56.87-3.87 155.01 140.71 299.6C211.92 622.08 297.54 653 356.38 653zM241.13 226.33c80.08.09 144.98 64.99 145.07 145.07 0 4.71 3.82 8.53 8.53 8.53 4.71 0 8.53-3.82 8.53-8.53-.1-89.5-72.63-162.03-162.13-162.13-4.71 0-8.53 3.82-8.53 8.53s3.82 8.53 8.53 8.53z"/><path d="M241.13 277.53c51.82.06 93.81 42.05 93.87 93.87 0 4.71 3.82 8.53 8.53 8.53s8.53-3.82 8.53-8.53c-.07-61.24-49.7-110.86-110.93-110.93-4.71 0-8.53 3.82-8.53 8.53s3.82 8.53 8.53 8.53z"/><path d="M241.13 328.73c23.55.03 42.64 19.11 42.67 42.67 0 4.71 3.82 8.53 8.53 8.53s8.53-3.82 8.53-8.53c-.04-32.97-26.76-59.7-59.73-59.73-4.71 0-8.53 3.82-8.53 8.53s3.82 8.53 8.53 8.53z"/></svg><svg viewBox="2.2 191.99 409.81 409.81" id="close" xmlns="http://www.w3.org/2000/svg"><path d="M7.2 596.8c6.66 6.66 17.47 6.66 24.13 0L207 421.13 382.67 596.8c6.78 6.55 17.58 6.36 24.13-.42 6.39-6.61 6.39-17.1 0-23.71L231.13 397 406.8 221.33c6.78-6.55 6.97-17.35.42-24.13s-17.35-6.97-24.13-.42l-.42.42L207 372.87 31.33 197.2c-6.78-6.55-17.58-6.36-24.13.42-6.39 6.61-6.39 17.1 0 23.71L182.87 397 7.2 572.67c-6.66 6.66-6.66 17.46 0 24.13z"/></svg><svg viewBox="-49 237 512 352" id="mail" xmlns="http://www.w3.org/2000/svg"><path d="M463 301.9v222.84L290.39 415.62zM123.61 415.62L-49 524.74V301.9zm338.43-151.39C459.64 248.9 446.97 237 431 237H-17c-15.97 0-28.64 11.9-31.04 27.23L207 432.26l255.04-168.03zM215.8 464.78c-2.69 1.76-5.73 2.62-8.8 2.62s-6.11-.86-8.8-2.62l-45.28-29.86-200.9 127.07C-45.51 577.19-32.9 589-17 589h448c15.9 0 28.51-11.81 30.98-27.01l-200.9-127.04-45.28 29.83z"/></svg><svg viewBox="0 0 253.87 173.99" id="menu" xmlns="http://www.w3.org/2000/svg"><path d="M245.93 19.25c4.38 0 7.93-4.31 7.93-9.62S250.31 0 245.93 0h-238C3.56 0 0 4.31 0 9.63c0 5.31 3.56 9.62 7.93 9.62h238zM6.75 77.37C3.03 77.37 0 81.68 0 86.99s3.03 9.63 6.75 9.63h202.51c3.73 0 6.75-4.31 6.75-9.63 0-5.31-3.02-9.62-6.75-9.62H6.75zm1.18 77.37c-4.38 0-7.93 4.31-7.93 9.62s3.56 9.63 7.93 9.63H166.6c4.38 0 7.93-4.31 7.93-9.63 0-5.31-3.56-9.62-7.93-9.62H7.93zm0 0"/></svg><svg version="1.1" id="metro" x="0" y="0" viewBox="0 0 115.41 79.36" xml:space="preserve" xmlns="http://www.w3.org/2000/svg"><path d="M107.49 68.29L80.47 0 57.71 39.89 34.95 0 7.93 68.29H0v10.3h40.8v-10.3h-6.1l5.94-17.02 17.07 28.09 17.06-28.09 5.95 17.02h-6.11v10.3h40.8v-10.3z" fill-rule="evenodd" clip-rule="evenodd" fill="#d9252e"/></svg><svg viewBox="0 0 409.602 335.239" id="twitter1" xmlns="http://www.w3.org/2000/svg"><path d="M409.602 44.77c-25.766 1.188-25.204 1.09-28.118 1.336l15.258-43.578s-47.629 17.519-59.703 20.656C305.324-5.32 258.188-6.578 224.488 14.133c-27.597 16.965-42.41 46.102-37.468 80.153-53.711-7.453-98.965-32.91-134.692-75.832L41.027 4.883l-8.441 15.508c-10.672 19.594-14.219 41.996-9.984 63.078a90.595 90.595 0 008.781 24.625l-9.692-3.754-1.152 16.196c-1.164 16.453 4.313 35.66 14.656 51.371a91.328 91.328 0 0011.418 14.078l-5.011-.766 6.113 18.559c8.035 24.383 24.723 43.25 46.379 53.738-21.629 9.176-39.102 15.031-67.821 24.481L0 290.633l24.27 13.27c9.253 5.058 41.949 21.957 74.253 27.023 71.813 11.262 152.668 2.09 207.098-46.929 45.848-41.293 60.891-100.028 57.766-161.149-.473-9.254 2.062-18.082 7.136-24.863 10.168-13.57 39.016-53.125 39.079-53.215z" fill="#39a9e0"/></svg><svg viewBox="0 0 586.282 115.344" id="twitter2" xmlns="http://www.w3.org/2000/svg"><path d="M465.427 115.122V91.941c3.149.222 6.358-.033 9.25-.538 7.5-1.401 13.901-7.2 21.8-5.801 5.7.5 9.4 7.601 6.9 12.5-3.6 8.5-12.6 13.101-21.2 14.801-5.4 1.394-11.095 2.213-16.75 2.219zm0-32.042V63.977c4.925-.05 9.85-.175 14.75-.375-2.788-5.427-8.775-8.102-14.75-8.062V35.034c10.977.157 21.847 3.323 30.45 10.268 8.9 7.2 14.1 19 12 30.4-1.5 4.899-7.1 6.8-11.799 7-10.193.604-20.429.398-30.651.378zm107.75-48.078c-8.5-.4-17.099-.3-25.599.6-17.401 1.601-32.601 17.101-34 34.5-.901 11.5-.901 23 .099 34.5.5 4.5 4.7 7.5 8.401 9.601 8 3.5 17.599-3.8 18-12.101.399-10-.301-20 .5-29.899.799-5.3 5.299-9.5 10.599-9.901 8.2-.5 16.401-.2 24.6-.899 4.6-.401 7.5-4.601 9.6-8.301 3.5-8-3.7-17.8-12.2-18.1zm-327.6 4.5c-5.6.701-11.3 4.7-12 10.7-.9 16.6-.6 33.2-.2 49.799-1.2 8.701 7.9 16.701 16.4 14.5 6.6-.9 11.8-7 12.2-13.5.5-16.5.8-33.099-.4-49.599-.9-7.3-8.6-13.3-16-11.9zm219.85-4.468V55.54c-6.025.04-12.038 2.84-14.75 8.362 4.9.1 9.825.125 14.75.075V83.08c-5.023-.01-10.042.025-15.05.222 2.854 5.907 8.836 8.201 15.05 8.638v23.181c-10.156.01-20.185-2.603-28.15-9.219-14.8-10-19.9-30.801-13.3-47 3.7-9.601 11.5-17.5 21.2-20.801 6.437-2.08 13.365-3.165 20.25-3.067zm-249.45.268c-6.4-3.2-14.5 1.2-17.1 7.4-3.3 10.399-.9 21.599-1.9 32.3 1.6 7.9-7.2 13.999-14.4 12.499-4.9-.299-8.5-4.299-10-8.7-2.6-13.2 3.6-28.7-4.6-40.6-3.5-2.3-7.8-4.9-12.2-3.7-5.9 1.2-10.8 6.5-11.5 12.5-.4 10.3.3 20.6-.5 30.8-.8 4.9-4.9 9.3-10 9.7-7.7 1.701-14.9-5.099-15.5-12.499-.6-10.8.6-21.6-.8-32.3-2.8-5.5-9.6-10.2-16-7.9-7 .901-10.7 8.8-10.2 15.2-.3 12-1 24.3 1.7 36.099 5.1 18.801 25.4 31.7 44.6 28.301 7.7-.801 14.1-5.301 20.6-9.2 7.8 5.599 17 10.299 27 9.7 20.1.3 38.3-17.101 39.8-37 .6-10.801.7-21.601-.4-32.301-.5-4.799-4.3-8.499-8.6-10.299zm165.5 48.401c-4.6-2.8-4.2-9.101-4.899-13.7 9.799 0 19.599.4 29.399-.401 6.5-.8 10-7.1 10.8-12.899.7-7-4.6-13.601-11.199-15-10.101-1.2-20.201-.7-30.301-.8-.1-10.101.4-20.301-.699-30.5-.601-3.9-3.901-6.7-7.101-8.7-5.399-3.101-12.399-1-17.1 2.5-3.299 4.5-4.7 10.2-4.5 15.8-1.2 14.4.201 28.8 1.1 43.2 1.7 13.2 3.101 27.501 11.5 38.5 11.601 13.599 31.4 15.299 47.9 12.5 9.1-2.5 13.701-14.3 7.9-22.3-8-10.301-22.5-2.801-32.8-8.2zm-74.6.599c-5.299-2.399-5.5-9.299-6.5-14.099 8.6-.101 17.201.1 25.8-.4 7.2 1 14.3-5.1 14.5-12.2 1.401-7.3-4.3-14.3-11.099-15.899-10.101-1.2-20.201-.7-30.301-.8-.199-10.7.6-21.5-.9-32.101-3.299-8.899-16.5-11.6-23-4.599-6.3 4.8-4.7 13.899-5.3 20.8.1 23-.8 47.3 8 69 7.4 17.8 28.7 23 46.1 20.901 7.3.599 15-4.101 16.401-11.601 1.299-5.2-1.101-10.3-4.401-14.3-8.7-5.502-20-1.002-29.3-4.702zm-69-59c6.9 7.2 21.1 3.7 23.3-6.3 3.6-9.9-6.4-21.3-16.6-18.6-11.2 1.4-15.8 18.2-6.7 24.9zm-162.9 61.101c-11.4-.901-22.9.099-34.4-.901-5.5-.599-10-5.499-11-10.799-.7-5.5-.4-11.1-.6-16.7 15.3-.2 30.6.7 45.8-.5 7.4-1.2 13.1-9.8 10.9-17.099-.7-5.801-5.9-10.301-11.5-11.2-14.9-.7-29.9-.101-44.8-.2-.1-5.901-.1-11.9-.6-17.8-1.1-7.5-9.7-12.7-16.9-10.6-7.9 1.2-12.9 9.801-11.7 17.4 0 18.3-.4 36.7.2 55-.1 17.9 12.8 34.8 29.9 40 11.3 3.5 23.3 1.901 34.9 2.1 6.3 0 14.3.2 17.9-6.199 6.7-7.403 1.8-21.002-8.1-22.502z" fill-rule="evenodd" clip-rule="evenodd" fill="#39aae1"/></svg></svg>