<svg viewBox="0 0 160 58" xmlns="http://www.w3.org/2000/svg" xmlns:xlink="http://www.w3.org/1999/xlink"><style>:root&gt;svg{display:none}:root&gt;svg:target{display:block}</style><svg fill="none" viewBox="0 0 36 21" id="arrow-left" xmlns="http://www.w3.org/2000/svg"><path d="M35.41 9.505h-32v2h32v-2z" fill="#000"/><path d="M11.41 19.505l-9-9 9-9" stroke="#000" stroke-width="2" stroke-miterlimit="10"/></svg><svg fill="none" viewBox="0 0 35 21" id="arrow-right" xmlns="http://www.w3.org/2000/svg"><g clip-path="url(#bclip0)"><path d="M.41 11.7h32v-2h-32v2z" fill="#000"/><path d="M24.41 1.7l9 9-9 9" stroke="#000" stroke-width="2" stroke-miterlimit="10"/></g><defs><clipPath id="bclip0"><path fill="#fff" transform="rotate(-180 17.5 10.5)" d="M0 0h35v21H0z"/></clipPath></defs></svg><svg fill="none" viewBox="0 0 160 58" id="logo" xmlns="http://www.w3.org/2000/svg"><path d="M34.28 18l7.657-16.92h1.776L51.367 18h-2.04l-1.968-4.44h-9.143L36.225 18H34.28zm4.68-6.144h7.657L42.8 3.288l-3.84 8.568zm24.232 6.408c-2.128 0-3.824-.632-5.088-1.896-1.264-1.28-1.896-3.08-1.896-5.4V1.2h1.896v9.648c0 1.808.448 3.208 1.344 4.2.912.976 2.176 1.464 3.792 1.464 1.584 0 2.824-.472 3.72-1.416.896-.944 1.344-2.32 1.344-4.128V1.2H70.2v9.624c0 2.4-.632 4.24-1.896 5.52-1.264 1.28-2.968 1.92-5.112 1.92zM77.083 18V1.2h5.832c2.624 0 4.768.8 6.432 2.4 1.664 1.584 2.496 3.584 2.496 6 0 2.4-.84 4.4-2.52 6-1.664 1.6-3.8 2.4-6.408 2.4h-5.832zm1.896-1.752h3.936c2.096 0 3.776-.624 5.04-1.872 1.28-1.264 1.92-2.856 1.92-4.776 0-1.904-.64-3.488-1.92-4.752-1.28-1.264-2.96-1.896-5.04-1.896h-3.936v13.296zM98.424 18V1.2h1.896V18h-1.895zm23.185-2.256c-1.616 1.696-3.672 2.544-6.168 2.544s-4.544-.848-6.144-2.544c-1.6-1.696-2.4-3.744-2.4-6.144 0-2.384.808-4.424 2.424-6.12 1.616-1.712 3.672-2.568 6.168-2.568s4.544.848 6.144 2.544c1.6 1.696 2.4 3.744 2.4 6.144 0 2.384-.808 4.432-2.424 6.144zm-10.872-1.224c1.264 1.344 2.848 2.016 4.752 2.016s3.472-.664 4.704-1.992c1.248-1.344 1.872-2.992 1.872-4.944 0-1.936-.632-3.576-1.896-4.92-1.248-1.344-2.824-2.016-4.728-2.016s-3.48.672-4.728 2.016c-1.232 1.328-1.848 2.968-1.848 4.92 0 1.936.624 3.576 1.872 4.92zM160 29H0v-2h160v2zM42.2 57.24c-2.577 0-4.865-.896-6.865-2.688l1.176-1.392c.896.816 1.792 1.416 2.688 1.8.912.384 1.936.576 3.072.576 1.12 0 2.024-.264 2.712-.792.688-.544 1.032-1.248 1.032-2.112 0-.816-.304-1.464-.912-1.944-.608-.48-1.76-.896-3.456-1.248-2-.432-3.44-1.016-4.32-1.752-.88-.736-1.32-1.784-1.32-3.144 0-1.328.52-2.424 1.56-3.288 1.04-.864 2.36-1.296 3.96-1.296 2.224 0 4.192.688 5.904 2.064l-1.104 1.464c-1.488-1.216-3.104-1.824-4.848-1.824-1.072 0-1.936.264-2.592.792-.656.512-.984 1.168-.984 1.968 0 .832.312 1.488.936 1.968.64.48 1.848.912 3.624 1.296 1.904.416 3.288 1 4.152 1.752.88.736 1.32 1.752 1.32 3.048 0 1.424-.536 2.576-1.608 3.456-1.072.864-2.448 1.296-4.128 1.296zM54.19 57V40.2h1.897v7.464h9.696V40.2h1.896V57h-1.896v-7.56h-9.696V57H54.19zm20.635 0V40.2H86.97v1.728H76.721v5.736h9.168v1.728h-9.168v5.88H87.09V57H74.825zm18.478 0V40.2H95.2v15.048h9.456V57H93.303zm17.26 0V40.2h12.072v1.752h-10.176v6h9.096v1.728h-9.096V57h-1.896zM8 29h4.5l-2.25 4L8 29zm139.5 0h4.5l-2.25 4-2.25-4z" fill="#000"/></svg><svg fill="none" viewBox="0 0 129 14" id="logo-text" xmlns="http://www.w3.org/2000/svg"><path d="M.954 12.846l-.032.07H2.39l.013-.03 1.378-3.07h6.321l1.361 3.07.014.03h1.534l-.031-.07L7.632 1.029 7.619 1H6.315l-.014.03L.954 12.846zm16.648-1.084h0c.894.894 2.093 1.339 3.59 1.339 1.507 0 2.711-.45 3.605-1.356.895-.906 1.338-2.205 1.338-3.89V1.084h-1.423v6.871c0 1.255-.31 2.202-.924 2.849-.615.647-1.466.973-2.562.973-1.118 0-1.986-.337-2.612-1.006-.614-.68-.925-1.645-.925-2.9V1.085h-1.425v6.87c0 1.63.444 2.901 1.338 3.807zm13.24 1.104v.05h4.123c1.833 0 3.338-.562 4.51-1.69C40.66 10.1 41.251 8.69 41.251 7c0-1.7-.587-3.11-1.759-4.226-1.173-1.128-2.683-1.69-4.527-1.69h-4.123v11.782zm1.425-1.273V2.407h2.698c1.442 0 2.602.438 3.485 1.31.884.873 1.326 1.966 1.326 3.283 0 1.329-.442 2.427-1.326 3.3-.872.86-2.031 1.293-3.485 1.293h-2.698zm13.48 1.273v.05h1.423V1.084h-1.423v11.782zm16.278-1.54h0C63.162 10.12 63.73 8.677 63.73 7c0-1.688-.563-3.131-1.69-4.325C60.914 1.48 59.471.882 57.715.882c-1.756 0-3.205.603-4.344 1.81-1.137 1.194-1.706 2.63-1.706 4.308 0 1.688.563 3.131 1.69 4.325 1.127 1.195 2.57 1.793 4.327 1.793 1.756 0 3.205-.598 4.344-1.793zm-1.079-7.728h0c.874.93 1.31 2.062 1.31 3.402 0 1.352-.43 2.49-1.293 3.419l.036.034-.036-.034c-.85.916-1.932 1.375-3.249 1.375-1.316 0-2.409-.464-3.282-1.392C53.57 9.473 53.138 8.34 53.138 7c0-1.352.426-2.485 1.278-3.402.861-.928 1.948-1.392 3.265-1.392 1.316 0 2.403.464 3.265 1.392zM9.538 8.526H4.346L6.95 2.714l2.588 5.812zm57.456 2.565l-.031.037.036.033c1.405 1.259 3.015 1.89 4.827 1.89 1.182 0 2.155-.305 2.914-.917h0c.761-.624 1.142-1.443 1.142-2.452 0-.918-.312-1.642-.94-2.167-.612-.533-1.588-.943-2.921-1.234h0c-1.24-.268-2.074-.568-2.511-.896-.423-.325-.634-.768-.634-1.335 0-.543.221-.986.668-1.335h0c.447-.36 1.039-.542 1.78-.542 1.204 0 2.322.42 3.353 1.262l.04.033.032-.042.77-1.022.03-.039-.038-.03c-1.204-.968-2.59-1.453-4.154-1.453-1.127 0-2.061.305-2.798.917-.737.613-1.108 1.392-1.108 2.335 0 .961.312 1.709.94 2.234.624.522 1.64.932 3.039 1.234h0c1.184.246 1.978.535 2.393.862.412.325.618.763.618 1.318 0 .588-.233 1.065-.701 1.436-.47.36-1.09.543-1.864.543-.787 0-1.496-.134-2.126-.399-.62-.265-1.24-.68-1.863-1.248l-.038-.035-.034.04-.821.972zm13.157 1.742v.05h1.424v-5.28h6.671v5.28h1.424V1.05h-1.424v5.213h-6.671V1.05H80.15v11.783zm14.41 0v.05h8.665v-1.307h-7.24V7.57h6.402V6.263h-6.403V2.357h7.157V1.05h-8.58v11.783zm12.905 0v.05h8.028v-1.324h-6.604V1.05h-1.424v11.783zm12.054 0v.05h1.424V7.77h6.352V6.464h-6.352v-4.09h7.106V1.05h-8.53v11.783z" fill="#000" stroke="#000" stroke-width=".1"/></svg><svg fill="none" viewBox="0 0 37 52" id="scroll" xmlns="http://www.w3.org/2000/svg"><rect x=".5" width="36" height="52" rx="18" fill="#fff"/><path d="M18.5 36v16" stroke="#000"/></svg><svg fill="none" viewBox="0 0 28 32" id="sound" xmlns="http://www.w3.org/2000/svg"><path d="M1 32V0m13 32V6m13 26V9" stroke="#000" stroke-width="2"/></svg></svg>