<svg viewBox="0 0 160 58" xmlns="http://www.w3.org/2000/svg" xmlns:xlink="http://www.w3.org/1999/xlink"><style>:root&gt;svg{display:none}:root&gt;svg:target{display:block}</style><svg fill="none" viewBox="0 0 11 7" id="arrow-dropdown" xmlns="http://www.w3.org/2000/svg"><path fill-rule="evenodd" clip-rule="evenodd" d="M11 1.235L10.263.5 5.469 5.03l-.491-.49L.798.5 0 1.235C1.168 2.337 4.425 5.52 5.47 6.5c.737-.735 0 0 5.53-5.265z" fill="#000"/></svg><svg fill="none" viewBox="0 0 36 21" id="arrow-left" xmlns="http://www.w3.org/2000/svg"><path d="M35.41 9.505h-32v2h32v-2z" fill="#000"/><path d="M11.41 19.505l-9-9 9-9" stroke="#000" stroke-width="2" stroke-miterlimit="10"/></svg><svg fill="none" viewBox="0 0 35 21" id="arrow-right" xmlns="http://www.w3.org/2000/svg"><g clip-path="url(#cclip0)"><path d="M.41 11.7h32v-2h-32v2z" fill="#000"/><path d="M24.41 1.7l9 9-9 9" stroke="#000" stroke-width="2" stroke-miterlimit="10"/></g><defs><clipPath id="cclip0"><path fill="#fff" transform="rotate(-180 17.5 10.5)" d="M0 0h35v21H0z"/></clipPath></defs></svg><svg fill="none" viewBox="0 0 38 26" id="email" xmlns="http://www.w3.org/2000/svg"><path fill-rule="evenodd" clip-rule="evenodd" d="M35.75 2h-33v22h33V2zm-35-2v26h37V0h-37z" fill="#000"/><path fill-rule="evenodd" clip-rule="evenodd" d="M12.69 10.357L2.168 2.813l1.166-1.626 14.965 10.729a2 2 0 002.353-.016L35.156 1.195l1.188 1.61-10.206 7.531 5.051 4.95-1.4 1.428-5.28-5.175-2.67 1.97a4 4 0 01-4.706.032l-2.796-2.004-5.139 5.168-1.418-1.41 4.91-4.938z" fill="#000"/></svg><svg fill="none" viewBox="0 0 11 18" id="facebook" xmlns="http://www.w3.org/2000/svg"><path fill-rule="evenodd" clip-rule="evenodd" d="M4.333 15.666H6V10.5c0-.461.373-.834.833-.834H8.7l.37-1.333H6.834A.833.833 0 016 7.5V5.25c0-.873.748-1.583 1.667-1.583h1.666V2.333H7.667c-1.839 0-3.334 1.308-3.334 2.917V7.5c0 .46-.372.833-.833.833H1.833v1.333H3.5c.46 0 .833.373.833.834v5.166zm2.5 1.667H3.5a.833.833 0 01-.833-.833v-5.167H1a.833.833 0 01-.833-.833v-3c0-.461.372-.833.833-.833h1.667V5.25c0-2.527 2.242-4.583 5-4.583h2.5c.46 0 .833.372.833.833v3c0 .46-.373.833-.833.833h-2.5v1.333h2.5a.836.836 0 01.803 1.057l-.833 3c-.1.36-.43.61-.804.61H7.667V16.5c0 .46-.373.833-.834.833z" fill="#000"/></svg><svg fill="none" viewBox="0 0 18 18" id="instagram" xmlns="http://www.w3.org/2000/svg"><path fill-rule="evenodd" clip-rule="evenodd" d="M16.326 12.637c-.04.878-.186 1.354-.31 1.67a2.774 2.774 0 01-.673 1.036c-.315.316-.615.51-1.035.673-.317.124-.794.27-1.672.31-.948.043-1.233.053-3.636.053s-2.689-.01-3.637-.053c-.877-.04-1.353-.186-1.672-.31a2.786 2.786 0 01-1.034-.673 2.787 2.787 0 01-.673-1.035c-.124-.317-.27-.793-.31-1.67-.043-.95-.053-1.234-.053-3.637 0-2.404.01-2.689.053-3.637.04-.878.186-1.354.31-1.672.163-.42.358-.719.673-1.035a2.79 2.79 0 011.034-.673c.319-.124.795-.27 1.672-.31.95-.043 1.234-.052 3.637-.052s2.688.009 3.636.052c.878.04 1.355.186 1.672.31.42.164.72.358 1.034.673.316.316.511.615.674 1.035.124.318.27.794.31 1.672.043.948.053 1.233.053 3.637 0 2.403-.01 2.688-.053 3.636zm1.62-7.348c-.043-.957-.196-1.612-.419-2.185a4.397 4.397 0 00-1.037-1.593A4.4 4.4 0 0014.896.473C14.323.25 13.669.097 12.71.054 11.75.01 11.445 0 9 0S6.249.01 5.29.054C4.331.097 3.676.25 3.104.473A4.386 4.386 0 001.51 1.51 4.4 4.4 0 00.473 3.103C.25 3.677.097 4.332.053 5.29.011 6.25 0 6.555 0 9.001c0 2.444.01 2.75.053 3.71.044.958.197 1.612.42 2.185A4.395 4.395 0 001.51 16.49c.5.5 1.002.808 1.595 1.038.572.223 1.227.375 2.184.419.96.043 1.266.054 3.711.054s2.75-.01 3.71-.054 1.613-.196 2.186-.42a4.409 4.409 0 001.594-1.037c.5-.5.808-1.002 1.038-1.594.222-.573.375-1.227.418-2.185.044-.96.054-1.266.054-3.71 0-2.446-.01-2.751-.054-3.712z" fill="#000"/><path fill-rule="evenodd" clip-rule="evenodd" d="M9 12a3 3 0 11.002-6A3 3 0 019 12zm0-7.62a4.622 4.622 0 10.002 9.244A4.622 4.622 0 009 4.38zm6.017-.085a1.08 1.08 0 11-2.16 0 1.08 1.08 0 012.16 0z" fill="#000"/></svg><svg fill="none" viewBox="0 0 160 58" id="logo" xmlns="http://www.w3.org/2000/svg"><path d="M34.28 18l7.657-16.92h1.776L51.367 18h-2.04l-1.968-4.44h-9.143L36.225 18H34.28zm4.68-6.144h7.657L42.8 3.288l-3.84 8.568zm24.232 6.408c-2.128 0-3.824-.632-5.088-1.896-1.264-1.28-1.896-3.08-1.896-5.4V1.2h1.896v9.648c0 1.808.448 3.208 1.344 4.2.912.976 2.176 1.464 3.792 1.464 1.584 0 2.824-.472 3.72-1.416.896-.944 1.344-2.32 1.344-4.128V1.2H70.2v9.624c0 2.4-.632 4.24-1.896 5.52-1.264 1.28-2.968 1.92-5.112 1.92zM77.083 18V1.2h5.832c2.624 0 4.768.8 6.432 2.4 1.664 1.584 2.496 3.584 2.496 6 0 2.4-.84 4.4-2.52 6-1.664 1.6-3.8 2.4-6.408 2.4h-5.832zm1.896-1.752h3.936c2.096 0 3.776-.624 5.04-1.872 1.28-1.264 1.92-2.856 1.92-4.776 0-1.904-.64-3.488-1.92-4.752-1.28-1.264-2.96-1.896-5.04-1.896h-3.936v13.296zM98.424 18V1.2h1.896V18h-1.895zm23.185-2.256c-1.616 1.696-3.672 2.544-6.168 2.544s-4.544-.848-6.144-2.544c-1.6-1.696-2.4-3.744-2.4-6.144 0-2.384.808-4.424 2.424-6.12 1.616-1.712 3.672-2.568 6.168-2.568s4.544.848 6.144 2.544c1.6 1.696 2.4 3.744 2.4 6.144 0 2.384-.808 4.432-2.424 6.144zm-10.872-1.224c1.264 1.344 2.848 2.016 4.752 2.016s3.472-.664 4.704-1.992c1.248-1.344 1.872-2.992 1.872-4.944 0-1.936-.632-3.576-1.896-4.92-1.248-1.344-2.824-2.016-4.728-2.016s-3.48.672-4.728 2.016c-1.232 1.328-1.848 2.968-1.848 4.92 0 1.936.624 3.576 1.872 4.92zM160 29H0v-2h160v2zM42.2 57.24c-2.577 0-4.865-.896-6.865-2.688l1.176-1.392c.896.816 1.792 1.416 2.688 1.8.912.384 1.936.576 3.072.576 1.12 0 2.024-.264 2.712-.792.688-.544 1.032-1.248 1.032-2.112 0-.816-.304-1.464-.912-1.944-.608-.48-1.76-.896-3.456-1.248-2-.432-3.44-1.016-4.32-1.752-.88-.736-1.32-1.784-1.32-3.144 0-1.328.52-2.424 1.56-3.288 1.04-.864 2.36-1.296 3.96-1.296 2.224 0 4.192.688 5.904 2.064l-1.104 1.464c-1.488-1.216-3.104-1.824-4.848-1.824-1.072 0-1.936.264-2.592.792-.656.512-.984 1.168-.984 1.968 0 .832.312 1.488.936 1.968.64.48 1.848.912 3.624 1.296 1.904.416 3.288 1 4.152 1.752.88.736 1.32 1.752 1.32 3.048 0 1.424-.536 2.576-1.608 3.456-1.072.864-2.448 1.296-4.128 1.296zM54.19 57V40.2h1.897v7.464h9.696V40.2h1.896V57h-1.896v-7.56h-9.696V57H54.19zm20.635 0V40.2H86.97v1.728H76.721v5.736h9.168v1.728h-9.168v5.88H87.09V57H74.825zm18.478 0V40.2H95.2v15.048h9.456V57H93.303zm17.26 0V40.2h12.072v1.752h-10.176v6h9.096v1.728h-9.096V57h-1.896zM8 29h4.5l-2.25 4L8 29zm139.5 0h4.5l-2.25 4-2.25-4z" fill="#000"/></svg><svg fill="none" viewBox="0 0 129 14" id="logo-text" xmlns="http://www.w3.org/2000/svg"><path d="M.954 12.846l-.032.07H2.39l.013-.03 1.378-3.07h6.321l1.361 3.07.014.03h1.534l-.031-.07L7.632 1.029 7.619 1H6.315l-.014.03L.954 12.846zm16.648-1.084h0c.894.894 2.093 1.339 3.59 1.339 1.507 0 2.711-.45 3.605-1.356.895-.906 1.338-2.205 1.338-3.89V1.084h-1.423v6.871c0 1.255-.31 2.202-.924 2.849-.615.647-1.466.973-2.562.973-1.118 0-1.986-.337-2.612-1.006-.614-.68-.925-1.645-.925-2.9V1.085h-1.425v6.87c0 1.63.444 2.901 1.338 3.807zm13.24 1.104v.05h4.123c1.833 0 3.338-.562 4.51-1.69C40.66 10.1 41.251 8.69 41.251 7c0-1.7-.587-3.11-1.759-4.226-1.173-1.128-2.683-1.69-4.527-1.69h-4.123v11.782zm1.425-1.273V2.407h2.698c1.442 0 2.602.438 3.485 1.31.884.873 1.326 1.966 1.326 3.283 0 1.329-.442 2.427-1.326 3.3-.872.86-2.031 1.293-3.485 1.293h-2.698zm13.48 1.273v.05h1.423V1.084h-1.423v11.782zm16.278-1.54h0C63.162 10.12 63.73 8.677 63.73 7c0-1.688-.563-3.131-1.69-4.325C60.914 1.48 59.471.882 57.715.882c-1.756 0-3.205.603-4.344 1.81-1.137 1.194-1.706 2.63-1.706 4.308 0 1.688.563 3.131 1.69 4.325 1.127 1.195 2.57 1.793 4.327 1.793 1.756 0 3.205-.598 4.344-1.793zm-1.079-7.728h0c.874.93 1.31 2.062 1.31 3.402 0 1.352-.43 2.49-1.293 3.419l.036.034-.036-.034c-.85.916-1.932 1.375-3.249 1.375-1.316 0-2.409-.464-3.282-1.392C53.57 9.473 53.138 8.34 53.138 7c0-1.352.426-2.485 1.278-3.402.861-.928 1.948-1.392 3.265-1.392 1.316 0 2.403.464 3.265 1.392zM9.538 8.526H4.346L6.95 2.714l2.588 5.812zm57.456 2.565l-.031.037.036.033c1.405 1.259 3.015 1.89 4.827 1.89 1.182 0 2.155-.305 2.914-.917h0c.761-.624 1.142-1.443 1.142-2.452 0-.918-.312-1.642-.94-2.167-.612-.533-1.588-.943-2.921-1.234h0c-1.24-.268-2.074-.568-2.511-.896-.423-.325-.634-.768-.634-1.335 0-.543.221-.986.668-1.335h0c.447-.36 1.039-.542 1.78-.542 1.204 0 2.322.42 3.353 1.262l.04.033.032-.042.77-1.022.03-.039-.038-.03c-1.204-.968-2.59-1.453-4.154-1.453-1.127 0-2.061.305-2.798.917-.737.613-1.108 1.392-1.108 2.335 0 .961.312 1.709.94 2.234.624.522 1.64.932 3.039 1.234h0c1.184.246 1.978.535 2.393.862.412.325.618.763.618 1.318 0 .588-.233 1.065-.701 1.436-.47.36-1.09.543-1.864.543-.787 0-1.496-.134-2.126-.399-.62-.265-1.24-.68-1.863-1.248l-.038-.035-.034.04-.821.972zm13.157 1.742v.05h1.424v-5.28h6.671v5.28h1.424V1.05h-1.424v5.213h-6.671V1.05H80.15v11.783zm14.41 0v.05h8.665v-1.307h-7.24V7.57h6.402V6.263h-6.403V2.357h7.157V1.05h-8.58v11.783zm12.905 0v.05h8.028v-1.324h-6.604V1.05h-1.424v11.783zm12.054 0v.05h1.424V7.77h6.352V6.464h-6.352v-4.09h7.106V1.05h-8.53v11.783z" fill="#000" stroke="#000" stroke-width=".1"/></svg><svg fill="none" viewBox="0 0 20 20" id="phone" xmlns="http://www.w3.org/2000/svg"><g clip-path="url(#iclip0)"><mask id="ia" maskUnits="userSpaceOnUse" x="0" y="-1" width="20" height="20"><path d="M0-1h20v20H0V-1z" fill="#000"/></mask><g mask="url(#ia)"><path d="M2.285 8.7c2.056 3.282 4.706 5.66 8.183 7.418a4.24 4.24 0 00-.122-.625c-.709-1.739.222-2.963 1.37-4.04a8.025 8.025 0 012.205-1.49c.841-.37 1.666-.022 2.35.597 1.021.926 2.045 1.85 3.086 2.755.99.86.8 2.47-.308 3.2-2.16 1.423-4.499 2.041-7.022 1.437a14.935 14.935 0 01-4.001-1.55 20.03 20.03 0 01-6.004-5.407C.542 8.992-.35 6.807.132 4.228c.274-1.45 1.054-2.6 1.987-3.653.709-.799 2.33-.734 3.159.01L8.474 3.45c.803.716 1.004 1.956.287 2.736a17.127 17.127 0 01-2.444 2.136c-1.036.77-2.229.835-3.448.459a5.071 5.071 0 00-.584-.082zm12.081 8.05c1.146-.013 2.377-.507 3.536-1.186.699-.408.756-.85.169-1.401a52.105 52.105 0 00-3.037-2.666c-.209-.167-.77-.175-.979-.015-.72.54-1.376 1.16-1.953 1.848a2.272 2.272 0 00-.434 1.482c.075.913 1.535 1.974 2.698 1.937zM4.12 7.597c.16.007.322-.006.48-.038 1.241-.408 2.107-1.312 2.898-2.276.12-.146 0-.673-.185-.845-1.016-.97-2.079-1.889-3.138-2.813-.402-.35-.754-.227-1.117.136-.788.783-1.183 1.751-1.405 2.802a2.482 2.482 0 00.5 2.104 2.515 2.515 0 001.967.93z" fill="#000"/></g></g><defs><clipPath id="iclip0"><path fill="#fff" d="M0 0h20v20H0z"/></clipPath></defs></svg><svg fill="none" viewBox="0 0 37 52" id="scroll" xmlns="http://www.w3.org/2000/svg"><rect x=".5" width="36" height="52" rx="18" fill="#fff"/><path d="M18.5 36v16" stroke="#000"/></svg><svg fill="none" viewBox="0 0 28 32" id="sound" xmlns="http://www.w3.org/2000/svg"><path d="M1 32V0m13 32V6m13 26V9" stroke="#000" stroke-width="2"/></svg><svg fill="none" viewBox="0 0 16 14" id="twitter" xmlns="http://www.w3.org/2000/svg"><path fill-rule="evenodd" clip-rule="evenodd" d="M13.846 2.545v.002-.002zm-8.752 9.453c.02 0 .041 0 .061.002 4.746-.03 7.579-3.656 7.579-7.161 0-.319.163-.525.308-.707.132-.167.336-.423.518-.793-.661-.007-1.251-.3-1.595-.702A2.044 2.044 0 0010.535 2a2.069 2.069 0 00-1.491.57 2.14 2.14 0 00-.605 2.024l.217.95-.971.068c-2.515.188-4.256-.887-5.452-2 .005 1.683.564 3.93 3.106 5.377l.798.455-.53.751c-.553.783-1.385 1.282-2.232 1.601.56.133 1.135.202 1.708.202h.01zm0 1.669a.75.75 0 01-.067-.003 9.096 9.096 0 01-3.879-.902 1.162 1.162 0 01.33-2.186c.87-.143 1.592-.398 2.116-.74C.363 7.422.448 3.805.657 2.274c.062-.449.381-.823.813-.954.438-.133.892 0 1.192.341 1.28 1.451 2.56 2.18 4.06 2.291a3.809 3.809 0 011.173-2.588 3.717 3.717 0 012.69-1.028 3.715 3.715 0 012.623 1.192c.07.08.332.225.647.083a1.16 1.16 0 011.229.163c.342.284.488.731.382 1.167a5.555 5.555 0 01-1.07 2.167c-.14 4.254-3.596 8.56-9.302 8.56z" fill="#231F20"/></svg></svg>