<?xml version="1.0" encoding="utf-8"?><!DOCTYPE svg PUBLIC "-//W3C//DTD SVG 1.1//EN" "http://www.w3.org/Graphics/SVG/1.1/DTD/svg11.dtd"><svg viewBox="0 0 512 512" xmlns="http://www.w3.org/2000/svg" xmlns:xlink="http://www.w3.org/1999/xlink"><style>:root>svg{display:none}:root>svg:target{display:block}</style><svg fill="none" viewBox="0 0 25 21" id="arrow-right" xmlns="http://www.w3.org/2000/svg"><path d="M15.369 19.587l8.213-8.15a1.92 1.92 0 000-2.72L15.37.563a1.958 1.958 0 00-2.746 0 1.922 1.922 0 000 2.719l4.806 4.767H2.014a2.012 2.012 0 100 4.027h15.444l-4.835 4.792a1.92 1.92 0 000 2.718 1.953 1.953 0 002.746.002z" fill="#fff"/></svg><svg viewBox="0 0 452.805 452.805" id="double-tap" xmlns="http://www.w3.org/2000/svg"><path d="M254.467 135c-5.523 0-10-4.477-10-10 0-34.777-28.294-63.07-63.072-63.07-34.777 0-63.07 28.293-63.07 63.07 0 5.523-4.477 10-10 10s-10-4.477-10-10c0-45.805 37.265-83.07 83.07-83.07 45.806 0 83.072 37.265 83.072 83.07 0 5.523-4.477 10-10 10z"/><path d="M291.246 169.143a9.987 9.987 0 01-2.969-.453c-5.274-1.638-8.222-7.242-6.583-12.516 3.12-10.044 4.702-20.533 4.702-31.174 0-57.897-47.103-105-105-105s-105 47.103-105 105c0 10.635 1.582 21.124 4.703 31.176 1.638 5.274-1.311 10.878-6.586 12.515-5.274 1.64-10.877-1.311-12.515-6.586-3.717-11.973-5.602-24.457-5.602-37.105 0-68.925 56.075-125 125-125s125 56.075 125 125c0 12.655-1.885 25.14-5.602 37.107-1.333 4.286-5.284 7.036-9.548 7.036z"/><path d="M182.572 104.389c12.401 0 24.246 9.514 24.246 21.188.008.045-.064 89.86-.076 111.957-.001.046-.014.089-.014.135v4.617a3.986 3.986 0 007.97 0v-1.194c.217-13.328 11.082-24.067 24.463-24.067 13.515 0 24.472 10.957 24.472 24.473l.019 17.721a3.925 3.925 0 107.848 0l-.008-1.014c0-12.305 11.957-20.894 24.256-20.894 13.517 0 24.422 10.956 24.422 24.472l.049 17.937a3.82 3.82 0 007.637 0l-.014-1.365c0-11.19 12.108-19.771 24.017-19.771 13.514 0 24.472 10.957 24.472 24.472l.078 44.96c0 41.815-16.262 104.791-116.37 104.791-119.309 0-135.216-60.478-133.383-125.643.442-15.718 13.954-25 25-25v28.822c0 3.625 2.514 4.047 3.264 4.047s3.18-.411 3.18-4.038V128.863c.001-13.517 10.957-24.474 24.472-24.474m0-20c-24.521 0-44.471 19.95-44.471 44.472v135.57c-16.375 5.479-30.829 20.592-31.436 42.168-.95 33.752 1.817 76.462 31.894 107.397 25.39 26.115 65.127 38.809 121.481 38.809 50.684 0 88.169-14.908 111.414-44.311 16.326-20.651 24.956-48.48 24.956-80.48l-.078-44.995c0-24.487-19.95-44.437-44.472-44.437-5.573 0-11.219 1.072-16.508 3.065-7.351-14.431-22.343-24.338-39.604-24.338-6.153 0-12.015 1.166-17.344 3.271-7.494-14.005-22.274-23.558-39.244-23.558-4.251 0-8.414.594-12.393 1.743l.009-12.671.03-41.446c.007-11.29.011-16.443-.036-19.073h.045c.002-22.325-20.26-41.186-44.243-41.186z"/></svg><svg aria-hidden="true" data-prefix="fab" data-icon="github" class="csvg-inline--fa cfa-github cfa-w-16" viewBox="0 0 496 512" id="github-brands" xmlns="http://www.w3.org/2000/svg"><path fill="currentColor" d="M165.9 397.4c0 2-2.3 3.6-5.2 3.6-3.3.3-5.6-1.3-5.6-3.6 0-2 2.3-3.6 5.2-3.6 3-.3 5.6 1.3 5.6 3.6zm-31.1-4.5c-.7 2 1.3 4.3 4.3 4.9 2.6 1 5.6 0 6.2-2s-1.3-4.3-4.3-5.2c-2.6-.7-5.5.3-6.2 2.3zm44.2-1.7c-2.9.7-4.9 2.6-4.6 4.9.3 2 2.9 3.3 5.9 2.6 2.9-.7 4.9-2.6 4.6-4.6-.3-1.9-3-3.2-5.9-2.9zM244.8 8C106.1 8 0 113.3 0 252c0 110.9 69.8 205.8 169.5 239.2 12.8 2.3 17.3-5.6 17.3-12.1 0-6.2-.3-40.4-.3-61.4 0 0-70 15-84.7-29.8 0 0-11.4-29.1-27.8-36.6 0 0-22.9-15.7 1.6-15.4 0 0 24.9 2 38.6 25.8 21.9 38.6 58.6 27.5 72.9 20.9 2.3-16 8.8-27.1 16-33.7-55.9-6.2-112.3-14.3-112.3-110.5 0-27.5 7.6-41.3 23.6-58.9-2.6-6.5-11.1-33.3 2.6-67.9 20.9-6.5 69 27 69 27 20-5.6 41.5-8.5 62.8-8.5s42.8 2.9 62.8 8.5c0 0 48.1-33.6 69-27 13.7 34.7 5.2 61.4 2.6 67.9 16 17.7 25.8 31.5 25.8 58.9 0 96.5-58.9 104.2-114.8 110.5 9.2 7.9 17 22.9 17 46.4 0 33.7-.3 75.4-.3 83.6 0 6.5 4.6 14.4 17.3 12.1C428.2 457.8 496 362.9 496 252 496 113.3 383.5 8 244.8 8zM97.2 352.9c-1.3 1-1 3.3.7 5.2 1.6 1.6 3.9 2.3 5.2 1 1.3-1 1-3.3-.7-5.2-1.6-1.6-3.9-2.3-5.2-1zm-10.8-8.1c-.7 1.3.3 2.9 2.3 3.9 1.6 1 3.6.7 4.3-.7.7-1.3-.3-2.9-2.3-3.9-2-.6-3.6-.3-4.3.7zm32.4 35.6c-1.6 1.3-1 4.3 1.3 6.2 2.3 2.3 5.2 2.6 6.5 1 1.3-1.3.7-4.3-1.3-6.2-2.2-2.3-5.2-2.6-6.5-1zm-11.4-14.7c-1.6 1-1.6 3.6 0 5.9 1.6 2.3 4.3 3.3 5.6 2.3 1.6-1.3 1.6-3.9 0-6.2-1.4-2.3-4-3.3-5.6-2z"/></svg><svg aria-hidden="true" data-prefix="fas" data-icon="paw" class="dsvg-inline--fa dfa-paw dfa-w-16" viewBox="0 0 512 512" id="paw-solid" xmlns="http://www.w3.org/2000/svg"><path fill="currentColor" d="M256 224c-79.41 0-192 122.76-192 200.25 0 34.9 26.81 55.75 71.74 55.75 48.84 0 81.09-25.08 120.26-25.08 39.51 0 71.85 25.08 120.26 25.08 44.93 0 71.74-20.85 71.74-55.75C448 346.76 335.41 224 256 224zm-147.28-12.61c-10.4-34.65-42.44-57.09-71.56-50.13-29.12 6.96-44.29 40.69-33.89 75.34 10.4 34.65 42.44 57.09 71.56 50.13 29.12-6.96 44.29-40.69 33.89-75.34zm84.72-20.78c30.94-8.14 46.42-49.94 34.58-93.36s-46.52-72.01-77.46-63.87-46.42 49.94-34.58 93.36c11.84 43.42 46.53 72.02 77.46 63.87zm281.39-29.34c-29.12-6.96-61.15 15.48-71.56 50.13-10.4 34.65 4.77 68.38 33.89 75.34 29.12 6.96 61.15-15.48 71.56-50.13 10.4-34.65-4.77-68.38-33.89-75.34zm-156.27 29.34c30.94 8.14 65.62-20.45 77.46-63.87 11.84-43.42-3.64-85.21-34.58-93.36s-65.62 20.45-77.46 63.87c-11.84 43.42 3.64 85.22 34.58 93.36z"/></svg></svg>