<svg viewBox="0 0 452.81 452.81" xmlns="http://www.w3.org/2000/svg" xmlns:xlink="http://www.w3.org/1999/xlink"><style>:root&gt;svg{display:none}:root&gt;svg:target{display:block}</style><svg viewBox="-5 -4.5 24 24" preserveAspectRatio="xMinYMin" class="aicon__icon" id="arrow-up" xmlns="http://www.w3.org/2000/svg"><path d="M6 4.071l-3.95 3.95A1 1 0 01.636 6.607L6.293.95a.997.997 0 011.414 0l5.657 5.657A1 1 0 0111.95 8.02L8 4.07v9.586a1 1 0 11-2 0V4.07z"/></svg><svg viewBox="-2 -2 24 24" preserveAspectRatio="xMinYMin" class="bicon__icon" id="arrows-fullscreen" xmlns="http://www.w3.org/2000/svg"><path d="M19 0a1 1 0 011 1v6a1 1 0 01-2 0V3.414L11.414 10 18 16.586V13a1 1 0 012 0v6a1 1 0 01-1 1h-6a1 1 0 010-2h3.586L10 11.414 3.414 18H7a1 1 0 010 2H1a1 1 0 01-1-1v-6a1 1 0 012 0v3.586L8.586 10 2 3.414V7a1 1 0 11-2 0V1a1 1 0 011-1h6a1 1 0 110 2H3.414L10 8.586 16.586 2H13a1 1 0 010-2h6z"/></svg><svg viewBox="0 0 452.805 452.805" id="double-tap" xmlns="http://www.w3.org/2000/svg"><path d="M254.467 135c-5.523 0-10-4.477-10-10 0-34.777-28.294-63.07-63.072-63.07-34.777 0-63.07 28.293-63.07 63.07 0 5.523-4.477 10-10 10s-10-4.477-10-10c0-45.805 37.265-83.07 83.07-83.07 45.806 0 83.072 37.265 83.072 83.07 0 5.523-4.477 10-10 10z"/><path d="M291.246 169.143a9.987 9.987 0 01-2.969-.453c-5.274-1.638-8.222-7.242-6.583-12.516 3.12-10.044 4.702-20.533 4.702-31.174 0-57.897-47.103-105-105-105s-105 47.103-105 105c0 10.635 1.582 21.124 4.703 31.176 1.638 5.274-1.311 10.878-6.586 12.515-5.274 1.64-10.877-1.311-12.515-6.586-3.717-11.973-5.602-24.457-5.602-37.105 0-68.925 56.075-125 125-125s125 56.075 125 125c0 12.655-1.885 25.14-5.602 37.107-1.333 4.286-5.284 7.036-9.548 7.036z"/><path d="M182.572 104.389c12.401 0 24.246 9.514 24.246 21.188.008.045-.064 89.86-.076 111.957-.001.046-.014.089-.014.135v4.617a3.986 3.986 0 007.97 0v-1.194c.217-13.328 11.082-24.067 24.463-24.067 13.515 0 24.472 10.957 24.472 24.473l.019 17.721a3.925 3.925 0 107.848 0l-.008-1.014c0-12.305 11.957-20.894 24.256-20.894 13.517 0 24.422 10.956 24.422 24.472l.049 17.937a3.82 3.82 0 007.637 0l-.014-1.365c0-11.19 12.108-19.771 24.017-19.771 13.514 0 24.472 10.957 24.472 24.472l.078 44.96c0 41.815-16.262 104.791-116.37 104.791-119.309 0-135.216-60.478-133.383-125.643.442-15.718 13.954-25 25-25v28.822c0 3.625 2.514 4.047 3.264 4.047s3.18-.411 3.18-4.038V128.863c.001-13.517 10.957-24.474 24.472-24.474m0-20c-24.521 0-44.471 19.95-44.471 44.472v135.57c-16.375 5.479-30.829 20.592-31.436 42.168-.95 33.752 1.817 76.462 31.894 107.397 25.39 26.115 65.127 38.809 121.481 38.809 50.684 0 88.169-14.908 111.414-44.311 16.326-20.651 24.956-48.48 24.956-80.48l-.078-44.995c0-24.487-19.95-44.437-44.472-44.437-5.573 0-11.219 1.072-16.508 3.065-7.351-14.431-22.343-24.338-39.604-24.338-6.153 0-12.015 1.166-17.344 3.271-7.494-14.005-22.274-23.558-39.244-23.558-4.251 0-8.414.594-12.393 1.743l.009-12.671.03-41.446c.007-11.29.011-16.443-.036-19.073h.045c.002-22.325-20.26-41.186-44.243-41.186z"/></svg><svg viewBox="-2 -2 24 24" preserveAspectRatio="xMinYMin" class="dicon__icon" id="github" xmlns="http://www.w3.org/2000/svg"><path d="M18.88 1.099C18.147.366 17.265 0 16.233 0H3.746C2.714 0 1.832.366 1.099 1.099.366 1.832 0 2.714 0 3.746v12.487c0 1.032.366 1.914 1.099 2.647.733.733 1.615 1.099 2.647 1.099H6.66c.19 0 .333-.007.429-.02a.504.504 0 00.286-.169c.095-.1.143-.245.143-.435l-.007-.885c-.004-.564-.006-1.01-.006-1.34l-.3.052c-.19.035-.43.05-.721.046a5.555 5.555 0 01-.904-.091 2.026 2.026 0 01-.872-.39 1.651 1.651 0 01-.572-.8l-.13-.3a3.25 3.25 0 00-.41-.663c-.186-.243-.375-.407-.566-.494l-.09-.065a.956.956 0 01-.17-.156.723.723 0 01-.117-.182c-.026-.061-.004-.111.065-.15.07-.04.195-.059.378-.059l.26.04c.173.034.388.138.643.311a2.1 2.1 0 01.631.677c.2.355.44.626.722.813.282.186.566.28.852.28.286 0 .533-.022.742-.065a2.59 2.59 0 00.585-.196c.078-.58.29-1.028.637-1.34a8.907 8.907 0 01-1.333-.234 5.314 5.314 0 01-1.223-.507 3.5 3.5 0 01-1.047-.872c-.277-.347-.505-.802-.683-1.365-.177-.564-.266-1.215-.266-1.952 0-1.049.342-1.942 1.027-2.68-.32-.788-.29-1.673.091-2.652.252-.079.625-.02 1.119.175.494.195.856.362 1.086.5.23.14.414.257.553.352a9.233 9.233 0 012.497-.338c.859 0 1.691.113 2.498.338l.494-.312a6.997 6.997 0 011.197-.572c.46-.174.81-.221 1.054-.143.39.98.424 1.864.103 2.653.685.737 1.028 1.63 1.028 2.68 0 .737-.089 1.39-.267 1.957-.177.568-.407 1.023-.689 1.366a3.65 3.65 0 01-1.053.865c-.42.234-.828.403-1.223.507a8.9 8.9 0 01-1.333.235c.45.39.676 1.005.676 1.846v3.11c0 .147.021.266.065.357a.36.36 0 00.208.189c.096.034.18.056.254.064.074.01.18.013.318.013h2.914c1.032 0 1.914-.366 2.647-1.099.732-.732 1.099-1.615 1.099-2.647V3.746c0-1.032-.367-1.914-1.1-2.647z"/></svg><svg viewBox="-2 -4 24 24" preserveAspectRatio="xMinYMin" class="eicon__icon" id="settings-alt" xmlns="http://www.w3.org/2000/svg"><path d="M9 12V1a1 1 0 112 0v11h1a1 1 0 010 2h-1v1a1 1 0 01-2 0v-1H8a1 1 0 010-2h1zm7-10V1a1 1 0 012 0v1h1a1 1 0 010 2h-1v11a1 1 0 01-2 0V4h-1a1 1 0 010-2h1zM4 5h1a1 1 0 110 2H4v8a1 1 0 01-2 0V7H1a1 1 0 110-2h1V1a1 1 0 112 0v4z"/></svg></svg>